<?xml version="1.0" encoding="UTF-8"?>
<svg id="Calque_1" data-name="Calque 1" xmlns="http://www.w3.org/2000/svg" viewBox="0 0 700 700">
  <defs>
    <style>
      .cls-1 {
        fill: #ff5f40;
        stroke: #000;
        stroke-miterlimit: 10;
        stroke-width: 21.94px;
      }
    </style>
  </defs>
  <path class="cls-1" d="M487.1,387.43c-5.73,29.08,29.96,50.22,44.2,71.66,75.48,116.16-26.87,194.57-107.79,107.64-20.56-21.88-27.61-59.47-65.79-59.47-43.03,0-45.96,45.82-69.02,69.46-55.36,56.98-134.81,24.82-124.53-58.45,6.76-53.89,87.52-111.46,42.73-156.1-20.56-19.97-52.13-9.69-78.12-14.24-88.7-16.01-82.09-124.09,6.02-136.28,40.86-5.53,92.29,13.68,117.99-19.3,6.59-8.46,9.33-19.3,9.33-30.03v-33.97c0-29.26,23.72-52.98,52.98-52.98h45.74c29.26,0,52.98,23.72,52.98,52.98v53.05c0,68.43,192.96-22.17,209.26,87.52,14.24,96.92-124.38,57.86-135.98,118.51Z"/>
</svg>