<?xml version="1.0" encoding="UTF-8"?>
<svg id="Calque_1" data-name="Calque 1" xmlns="http://www.w3.org/2000/svg" viewBox="0 0 700 700">
  <defs>
    <style>
      .cls-1 {
        fill: #fd9fbd;
      }

      .cls-2 {
        fill: #fff;
      }

      .cls-3 {
        fill: #fdf4a5;
      }

      .cls-4 {
        fill: #ff5f40;
      }
    </style>
  </defs>
  <path class="cls-4" d="M476.62,114.17c-5.79-.44-16.95,3.34-16.67-6.27.12-4.1,2.53-10.01,2.73-14.78,1.6-36.04-34.99-62.73-68.48-47.18-6.25,2.91-8.8,6.01-13.64,10.12-9.82,8.31-11.98-.39-18.1-6.39-29.47-28.82-78.96-5.83-82.17,33.14-.44,5.41,2.11,12.89.2,17.13-2.98,6.65-12.62,1.94-18.6,2.17-48.5,1.83-71.41,64.36-34.39,95.07,5.91,4.9,14.14,5.63,12.36,15.24l7.34,2.78c21.97-4.77,44.35-7.6,66.67-10.3l1.17-.84c-2.22-7.65,1.55-15.53,9.76-16.65,10.14-1.38,22.46,4.39,33.29,4.87,9.08.38,19.16-2.76,27.81-1.6,1.99.28,5.48,2.07,6.86,3.51,7.44,7.72.05,20.54-6.55,26.23-9.68,8.36-23.06,10.6-35.55,9.3-9.81,15.67-22.17,29.56-34.94,42.87,13.1,1.89,26.02-2.45,36.32-10.4,1.56-1.2,2.81-3.23,4.48-4.26,8.85-5.48,12.75,5.3,18.5,10.29,29.85,25.84,81.3,7.26,86.43-32.11.67-5.1-.86-13.59,7.01-13.81,8.62-.23,13.46.72,22.4-2.14,56.03-17.97,42.57-101.64-14.23-106ZM404.6,182.55c-20.55,10.37-35.51-11.16-38.62-29.05l-5.91,11.83c-13.1,21.9-35.92,21.62-47-1.81-9.69-20.52-8.38-51.26,3.31-70.85,3.67-6.15,11.14-14.51,18.43-15.98,18.83-3.77,29.61,15.34,32.81,30.91,1.43.25.86-.2,1.15-.77,5.36-10.55,11.63-24.77,25.41-26.48,23.06-2.86,32.53,28.27,33.54,46.11,1,17.71-5.81,47.35-23.12,56.08Z"/>
  <path class="cls-4" d="M338.66,276.43v351.02c-1.17,14.99-5.32,22.87-20.29,26.68-4.72,1.2-24.82,5.4-23.94-3.14.61-5.91,17.16-7.52,21.95-9.22,8.59-3.03,9.99-8.61,10.81-17.05l.25-345.6,11.22-2.68Z"/>
  <path class="cls-4" d="M417.14,657.7c-18.96-2.58-25.44-8.24-26.56-27.52v-346.11l11.4,2.8.07,339.48c.81,4.43.38,8.9,3.04,12.8,6.01,8.85,24.98,5.5,28.9,11.54,5.63,8.72-12.62,7.59-16.85,7.01Z"/>
  <path class="cls-4" d="M273.12,285.17c.51.74-11.29,11.7-12.56,12.84-16.31,14.6-48.89,37.49-71.7,32.35-7.7-1.73-12.69-7.01-13.48-14.94-1.73-17.62,13.56-38.1,24.78-50.47,1.97-2.17,10.17-9.3,10.93-10.93,1.88-4.1-3.79-5.4-4.51-8.57-.91-3.88.76-6.9,5.04-6.15,2.14.38,2.72,2.47,3.72,2.9,4.81,2.07,4.31-3.14,5.3-5.94,1.97-5.61,9.22-5.02,8.8,1.68-.13,2.4-2.16,4.1-.28,6.25,2.72,3.13,7.13-2.58,10.63,1.91,2.76,3.55-.15,6.76-3.8,7.7-1.94.49-4.57-.26-5.64,2.02-1.46,3.14,5.81,6.45,1.65,10.63-.41.4-2.32,1.17-2.91,1.23-4.79.48-5.68-7.73-10.04-5.73-10.88,12.31-29.85,30.25-31.14,47.53-1.14,15.14,19.73,7.59,27.66,4.2,17.59-7.5,33.79-21.39,47.51-34.43l10.04,5.92Z"/>
  <path class="cls-3" d="M351.93,209.35c-16.87-3-47.67,2.29-65.33,4.87-12.92,1.91-25.92,4.08-38.61,7.03,8.94,19.35,25.28,33.08,42.98,44.14,2.78,1.74,6.19,3.06,8.87,4.79,1.97,1.28,3.21,2.9,5.15,4.02,15.95-15.01,30.99-32.19,42.66-50.82,1.1-1.76,7.19-11.59,6.85-12.72-.25-.76-1.83-1.17-2.57-1.3ZM300.73,227.26c1.83-.53,3.52,2.6,1.55,3.23-2.81.87-3.04-2.8-1.55-3.23ZM258.09,227.13c-1.68.12-2.78-2.44-.46-3.06,2.55-.69,1.99,2.95.46,3.06ZM280.44,249.06c-3.24,1-2.39-2.91-1.02-3.23,1.23-.3,2.93,2.62,1.02,3.23ZM265.05,227.11c.77-3.8,5.94-6.85,9.56-7.36,7.78-1.14,18.81,3.62,15.29,13.1-4.03,10.86-27.68,7.92-24.85-5.74ZM289,249.41c.58-3.72,5.6-7.22,9.1-7.82,5.2-.89,14.63,1.38,15.86,7.37,3.36,16.26-27.3,15.75-24.96.44ZM321.4,244.16c-1.73.25-2.22-2.63-.43-3.19,2.44-.76,2.19,2.93.43,3.19ZM321.43,234.07c-13.44-2.4-12.84-17.56.16-19.24,5.84-.76,14.86,2.17,15.44,8.87.74,8.39-8.62,11.62-15.6,10.37ZM342.71,217.37c-2.19.69-2.44-2.83-1.02-3.23,2.14-.59,3.06,2.58,1.02,3.23Z"/>
  <path class="cls-4" d="M482.44,335.82c-.82,2.78,2.16,4.34,3.06,6.58,2.85,7.04-3.97,10.78-8.29,5-1.18-1.58-1.04-3.79-3.52-4.06-3.74-.41-3.55,2.88-5.3,4.61-3.54,3.47-9,1.2-8.33-3.9.44-3.31,4.72-5.88,4.18-8.76-.76-4.06-7.08-1-8.79-4.92-1.42-3.26.86-6.14,4.23-6.43,3.08-.28,6.53,2.09,7.82-2.01,1.18-27.4-1.2-55.66.08-82.96.15-3.19.79-6.88,1.12-10.09,3.54.91,6.85.59,10.38,0v93.7c0,4.56,10.98-.05,12.01,5.48,1.35,7.13-7.67,4.44-8.66,7.75Z"/>
  <path class="cls-3" d="M293.64,286.81c-12.14-.18-34.36-18.12-42.39-27.04-.82-.92-4.23-4.69-4.51-5.38-.31-.72.67-2.98.72-4.46.3-7.54-4.54-11.09-11.26-12.82-.18-2.75-.59-4.82-2.19-7.09-1.76-2.53-3.65-1.96-2.73-6.09,1.15-5.17,8.57-6.35,12.31-3.51,1.53,1.17,6.17,10.71,7.98,13.33,9.27,13.38,22.94,24.7,36.67,33.28.77.48,10.55,5.58,10.01,6.11-3.44.23-6.12,3.06-7.26,6.12-.77,2.06-1.93,5.92,1.25,6.45-.23-5.38,2.81-11.34,9-10.42,3,5.1-2.12,11.6-7.6,11.52Z"/>
  <path class="cls-2" d="M257.24,274.59c.33,1.96-20.72,18.66-23.83,20.85-7.64,5.36-18.56,12-27.5,14.58-1.74.51-10.32,2.67-11.24,1.38,2.55-15.95,14.73-28.88,25.44-40.19,2.52.71,3.39,2.68,6.29,3.03,9.61,1.18,14.58-5.18,13.36-14.38l1.5-.81c1.1.03,4.34,3.92,5.43,5,3.47,3.54,6.78,7.24,10.55,10.53Z"/>
  <path d="M466.51,108.15c3.57-12.61,3.77-24.36-.67-36.73-12.28-34.2-53.86-47.36-83.63-25.98-3.01,2.16-5.3,4.87-8.29,7.01-1,0-5.74-6.43-7.08-7.7-32.39-30.69-85.79-9.13-92.47,33.24-1.14,7.18,0,10.81.26,17.49.12,2.98-3.37.77-5.6.64-62.9-3.78-90.56,74.56-40.89,109.73,3.54,2.5,6.09,1.94,5.12,7.39-5.63,1.74-8.15,6.75-8.89,12.26-4.3,1.28-8.59,2.93-9.73,7.77-12.26-4.66-20.44,9.69-11.49,18.84-14.37,14.37-30.68,32.93-34.33,53.63-2.39,13.63,2.7,27.2,16.98,30.94,26.3,6.9,63.11-18.23,81.64-35.32l12.39-12.29c6.75,3.34,14.35,6.43,21.51,2.22,2.06-1.22,5.25-4.82,6.06-7.06.82-2.24.2-4.57,2.34-5.91l10.3.89c1.32,3.13.08,5.92.02,8.94-2.14,108.79.61,218.07,0,326.76-.02,4.95.66,9.3-.76,14.47-1.1,3.95-2.73,4.9-6.43,6.15-9,3.01-27.68,3.59-25.43,18,2.04,13.12,22.48,9.74,31.46,7.69,20.06-4.57,25.95-15.5,26.89-35.38l-.05-351.78c2.76-1.68,6.5-3.32,9.03-5.28,1.63-1.27,4.61-5.51,6.57-5.46,1.37.05,7.11,7.65,8.66,9.08,1.89,1.76,5.09,4.08,7.27,5.56,1.53,1.04,5.88,2.55,6.19,4.2l-.03,346.41c1.1,12.52,1.73,23.81,13.87,30.38,9.15,4.95,34.36,10.1,41.88,1.27,2.9-3.41,3.32-6.86,1.74-11.01-3.6-9.53-16.64-8.67-24.68-11.37-7.67-2.57-6.07-5.51-7.09-12.57l-.02-338.46h7.93c2.91,0,12.33-3.47,15.39-4.82,11.83-5.2,20.87-13.54,28.04-24.13v59.54c-9.12-1.32-15.57,9.05-11.04,16.79,1.3,2.21,3.34,3.09,4.97,4.87-4.62,9.36,2.42,18.76,12.77,17.02,1.88-.33,4.89-2.6,5.6-2.6.94,0,2.85,1.96,4.1,2.45,11.42,4.48,19.65-6.19,15.26-16.87,10.86-5.58,6.34-21.71-5.97-21.1l.02-90.15c25.95-4.26,45.9-27.68,47.51-53.83,2.32-37.36-29.51-69.96-67.19-65.83ZM260.56,298.01c-16.31,14.6-48.89,37.49-71.7,32.35-7.7-1.73-12.69-7.01-13.48-14.94-1.73-17.62,13.56-38.1,24.78-50.47,1.97-2.17,10.17-9.3,10.93-10.93,1.88-4.1-3.79-5.4-4.51-8.57-.91-3.88.76-6.9,5.04-6.15,2.14.38,2.72,2.47,3.72,2.9,4.81,2.07,4.31-3.14,5.3-5.94,1.97-5.61,9.22-5.02,8.8,1.68-.13,2.4-2.16,4.1-.28,6.25,2.72,3.13,7.13-2.58,10.63,1.91,2.76,3.55-.15,6.76-3.8,7.7-1.94.49-4.57-.26-5.64,2.02-1.46,3.14,5.81,6.45,1.65,10.63-.41.4-2.32,1.17-2.91,1.23-4.79.48-5.68-7.73-10.04-5.73-10.88,12.31-29.85,30.25-31.14,47.53-1.14,15.14,19.73,7.59,27.66,4.2,17.59-7.5,33.79-21.39,47.51-34.43l10.04,5.92c.51.74-11.29,11.7-12.56,12.84ZM239.76,259.86l1.5-.81c1.1.03,4.34,3.92,5.43,5,3.47,3.54,6.78,7.24,10.55,10.53.33,1.96-20.72,18.66-23.83,20.85-7.64,5.36-18.56,12-27.5,14.58-1.74.51-10.32,2.67-11.24,1.38,2.55-15.95,14.73-28.88,25.44-40.19,2.52.71,3.39,2.68,6.29,3.03,9.61,1.18,14.58-5.18,13.36-14.38ZM293.64,286.81c-12.14-.18-34.36-18.12-42.39-27.04-.82-.92-4.23-4.69-4.51-5.38-.31-.72.67-2.98.72-4.46.3-7.54-4.54-11.09-11.26-12.82-.18-2.75-.59-4.82-2.19-7.09-1.76-2.53-3.65-1.96-2.73-6.09,1.15-5.17,8.57-6.35,12.31-3.51,1.53,1.17,6.17,10.71,7.98,13.33,9.27,13.38,22.94,24.7,36.67,33.28.77.48,10.55,5.58,10.01,6.11-3.44.23-6.12,3.06-7.26,6.12-.77,2.06-1.93,5.92,1.25,6.45-.23-5.38,2.81-11.34,9-10.42,3,5.1-2.12,11.6-7.6,11.52ZM304.99,274.19c-1.94-1.12-3.18-2.73-5.15-4.02-2.68-1.73-6.09-3.04-8.87-4.79-17.71-11.06-34.05-24.78-42.98-44.14,12.69-2.95,25.69-5.12,38.61-7.03,17.66-2.58,48.46-7.87,65.33-4.87.74.13,2.32.54,2.57,1.3.35,1.14-5.74,10.96-6.85,12.72-11.67,18.63-26.71,35.81-42.66,50.82ZM338.66,627.45c-1.17,14.99-5.32,22.87-20.29,26.68-4.72,1.2-24.82,5.4-23.94-3.14.61-5.91,17.16-7.52,21.95-9.22,8.59-3.03,9.99-8.61,10.81-17.05l.25-345.6,11.22-2.68v351.02ZM434,650.69c5.63,8.72-12.62,7.59-16.85,7.01-18.96-2.58-25.44-8.24-26.56-27.52v-346.11l11.4,2.8.07,339.48c.81,4.43.38,8.9,3.04,12.8,6.01,8.85,24.98,5.5,28.9,11.54ZM491.1,328.07c1.35,7.13-7.67,4.44-8.66,7.75-.82,2.78,2.16,4.34,3.06,6.58,2.85,7.04-3.97,10.78-8.29,5-1.18-1.58-1.04-3.79-3.52-4.06-3.74-.41-3.55,2.88-5.3,4.61-3.54,3.47-9,1.2-8.33-3.9.44-3.31,4.72-5.88,4.18-8.76-.76-4.06-7.08-1-8.79-4.92-1.42-3.26.86-6.14,4.23-6.43,3.08-.28,6.53,2.09,7.82-2.01,1.18-27.4-1.2-55.66.08-82.96.15-3.19.79-6.88,1.12-10.09,3.54.91,6.85.59,10.38,0v93.7c0,4.56,10.98-.05,12.01,5.48ZM490.85,220.17c-8.94,2.86-13.77,1.91-22.4,2.14-7.87.21-6.34,8.71-7.01,13.81-5.13,39.36-56.58,57.94-86.43,32.11-5.74-4.99-9.64-15.77-18.5-10.29-1.66,1.04-2.91,3.06-4.48,4.26-10.3,7.95-23.22,12.29-36.32,10.4,12.77-13.31,25.13-27.2,34.94-42.87,12.49,1.3,25.87-.94,35.55-9.3,6.6-5.69,13.99-18.51,6.55-26.23-1.38-1.43-4.87-3.23-6.86-3.51-8.66-1.17-18.73,1.97-27.81,1.6-10.83-.48-23.15-6.25-33.29-4.87-8.21,1.12-11.98,9-9.76,16.65l-1.17.84c-22.32,2.7-44.7,5.53-66.67,10.3l-7.34-2.78c1.78-9.61-6.45-10.33-12.36-15.24-37.01-30.71-14.1-93.24,34.39-95.07,5.97-.23,15.62,4.48,18.6-2.17,1.91-4.25-.64-11.72-.2-17.13,3.21-38.97,52.69-61.96,82.17-33.14,6.12,5.99,8.28,14.7,18.1,6.39,4.84-4.11,7.39-7.21,13.64-10.12,33.49-15.55,70.07,11.14,68.48,47.18-.2,4.77-2.62,10.68-2.73,14.78-.28,9.61,10.88,5.83,16.67,6.27,56.81,4.36,70.27,88.03,14.23,106Z"/>
  <path d="M367.63,107.61c1.42.25.85-.2,1.14-.78,5.37-10.55,11.63-24.77,25.42-26.48,23.05-2.86,32.53,28.28,33.53,46.11,1,17.72-5.81,47.36-23.12,56.09-20.55,10.37-35.52-11.16-38.62-29.05l-5.91,11.84c-13.1,21.9-35.93,21.62-47-1.81-9.7-20.53-8.37-51.27,3.3-70.84,3.67-6.15,11.15-14.52,18.44-15.98,18.81-3.78,29.6,15.34,32.82,30.9ZM339.12,82.05c-20.03,1.41-26.9,37.41-26.46,53.05.45,16.3,12.06,53.4,34.17,36.65,15.22-11.53,19.02-40.67,16.28-58.25-1.72-11.02-10.22-32.41-23.98-31.45ZM394.26,86.43c-16.3,2.62-24,32.29-24.47,46.01-.47,13.99,5.3,46.83,23.81,47.3,16.71.42,25.94-27,27.5-40.24,1.87-15.94-3.59-56.8-26.84-53.07Z"/>
  <path d="M274.62,219.75c7.78-1.12,18.8,3.63,15.28,13.1-4.03,10.87-27.69,7.92-24.86-5.74.79-3.8,5.95-6.83,9.57-7.36ZM274.06,223.01c-3.29.55-7.02,3.76-5.45,7.38,2.91,6.72,19.88,5.5,18.61-2.18-.88-5.31-8.97-5.9-13.16-5.2Z"/>
  <path d="M321.6,214.83c5.83-.75,14.85,2.18,15.44,8.88.73,8.39-8.63,11.61-15.61,10.36-13.45-2.4-12.83-17.56.17-19.24ZM316.46,227.06c3.58,3.73,12.91,4.14,16.21-.08,4.44-5.68-4.43-9.9-9.41-9.46-4.61.41-11.46,4.68-6.8,9.53Z"/>
  <path d="M298.1,241.59c5.2-.89,14.63,1.39,15.86,7.37,3.36,16.27-27.31,15.75-24.97.46.57-3.73,5.6-7.23,9.11-7.83ZM299.75,244.33c-3.18.41-9.29,3.51-7.66,7.35,2.55,6.01,14.39,6.76,18.17,1.52,4.2-5.82-5.61-9.5-10.51-8.87Z"/>
  <path d="M300.72,227.26c1.83-.52,3.54,2.61,1.56,3.22-2.83.88-3.05-2.8-1.56-3.22Z"/>
  <path d="M341.69,214.14c2.14-.6,3.06,2.58,1.02,3.22-2.19.69-2.45-2.82-1.02-3.22Z"/>
  <path d="M279.41,245.83c1.24-.29,2.93,2.63,1.02,3.23-3.23,1.01-2.38-2.91-1.02-3.23Z"/>
  <path d="M257.64,224.06c2.55-.69,1.99,2.96.46,3.07-1.68.12-2.79-2.43-.46-3.07Z"/>
  <path d="M320.98,240.97c2.43-.77,2.18,2.92.42,3.18-1.73.26-2.21-2.62-.42-3.18Z"/>
  <path class="cls-2" d="M394.26,86.43c23.26-3.73,28.72,37.13,26.84,53.07-1.56,13.24-10.79,40.66-27.5,40.24-18.51-.47-24.28-33.31-23.81-47.3.46-13.72,8.17-43.4,24.47-46.01ZM395.38,100.07c-22.12,2.25-27.47,58.37-7.12,67.49,7.57,3.39,14.22-1.53,18.18-7.77,8.24-13,9.82-36.07,2.81-49.83-2.42-4.76-8.05-10.49-13.87-9.89Z"/>
  <path class="cls-2" d="M339.12,82.05c13.77-.97,22.27,20.43,23.98,31.45,2.74,17.58-1.06,46.72-16.28,58.25-22.1,16.75-33.71-20.35-34.17-36.65-.44-15.64,6.44-51.64,26.46-53.05ZM336.89,96.81c-12.91,2.06-18.98,25.83-19.03,36.75-.04,10.17,4.85,31.66,17.8,32,14.27.38,20.53-24.26,21.06-35.26.56-11.51-3.92-36.03-19.83-33.49Z"/>
  <path class="cls-1" d="M274.06,223.01c4.19-.71,12.28-.12,13.16,5.2,1.27,7.68-15.7,8.9-18.61,2.18-1.57-3.62,2.16-6.82,5.45-7.38Z"/>
  <path class="cls-1" d="M316.46,227.06c-4.66-4.85,2.19-9.12,6.8-9.53,4.98-.44,13.86,3.78,9.41,9.46-3.3,4.21-12.63,3.8-16.21.08Z"/>
  <path class="cls-1" d="M299.75,244.33c4.9-.63,14.71,3.05,10.51,8.87-3.78,5.24-15.62,4.49-18.17-1.52-1.63-3.84,4.48-6.94,7.66-7.35Z"/>
  <path d="M395.38,100.07c5.82-.59,11.45,5.14,13.87,9.89,7.01,13.76,5.43,36.83-2.81,49.83-3.95,6.23-10.61,11.16-18.18,7.77-20.35-9.12-15-65.24,7.12-67.49Z"/>
  <path d="M336.89,96.81c15.92-2.54,20.39,21.98,19.83,33.49-.53,11-6.79,35.64-21.06,35.26-12.96-.34-17.85-21.84-17.8-32,.04-10.92,6.12-34.69,19.03-36.75Z"/>
</svg>