<?xml version="1.0" encoding="UTF-8"?>
<svg id="Calque_1" data-name="Calque 1" xmlns="http://www.w3.org/2000/svg" viewBox="0 0 700 700">
  <defs>
    <style>
      .cls-1 {
        fill: #abd4fd;
      }

      .cls-2 {
        fill: #fff;
      }

      .cls-3 {
        fill: #ff5f40;
      }
    </style>
  </defs>
  <path class="cls-1" d="M624.29,192.07v301.9c0,5.35-.34,10.65-1.02,15.83-7.76,59.4-58.55,105.24-120.05,105.24H201.32c-60.14,0-110.05-43.83-119.48-101.3-1.08-6.43-1.61-13.02-1.61-19.76V192.07c0-66.88,54.22-121.1,121.1-121.1h301.9c66.85,0,121.07,54.22,121.07,121.1Z"/>
  <path class="cls-3" d="M623.3,413.9v13.45h-.03v82.45c-7.76,59.4-58.55,105.24-120.05,105.24H201.32c-60.14,0-110.05-43.83-119.48-101.3v-96.32c.54-.17,1.1-.34,1.76-.51.62-.17,1.33-.37,2.07-.54.11-.03.23-.08.31-.08.06,0,.11-.03.17-.06h.14c.57-.14,1.13-.28,1.7-.4,1.76-.4,3.62-.76,5.49-1.13.4-.08.82-.17,1.22-.23,4.36-.85,8.55-1.53,11.01-1.9.28-.03.51-.06.74-.11.06,0,.11,0,.14-.03.14,0,.31,0,.45-.06h.06c.14,0,.28-.03.4-.03.06,0,.14-.03.2-.03,6.09-.59,14.02-1.16,20.05-.76h.14c2.38.17,4.7.85,7.05,1.27.34.06.68.14,1.02.17.51.09.96.17,1.47.17.06,0,.14,0,.23.03.57.03,1.16.03,1.76,0,.28,0,.59-.06.88-.09.03-.4.06-.74.09-1.1.37-7.98-3.31-15.46-3.91-23.39-.11-1.61-.2-3.2-.25-4.81-.14-3.43-.11-6.82.03-10.16l.17-2.63c.06-1.22.17-2.43.28-3.65.06-.59.11-1.19.17-1.78.14-1.36.31-2.72.51-4.08.11-.62.2-1.3.28-1.93.31-1.9.65-3.77,1.02-5.63.14-.62.28-1.25.42-1.87,1.59-7.22,3.79-14.18,6.57-20.87.4-.99.82-1.98,1.25-2.94.85-1.93,1.78-3.85,2.72-5.75,1.44-2.83,2.97-5.61,4.59-8.32,1.1-1.78,2.21-3.57,3.37-5.29,1.76-2.63,3.6-5.18,5.52-7.64,3.2-4.13,6.63-8.07,10.28-11.81,42.3-43.12,112.37-56.85,166.14-11.18.85.71,1.67,1.47,2.46,2.27.4.4.79.79,1.19,1.19,2.32,2.41,4.5,4.98,6.77,7.45.74.82,1.5,1.64,2.29,2.43,1.93,1.95,3.96,3.79,6.26,5.35.82.06,1.9-.74,3.14-2.01.25-.23.54-.54.79-.85.57-.59,1.13-1.25,1.67-1.93.28-.34.57-.71.85-1.08.28-.34.54-.68.79-1.05.42-.54.82-1.05,1.19-1.56.4-.51.74-.99,1.1-1.44.23-.31.45-.59.65-.85.51-.68.96-1.22,1.33-1.59,1.78-1.78,3.74-3.57,5.83-5.29,1.02-.88,2.1-1.73,3.2-2.58,1.13-.82,2.27-1.67,3.4-2.49h.03c1.16-.82,2.35-1.61,3.54-2.43,1.84-1.19,3.71-2.32,5.61-3.45,1.27-.74,2.58-1.47,3.85-2.15,6.51-3.57,13.34-6.63,19.96-9.03.68-.25,1.33-.48,2.01-.71,3.94-1.36,7.81-2.49,11.49-3.31,44.28-9.97,87.6,4.84,117.22,33.78.74.74,1.44,1.44,2.18,2.18,7.84,8.04,14.67,17.1,20.19,26.98,1.02,1.81,1.98,3.62,2.89,5.46h.03c.91,1.87,1.76,3.71,2.6,5.61v.03c.85,1.87,1.61,3.79,2.32,5.72.37.99.74,1.95,1.08,2.94.28.79.57,1.61.82,2.41.76,2.32,1.47,4.67,2.07,7.05.03.03.03.06.03.08.03.06.03.14.06.2.45,1.67.85,3.34,1.19,5.01.37,1.7.71,3.37.99,5.07.28,1.7.54,3.43.76,5.15,1.08,8.27,1.33,16.79.65,25.51-.03.51-.14,1.3-.34,2.35-.09.51-.2,1.08-.28,1.67-.11.59-.23,1.22-.37,1.9-.03.28-.09.54-.14.82l-.09.51c-.34,1.81-.71,3.79-1.08,5.8-.28,1.64-.59,3.26-.85,4.81-.06.34-.11.68-.14.99-.06.31-.09.59-.14.91-.06.25-.09.54-.11.79-.06.31-.08.59-.14.91-.25,1.9-.4,3.48-.31,4.42,0,.31.06.57.11.71.03.08.06.14.11.17v.03c.48-.08.93-.17,1.42-.25.93-.17,1.9-.34,2.83-.48.71-.09,1.42-.17,2.15-.23.71-.09,1.42-.17,2.12-.23s1.42-.11,2.15-.17c.45,0,.91-.06,1.36-.06.48-.03.96-.06,1.47-.06,2.46-.11,4.95-.11,7.45-.03.23,0,.45,0,.68.03.26.03.48.03.74.06.48,0,.96.06,1.44.06,3.23.17,6.48.45,9.71.85.88.09,1.76.2,2.63.28,2.32.31,4.59.65,6.85,1.02h.06Z"/>
  <g>
    <path d="M357.99,430.41l11.16-31.39c13.55-29.52,43.46-56.31,76.99-37.55,62.59,35.02,62.61,190.1-.26,224.27-45.67,24.82-80.08-30.41-87.15-68.68l-10.4,29.89c-37.74,75.12-98.4,47.99-118.03-22.36-13.09-46.91-7.64-137.73,41.31-163.61,45.35-23.97,80.16,31.2,86.4,69.43ZM346.67,437.19c-3.92-33.93-37.69-93.32-77.23-59.53-44.02,37.62-43.24,147.59-3.76,188.37,35.19,36.35,70.74-9.05,77.97-43.7l-6.16,11.53c-19.2,31.98-48.64,27.36-65.04-3.98-15.17-29.01-15.62-73.68-2.51-103.5,15.7-35.7,47.07-44.34,68.58-7.77l8.15,18.58ZM450.38,380.2c-21.16-20.66-44.01-13.72-60.3,8.11-32.13,43.05-32.59,137.11,5.18,176.97,33.71,35.57,67.61-3.34,77.18-37.36.09-2.04-.12-1.67-.89-.13-9.65,19.28-28.12,37.3-50.52,23.02-39.08-24.91-38.87-122.25-1.96-149.33,18.07-13.26,35.23-4.59,46.95,11.68l9.48,18.01c-3.45-17.47-12.2-38.35-25.12-50.96Z"/>
    <path d="M623.31,413.89v13.46h-.06c-.6-.09-1.21-.19-1.83-.28-.98-.17-1.97-.32-2.95-.45-.15-.02-.3-.06-.45-.08-1.02-.15-2.06-.28-3.08-.4-1.08-.15-2.14-.26-3.21-.38-1.15-.13-2.29-.25-3.44-.34-1.27-.09-2.51-.19-3.78-.26-1.44-.08-2.83-.13-4.27-.19-1.04-.02-2.08-.04-3.12-.04-2.27,0-4.5.06-6.75.19-2.83.15-5.56,1.32-8.26,1.51-25.65,1.81-11.77-30.67-10.92-44.81,5.88-98.46-121.42-158.79-191.73-87.76-2.89,2.93-5.39,7.56-8.35,10.47-17.37,17.01-28.14-5.58-39.89-15.72-76.24-65.84-189.31,4.78-181.18,100.58.85,10.02,8.56,24.44-.25,33.22-6.78,6.78-14.31,2.99-21.92,2.51-2.61-.15-5.23-.23-7.84-.17-.49.02-.96.02-1.44.04-.72.02-1.42.06-2.12.08-1.72.09-3.44.23-5.14.4-.68.06-1.34.13-2.02.21-1.04.11-2.06.25-3.1.4-.42.04-.83.09-1.23.17-.42.06-.81.09-1.23.19-1.02.15-2.04.3-3.06.49-5.92,1.04-11.77,2.42-17.54,3.95-.45.11-.87.23-1.3.36h-.02v-13.81h.02c.53-.15,1.1-.34,1.74-.51.64-.17,1.34-.36,2.08-.53.11-.04.23-.08.32-.09.06,0,.11-.02.15-.04.06-.02.09-.04.15-.04.55-.13,1.11-.26,1.7-.38,1.74-.38,3.61-.76,5.48-1.13.42-.08.83-.15,1.23-.23,4.35-.83,8.54-1.53,11.02-1.89.26-.04.51-.06.74-.11.04,0,.09,0,.13-.02.15,0,.32-.02.45-.06h.06c.15-.02.28-.04.4-.04.06,0,.13-.02.19-.02,6.09-.6,14.02-1.17,20.05-.77h.13c2.38.17,4.72.85,7.07,1.28.34.06.68.13,1.02.17.49.08.96.15,1.46.17.08,0,.15,0,.23.02.87.04,1.74.02,2.63-.11.04-.36.06-.72.09-1.08.36-7.98-3.31-15.46-3.89-23.38-.11-1.61-.21-3.21-.26-4.82-.13-3.42-.11-6.82.04-10.17.04-.89.09-1.76.15-2.63.08-1.23.17-2.44.28-3.65.06-.6.11-1.19.19-1.8.13-1.36.3-2.72.51-4.06.09-.64.19-1.3.28-1.95.3-1.89.64-3.76,1.02-5.61.13-.64.26-1.27.42-1.89,1.59-7.2,3.8-14.17,6.56-20.85v-.02c.42-.98.83-1.97,1.25-2.93.87-1.95,1.78-3.86,2.72-5.75,3.82-7.56,8.35-14.68,13.47-21.28,3.19-4.14,6.63-8.07,10.28-11.79,42.29-43.13,112.39-56.85,166.14-11.19.85.72,1.66,1.47,2.46,2.27.4.38.79.78,1.19,1.19,2.34,2.4,4.52,4.97,6.77,7.45.76.81,1.51,1.63,2.31,2.42,1.93,1.97,3.97,3.8,6.26,5.35.81.06,1.91-.74,3.14-1.98.26-.25.55-.55.81-.85.55-.6,1.11-1.27,1.66-1.95.28-.34.55-.7.83-1.06.28-.34.55-.7.81-1.06.42-.53.81-1.04,1.19-1.55.38-.51.74-1,1.1-1.46.23-.3.45-.59.66-.85.51-.66.96-1.21,1.32-1.57,1.78-1.8,3.72-3.57,5.82-5.31,1.04-.87,2.12-1.72,3.21-2.57,1.12-.83,2.25-1.66,3.4-2.49h.02c1.15-.81,2.34-1.63,3.55-2.42,1.83-1.19,3.69-2.34,5.59-3.46,1.29-.74,2.57-1.47,3.86-2.17,6.5-3.55,13.32-6.61,19.96-9.01.68-.25,1.34-.47,2-.7,3.95-1.38,7.82-2.49,11.51-3.33,44.26-9.98,87.59,4.84,117.21,33.79.74.72,1.46,1.44,2.17,2.17,7.84,8.03,14.67,17.1,20.18,26.97l.02.02c1,1.8,1.97,3.61,2.87,5.44t.02.02c.91,1.85,1.78,3.7,2.61,5.59,0,.02.02.02.02.02.81,1.89,1.59,3.82,2.32,5.75.36.96.72,1.95,1.08,2.93.2.55.38,1.11.57,1.66.86,2.6,1.68,5.22,2.35,7.88.44,1.73.85,3.47,1.24,5.22.36,1.66.68,3.36.98,5.06,1.68,9.87,2.21,20.13,1.4,30.65-.04.51-.15,1.32-.32,2.36-.09.49-.19,1.06-.28,1.66-.11.59-.23,1.23-.36,1.91-.04.26-.09.53-.15.81-.02.17-.06.34-.09.51-.34,1.81-.7,3.8-1.06,5.8-.3,1.64-.6,3.27-.85,4.82-.06.34-.11.66-.15.98-.06.32-.09.6-.15.91-.04.26-.08.53-.11.79-.04.3-.08.6-.13.91-.25,1.91-.4,3.48-.32,4.42.02.3.06.55.13.7.02.08.06.13.09.17,1.42-.26,2.83-.49,4.25-.7.72-.09,1.44-.17,2.15-.25.7-.08,1.42-.15,2.14-.21.7-.08,1.42-.11,2.14-.17.45-.02.91-.06,1.36-.08l1.63-.06c2.65-.1,5.32-.17,7.97.02,0,0,.02,0,.02,0,.25.02.47.02.72.04.47.02.96.06,1.44.08,3.23.17,6.48.45,9.73.83.87.09,1.74.21,2.63.3,2.31.3,4.59.64,6.86,1h.06Z"/>
    <path d="M623.31,427.36v-.02c.17.04.36.08.53.11-.17-.04-.36-.08-.53-.09Z"/>
    <path class="cls-2" d="M450.38,380.2c12.91,12.61,21.67,33.49,25.12,50.96l-9.48-18.01c-11.72-16.27-28.88-24.94-46.95-11.68-36.91,27.08-37.11,124.42,1.96,149.33,22.4,14.28,40.88-3.74,50.52-23.02.77-1.54.98-1.9.89.13-9.58,34.02-43.48,72.93-77.18,37.36-37.77-39.86-37.31-133.92-5.18-176.97,16.29-21.82,39.14-28.76,60.3-8.11Z"/>
    <path class="cls-2" d="M346.67,437.19l-8.15-18.58c-21.51-36.57-52.88-27.93-68.58,7.77-13.11,29.81-12.66,74.48,2.51,103.5,16.39,31.34,45.83,35.97,65.04,3.98l6.16-11.53c-7.24,34.65-42.78,80.05-77.97,43.7-39.49-40.78-40.27-150.75,3.76-188.37,39.55-33.79,73.31,25.6,77.23,59.53Z"/>
  </g>
</svg>