<?xml version="1.0" encoding="UTF-8"?>
<svg id="Calque_1" data-name="Calque 1" xmlns="http://www.w3.org/2000/svg" viewBox="0 0 700 700">
  <defs>
    <style>
      .cls-1 {
        stroke: #000;
        stroke-miterlimit: 10;
        stroke-width: 3.49px;
      }

      .cls-1, .cls-2 {
        fill: #fff;
      }

      .cls-3 {
        fill: #ff5f40;
      }
    </style>
  </defs>
  <g>
    <path d="M385.02,253.31c-10.37,1.37-8.59,20.75-9.5,28.11l-.46.66h-95.09c-2.3-11.44-4.01-23.04-6.73-34.4-1.4-5.87-3.36-15.35-8.16-19.27-.95-.78-2.25-1.64-3.53-1.7,1.42-5,2.25-10.16,1.97-15.37,13.49-5.69,26.07-14.6,34.18-26.94,6.8-10.33,10.73-22.74,11.4-35.11,11.84-1.97,11.77-18.7-1.17-17.84.74-11.65-15.04-14.79-17.26-2.83-9.1-3.32-15.48,7.3-8.23,13.75-4.98,6.41.45,14.42,8.23,12.54-2.4,18.65-15.63,32.83-32.1,40.68-4.44-7.48-11.39-12.94-19.87-15.16-1.12-.29-3.08-.83-4.16-.93-1.9-.18-4.02.13-5.94,0l-.36-.41c3.62-24.7-15.77-45.48-41.08-40.45-9.36,1.86-16.83,7.29-22.76,14.57-10.21-10.99-25.54-14.76-39.8-9.82-16.17,5.6-26,22.67-24.25,39.51-14.24,1.33-28.39,4.45-41.57,10.05-10.47,4.44-29.5,14.18-22.55,28.46,5.19,10.66,24.75,15.3,35.56,16.48,5.44,15.98,20.35,25.92,37.29,24.77.51,7.18,2.58,13.98,6.99,19.73,12.54,16.34,37.06,16.92,51.15,2.3,5.94,6.32,14.3,10.48,22.94,11.55,4.89.6,9.81.07,14.66.06,20.5-.06,41.05-.11,61.52.13,6.18,6.47,25.62,8.97,32.89,4.61,1.25-.74,2.18-2.37,3.16-2.5l76.94.02c8.37-.55,11.25-4.02,13.5-11.67,2.39-8.14,7.24-35.55-7.83-33.55ZM294.84,156.37c.3-1.71,1.12-4.72-.04-6-1.59-1.76-2.58-.11-4.12.43-2.87,1.02-6.31-.15-5.94-3.67.36-3.51,4.44-3.03,4.98-4.65.88-2.62-2.55-2.28-4.04-3.06-3.98-2.08-2.65-7.82,2.89-7.13,2.34.29,3.85,3.57,5.88,2.29,1.31-.84.21-3.23.22-4.37.06-7.01,9.47-6.73,9.02,1.09-.1,1.62-1.54,3.83-.29,5.11,1.52,1.57,3.43-.68,5.03-.93,5.97-.95,7.62,7.36,1.08,9.56-.98.33-2.47.32-3.26.7-1.67.81-1.47,6.51-1.75,8.43-3.67,24.89-18.7,43.47-41.81,53.04-.17-2.86-1.38-5.52-2.27-8.19,17.97-7.9,30.99-23,34.41-42.64ZM41.4,221.62c-9.29-11.53,10.47-21.14,18.82-24.72,11.73-5.04,24.63-8.1,37.32-9.48l-6.41,2.2c-2.96,1.41-5.83,3.12-8.3,5.28-1.14.99-3.43,3.98-4.25,4.51-1.38.89-8.31,2.44-10.59,3.26-4.41,1.58-9.14,3.65-13.13,6.11-8.11,5.01-8.82,8.41.55,12.4,4.57,1.95,9.51,2.98,14.38,3.85l.88,8.45c-9.15-1.24-23.22-4.35-29.27-11.87ZM70.11,220.78c-5.8-.67-11.54-2.38-16.69-5.1-.39-.54,2.18-2.3,2.62-2.6,5.43-3.77,12.53-6.41,18.87-8.14-2.55,4.89-4.39,10.3-4.8,15.84ZM216.03,292.01c3.3-2.37,6.86-4.44,9.62-7.48l36.86-.11.41.43,1.18,7.16h-48.07ZM229.32,280.42l18.11-24.16,8.05-9.47,6.63,33.22c-.02.24-1.38.41-1.54.41h-31.25ZM296.82,297.72c-4.98,2.91-21.26.62-26.03-2.65-1.99-1.37-2.42-3.35-2.93-5.55-1.79-7.79-2.62-16.45-4.13-24.42-1.14-6.02-2.64-16.41-4.78-21.79-1.99-4.98-5.61-.5-7.72,1.77-8.85,9.52-16.26,21.16-24.35,31.35-3.52,4.43-6.52,7.93-11.52,10.82-12.59,7.28-31.07,6.96-42.33-2.73-2.26-1.94-4.34-6.14-7.61-3.95-2.03,1.37-4.02,3.92-6.37,5.5-17.89,11.96-41.97,1.56-45.31-19.74-.27-1.76-.16-5.49-.93-6.71-1.39-2.23-4.42-.93-6.37-.95-33.94-.38-43.46-45.37-18.05-62.73,5.65-3.86,8.62-3.6,14.82-4.98,4.17-.93,1.29-7.22,1.11-10.2-1.72-28.11,30.36-46.1,53.02-28.4,2,1.56,4.89,5.45,7.35,5.38,2.68-.08,4.59-4.03,6.36-5.83,20.93-21.18,55.04-6.72,53.46,23.76-.13,2.43-1.94,7.17,1.86,7.76,2.66.41,5.67-.11,8.66.39,19.43,3.14,28.61,24.67,22.22,42.25-6.26,1.15-11.2,6.28-15.35,10.8-7.72,8.4-15.29,18.75-22.03,28.02-1.21,1.66-6.65,8.75-6.9,10.08-.41,2.22,2.25,3.2,3.64,1.64,7.49-10.01,14.66-20.32,22.62-29.97,3.33-4.03,7.53-9.24,11.44-12.59,14.19-12.17,17.08,8.03,19.29,18.05,2.29,10.4,3.45,21.94,6.1,32.06.12.46.27,1.07.53,1.45,1.34,1.94,7.34,1.61,9.68,1.91,3.21.41,11.53,1.67,12.49,5.33.56,2.13-.04,3.77-1.93,4.87ZM387.36,289.85c-3.03,5.86-8.53,3.82-13.94,4.72-21.93-.85-44.65,1.08-66.49,0-1.26-.06-2.49-.46-3.79-.31-.18-3.55-2.3-6.02-5.1-7.9,20.87-.25,41.78.32,62.65.01,4.56-.07,11.25.19,15.54-.29,2.63-.29,3.17-1.74,3.5-4.13.75-5.43-.2-19.96,3.85-23.57,2.27-2.03,5.26-1.26,6.51,1.42,2.79,5.97.34,24.14-2.72,30.07Z"/>
    <path class="cls-3" d="M298.75,292.85c-.96-3.66-9.28-4.91-12.49-5.33-2.34-.3-8.34.03-9.68-1.91-.26-.38-.41-1-.53-1.45-2.65-10.12-3.81-21.66-6.1-32.06-2.21-10.02-5.1-30.22-19.29-18.05-3.92,3.36-8.12,8.56-11.44,12.59-7.96,9.65-15.13,19.96-22.62,29.97-1.39,1.57-4.05.58-3.64-1.64.25-1.33,5.69-8.42,6.9-10.08,6.74-9.27,14.31-19.61,22.03-28.02,4.16-4.52,9.09-9.65,15.35-10.8,6.4-17.59-2.79-39.12-22.22-42.25-2.99-.49-6,.02-8.66-.39-3.8-.58-1.99-5.33-1.86-7.76,1.58-30.48-32.53-44.94-53.46-23.76-1.77,1.8-3.68,5.74-6.36,5.83-2.46.08-5.35-3.82-7.35-5.38-22.65-17.7-54.74.29-53.02,28.4.18,2.98,3.06,9.27-1.11,10.2-6.2,1.38-9.17,1.12-14.82,4.98-25.41,17.36-15.89,62.35,18.05,62.73,1.95.02,4.98-1.28,6.37.95.77,1.22.65,4.96.93,6.71,3.34,21.3,27.43,31.7,45.31,19.74,2.36-1.58,4.35-4.13,6.37-5.5,3.27-2.2,5.35,2,7.61,3.95,11.26,9.69,29.74,10.01,42.33,2.73,5-2.89,8-6.4,11.52-10.82,8.09-10.19,15.49-21.83,24.35-31.35,2.11-2.27,5.73-6.75,7.72-1.77,2.14,5.38,3.64,15.77,4.78,21.79,1.52,7.97,2.34,16.63,4.13,24.42.51,2.2.93,4.18,2.93,5.55,4.77,3.26,21.05,5.56,26.03,2.65,1.9-1.1,2.49-2.74,1.93-4.87ZM191.26,249.3c-6.73,11.17-38.34,12.36-46.96,3.32-4.38-4.61-1.85-10.4,4.07-11.7,5.16-1.14,12.9,1.63,18.89,1.35,6.29-.29,13.07-3.77,18.93-3.12,5.19.57,7.81,5.59,5.07,10.15Z"/>
    <path class="cls-3" d="M262.69,207.2c-.17-2.87-1.38-5.52-2.26-8.19,17.97-7.91,30.99-23,34.41-42.64.3-1.71,1.12-4.72-.04-6-1.59-1.75-2.58-.12-4.12.43-2.87,1.02-6.31-.16-5.94-3.67s4.44-3.03,4.98-4.64c.88-2.62-2.55-2.29-4.04-3.07-3.98-2.08-2.65-7.82,2.89-7.13,2.34.29,3.86,3.58,5.88,2.29,1.31-.83.21-3.22.22-4.37.06-7.01,9.46-6.73,9.02,1.09-.09,1.62-1.54,3.83-.29,5.11,1.52,1.57,3.43-.68,5.03-.94,5.97-.95,7.62,7.36,1.08,9.56-.98.33-2.47.33-3.25.71-1.67.81-1.47,6.51-1.75,8.43-3.67,24.9-18.7,43.47-41.81,53.05Z"/>
    <path class="cls-3" d="M303.14,294.26c-.18-3.54-2.3-6.02-5.1-7.9,20.87-.25,41.78.32,62.65,0,4.57-.07,11.24.19,15.54-.29,2.63-.29,3.17-1.74,3.5-4.13.75-5.43-.2-19.96,3.85-23.57,2.26-2.02,5.26-1.26,6.51,1.42,2.79,5.98.34,24.15-2.73,30.07-3.04,5.87-8.53,3.82-13.95,4.72-21.93-.84-44.65,1.08-66.48,0-1.27-.06-2.5-.46-3.79-.31Z"/>
    <path class="cls-3" d="M97.54,187.41l-6.41,2.21c-2.96,1.41-5.82,3.12-8.3,5.28-1.14.99-3.42,3.98-4.25,4.51-1.39.89-8.31,2.44-10.6,3.26-4.41,1.58-9.14,3.65-13.12,6.11-8.11,5.01-8.83,8.41.55,12.41,4.57,1.95,9.51,2.98,14.38,3.85l.88,8.45c-9.15-1.24-23.22-4.35-29.27-11.87-9.29-11.54,10.47-21.14,18.82-24.73,11.73-5.04,24.63-8.1,37.32-9.48Z"/>
    <path class="cls-3" d="M264.1,292.01h-48.07c3.3-2.37,6.86-4.44,9.62-7.49l36.86-.11.42.43,1.18,7.16Z"/>
    <path d="M186.2,239.15c-5.86-.65-12.64,2.83-18.93,3.12-6,.28-13.73-2.49-18.89-1.35-5.92,1.3-8.45,7.1-4.07,11.7,8.62,9.04,40.23,7.85,46.96-3.32,2.74-4.56.12-9.58-5.07-10.15ZM150.25,252.17c-2.71-.54-6.34-4.12-3.9-6.77.45-.49,2.21-1.45,2.8-1.45h4.1l-3,8.22ZM165.41,255.26c-1.21.27-11.54-.98-11.6-1.57l3.1-9.04,8.5.72v9.89ZM180.85,252.44c-.58.81-11.04,2.98-11.48,2.53l-.25-9.58,8.18-1.6,3.54,7.78c.13.29.2.58,0,.86ZM184.36,250.74l-3.4-8.2c8.46-2.13,11.01,4.42,3.4,8.2Z"/>
    <path class="cls-2" d="M165.41,245.36v9.89c-1.21.27-11.54-.98-11.6-1.57l3.1-9.04,8.5.71Z"/>
    <path class="cls-2" d="M169.37,254.98l-.24-9.57,8.18-1.6,3.54,7.78c.13.29.2.58,0,.87-.57.81-11.03,2.98-11.48,2.53Z"/>
    <path class="cls-2" d="M184.36,250.74l-3.4-8.2c8.46-2.13,11.01,4.42,3.4,8.2Z"/>
    <path class="cls-2" d="M153.25,243.95l-3,8.22c-2.71-.54-6.34-4.12-3.9-6.77.45-.49,2.21-1.44,2.8-1.44h4.1Z"/>
    <path class="cls-1" d="M147.1,233.24c-9.93.18-18.22-13.51-18.54-30.57-.32-17.07,7.46-31.06,17.38-31.24,9.92-.19,18.22,13.5,18.55,30.57.32,17.07-7.47,31.06-17.39,31.25Z"/>
    <path class="cls-1" d="M183.98,232.54c-9.92.19-18.22-13.5-18.55-30.57-.32-17.07,7.47-31.06,17.39-31.24,9.93-.19,18.22,13.5,18.55,30.57.32,17.07-7.47,31.06-17.39,31.24Z"/>
    <ellipse cx="150.15" cy="202.78" rx="12.89" ry="22.18" transform="translate(-3.77 2.85) rotate(-1.07)"/>
    <ellipse cx="187.21" cy="202.09" rx="12.89" ry="22.18" transform="translate(-3.75 3.54) rotate(-1.07)"/>
  </g>
  <g>
    <path d="M340.92,428.46c-1.69-1.63-3.93-4.68-4.59-6.9-.81-2.73-.52-11.22-3.73-11.63-3.1-.39-8.22,4.84-11.15,6.51-32.4,18.55-64.2-2.31-61.03-39.18,2.02-23.48,28.08-54.41,51.71-58.46,4.63-.79,12.91.99,15.75-3.7.93-1.53,2.09-7.12,2.54-9.24,2.65-12.56,3.67-27.95,7.61-40.1,3.35-10.34,12.32-17.5,23.31-12.3,14.05,6.66,7.27,33.79,6.37,46.06-2.02,27.48-3.19,54.87-2.39,82.45.35,11.86,2.17,23.98,1.19,35.89-1.09,13.25-15.93,19.9-25.6,10.58ZM309.19,351.79c-2.91.53-5.49,3.56-7.16,5.8-4.21,5.64-9.73,19.21-8.57,26.12s8.84,7.22,13.25,2.69c2.95-3.03,10.57-18.11,11.34-22.23,1.27-6.76-.45-13.91-8.86-12.38Z"/>
    <path d="M468.25,428.46c-1.69-1.63-3.93-4.68-4.59-6.9-.81-2.73-.52-11.22-3.73-11.63-3.1-.39-8.22,4.84-11.15,6.51-32.4,18.55-64.2-2.31-61.03-39.18,2.02-23.48,28.08-54.41,51.71-58.46,4.63-.79,12.91.99,15.75-3.7.93-1.53,2.09-7.12,2.54-9.24,2.65-12.56,3.67-27.95,7.61-40.1,3.35-10.34,12.32-17.5,23.31-12.3,14.05,6.66,7.27,33.79,6.37,46.06-2.02,27.48-3.19,54.87-2.39,82.45.35,11.86,2.17,23.98,1.19,35.89-1.09,13.25-15.93,19.9-25.6,10.58ZM436.52,351.79c-2.91.53-5.49,3.56-7.16,5.8-4.21,5.64-9.73,19.21-8.57,26.12s8.84,7.22,13.25,2.69c2.95-3.03,10.57-18.11,11.34-22.23,1.27-6.76-.45-13.91-8.86-12.38Z"/>
    <path d="M557.75,439.01c.15-.22.74-.31,1.12-.96,4.13-7.02,5.58-15.96,6.32-23.98-6.22-.65-12.4,1.65-18.56,1.17-8.94-.7-17.97-3.95-23.43-11.34-10.4-14.07-11.35-48.99-9.22-66.01,1.33-10.61,7.1-19.11,19.03-17.4,22.21,3.2,8.14,45.73,15.68,59.12,3.88,6.88,12.76,4.71,16.75-.91,7.49-10.55,15.97-42.03,30.74-44.07,7.72-1.07,15.14,3.32,17.2,10.98,2.17,8.08-3.35,29.39-5.43,38.46-5.12,22.42-14.75,63.82-29.21,80.93-13.48,15.96-37.96,26.05-57.91,16.04-12.19-6.12-9.98-22.91,3.04-26.1,13.88-3.4,24.86-2.63,33.87-15.93Z"/>
    <path d="M39.6,422.07c-11.92-10.69-5.75-32.51-4.36-46.58,2.57-26.02,4.52-52.64,8.79-78.37.97-5.82.84-10.41,4.21-15.82,6.87-11.04,24.68-8.81,27.64,4.14,2.39,10.46-2.66,29.85-3.48,41.18-.77,10.65,9.6,4.82,16.18,4.39,44.22-2.89,58.45,52.11,28.03,78.64-8.67,7.56-21.72,13.78-32.87,16.63-11.66,2.98-34.61,4.32-44.13-4.22ZM93.39,387.36c6.11-6.1,8.74-19.16.14-24.16-4.08-2.38-10.93-2.79-15.58-2.15-2,.27-4.02,2.03-5.24,3.6-3.26,4.2-6.45,17.88-5.23,22.82,2.8,11.33,20.05,5.75,25.91-.1Z"/>
    <path d="M163.02,305.87c22.04-3.17,18.1,23.1,19.01,36.64.6,9,1.74,30.73,5.65,37.93,3.98,7.31,12.13,6.92,16.75.36,6.63-9.42,6.95-34.76,8.25-46.52.93-8.36,3.08-20.57,13.29-22.05,10.28-1.5,17.73,6.37,18.52,16.17,1.87,22.97-1.64,52.09-14.11,71.85-16.64,26.37-51.13,25.94-67.7-.14-13.56-21.33-14.99-54.78-12.49-79.37.71-6.95,5.58-13.83,12.82-14.87Z"/>
    <path d="M644.61,398.3c23.28-4.29,25.89,30.96,4.52,33.36-20.76,2.33-24.9-29.6-4.52-33.36Z"/>
  </g>
</svg>