<?xml version="1.0" encoding="UTF-8"?>
<svg id="Calque_1" data-name="Calque 1" xmlns="http://www.w3.org/2000/svg" viewBox="0 0 700 700">
  <defs>
    <style>
      .cls-1 {
        stroke-width: .22px;
      }

      .cls-1, .cls-2, .cls-3, .cls-4 {
        stroke: #000;
        stroke-miterlimit: 10;
      }

      .cls-2 {
        stroke-width: 2.18px;
      }

      .cls-2, .cls-5 {
        fill: #ff5f40;
      }

      .cls-3 {
        stroke-width: .22px;
      }

      .cls-3, .cls-4 {
        fill: #fff;
      }

      .cls-4 {
        stroke-width: 1.55px;
      }
    </style>
  </defs>
  <path d="M211.25,344.97c-1.55-1.55-5.06-2.9-7.95-3.16-1.07-.1-2.06-.05-2.83.2-1.93.62-2.83,2.58-1.69,4.36,1.2,1.88,4.21,2.07,6.09,2.92.27.12.49.26.65.39.37.31.51.66.55,1.07.06.5-.03,1.09.03,1.8l-3.48,33.81-3.07,29.92-3.27,31.75c.64.06,1.27.16,1.9.32l3.32-32.3,2.99-29.09,3.46-33.75.04-.34c-.06-1.25.17-2.53-.43-3.69-.52-1-1.69-1.55-2.96-1.96-1.16-.39-2.4-.66-3.27-1.06-1.51-.71-1.72-2.26.14-2.53.58-.08,1.37-.04,2.22.1,2.25.34,5.01,1.32,6.14,2.39,2.19,2.1,1.1,6.19,1.2,8.86l-.02.2-3.35,32.56-2.93,28.57-1.98,19.2h0s-.17,1.63-.17,1.63h0s-.66,6.47-.66,6.47l-.32,3.07h0s-.29,2.87-.29,2.87c.56.3,1.1.64,1.62,1.04.06.04.13.09.19.14l.46-4.52.37-3.59.4-3.87.09-.85v-.04l.33-3.17v-.14s.01-.01.01-.01l.14-1.33,1.68-16.37,2.96-28.79,3.34-32.44.03-.31c-.01-3.31.93-7.73-1.68-10.33ZM231.3,417.39c-1.48-10.38-2.96-20.76-4.41-31.15-1.62-11.51-3.2-23.02-4.73-34.54.01-.51.02-.88.07-1.17.06-.37.21-.62.54-.85.19-.14.45-.27.78-.43,2.22-1,6.27-1.49,6.17-4.69-.05-1.28-1.09-2.25-2.24-2.61-.48-.15-1.07-.21-1.72-.2-2.44.05-5.71,1.13-7.33,2.16-4.12,2.62-3.13,7.1-2.82,11.26l.04.26,4.59,32.53,3.96,28.11,4.86,34.41c.42-.31.84-.58,1.28-.84.13-.07.26-.15.4-.22-1.49-11.11-3.07-22.23-4.66-33.35-1.36-9.48-2.73-18.96-4.07-28.44-.46-3.22-.92-6.45-1.37-9.67-1-7.18-2.09-14.42-2.91-21.62-.05-.47-.13-1-.22-1.57-.41-2.85-.96-6.69.91-8.53,1.12-1.11,4.45-2.43,6.83-2.66.79-.08,1.47-.04,1.94.16.66.28.86,1.07.45,1.64-.55.76-2.13,1.24-3.64,1.77-1.02.34-2.01.72-2.62,1.21-1.26,1.03-1.05,2.51-1.08,3.97.02.15.04.29.06.44,1.6,11.36,3.2,22.71,4.8,34.05,1.4,9.95,2.8,19.9,4.21,29.84,1.48,10.51,2.97,21.02,4.46,31.53.17-.05.35-.09.53-.13.41-.1.82-.17,1.24-.23-1.42-10.15-2.86-20.29-4.3-30.44Z"/>
  <path d="M183.97,490.17l-.25-.2v-27.89c-.81-.76-1.61-1.54-2.41-2.34v31.58c.32,1.68,1.86.98,3.08,1.15,2,.28,2,2.63-.03,3.11-.63.15-1.35-.15-1.63.78-.3,1,1.17,2.02,1.28,3.11.15,1.4-1.06,2.42-2.35,1.74-.95-.5-1.27-1.99-2.23-1.99-1.33,0-1.1,2.5-3.42,2.07-1.35-.24-1.11-1.86-.64-2.82.33-.7,1.25-1.28,1.04-2.07-.36-1.32-3.18-.38-2.91-2.65.25-2.14,3.17-.76,4.14-1.59.08-.08.38-.47.38-.53v-35.34c-.85-.93-1.68-1.87-2.49-2.82l.08,36.73c-4.5-.37-5.97,5.11-2.13,7.29-2.33,3.3,1.1,7.6,4.79,5.68.51-.27.84-.69,1.33-.93,2.33,2.89,7.05.99,6.69-2.78-.07-.7-.5-1.34-.6-2.02,4.13-1.6,2.67-7.41-1.7-7.25ZM254.26,490.2v-38.18c-.72.92-1.48,1.82-2.26,2.71v37.05c0,1.56,4.41-.51,4.78,2,.33,2.22-2.84,1.32-3.11,2.71-.13.67.69,1.15,1.01,1.64,1.73,2.65-.61,4.44-2.46,2.46-.47-.5-.63-1.36-1.5-1.36-.99,0-1.06,1.04-1.58,1.58-1.27,1.3-3.08.57-2.84-1.34.15-1.23,2-2.54.97-3.56-.47-.46-1.19-.22-1.78-.33-2.03-.36-1.88-2.84.13-3.11,1.07-.15,2.45.45,2.91-.85v-33.12c-.79.82-1.59,1.63-2.4,2.42v29.28c-4.63-.32-6.11,6.11-1.5,7.38-2.36,4.24,2.77,8.37,6.09,4.66.8.57,1.37,1.2,2.42,1.34,3.66.49,5.63-3.07,3.69-6.08,4.18-2.33,1.99-7.94-2.57-7.29Z"/>
  <path class="cls-5" d="M253.68,496.48c-.13.67.69,1.15,1.01,1.64,1.73,2.65-.61,4.44-2.46,2.46-.47-.5-.63-1.36-1.5-1.36-.99,0-1.06,1.04-1.58,1.58-1.27,1.3-3.08.57-2.84-1.34.15-1.23,2-2.54.97-3.56-.47-.46-1.19-.22-1.78-.33-2.03-.36-1.88-2.84.13-3.11,1.07-.15,2.45.45,2.91-.85v-33.12c1.19-1.23,2.35-2.49,3.47-3.77v37.05c0,1.56,4.41-.51,4.78,2,.33,2.22-2.84,1.32-3.11,2.71Z"/>
  <path class="cls-5" d="M184.36,495.58c-.63.15-1.35-.15-1.63.78-.3,1,1.17,2.02,1.28,3.11.15,1.4-1.06,2.42-2.35,1.74-.95-.5-1.27-1.99-2.23-1.99-1.33,0-1.1,2.5-3.42,2.07-1.35-.24-1.11-1.86-.64-2.82.33-.7,1.25-1.28,1.04-2.07-.36-1.32-3.18-.38-2.91-2.65.25-2.14,3.17-.76,4.14-1.59.08-.08.38-.47.38-.53v-35.34c1.07,1.17,2.17,2.32,3.3,3.45v31.58c.32,1.68,1.86.98,3.08,1.15,2,.28,2,2.63-.03,3.11Z"/>
  <path class="cls-2" d="M247.09,433.93c-.17-.04-.34-.08-.52-.11-.29-.05-.82-.09-1.44-.12-.84-.03-1.83-.05-2.61-.09,0,0-.02,0-.02-.01-.67-.03-1.18-.08-1.28-.15-.45-.36-.22-2.75-.29-3.49-.02-.22-.04-.43-.08-.64-.07-.56-.17-1.11-.3-1.64-.4-1.62-1.06-3.08-1.93-4.36-.48-.71-1.01-1.37-1.61-1.97-1.16-1.18-2.53-2.13-4.02-2.83-.62-.29-1.27-.54-1.93-.73-1.07-.33-2.17-.53-3.29-.59-.31-.02-.62-.03-.93-.03s-.64.01-.95.03c-.11.01-.22.02-.32.03-.18.01-.36.03-.54.05-.32.05-.64.1-.96.16-.76.15-1.52.36-2.27.65-.14.05-.28.1-.42.16-.47.2-.93.41-1.38.66-.04.02-.09.04-.13.07-.86.47-1.69,1.05-2.49,1.72-.59.5-1.54,1.88-2.23,1.92-.92.06-2.29-1.89-3.08-2.51h0c-.46-.37-.93-.7-1.41-.99-.07-.05-.13-.09-.2-.13-.57-.33-1.14-.62-1.72-.86-.15-.06-.3-.11-.45-.16-.18-.08-.36-.14-.55-.2-.44-.13-.87-.25-1.32-.33-.09-.03-.19-.04-.28-.06-.22-.04-.43-.08-.65-.11-.64-.08-1.28-.12-1.92-.1-.13,0-.25.01-.38.01-.66.03-1.31.1-1.95.23-2.08.4-4.07,1.28-5.8,2.55-.56.42-1.1.87-1.6,1.36-.87.88-1.65,1.86-2.29,2.95-.28.47-.53.96-.76,1.47-.29.64-.53,1.32-.73,2.02-.23.84-.39,1.7-.47,2.61-.08.9.34,2.83-.42,3.33-.07.04-.15.07-.25.09-.66.11-2-.21-2.77-.26-.08,0-.16,0-.22,0-.54,0-1.07.03-1.58.08-12.39,1.24-17.95,16.18-10.06,25.93.41.5.82.96,1.25,1.39.79.78,1.61,1.43,2.47,1.96,1.04.65,2.13,1.12,3.3,1.46.77.22,1.58.38,2.41.48,1.03.13,2.12.17,3.26.14.58-.02,1.47-.49,1.9.05.42.53-.32,3.28-.35,4.15-.42,12.85,14.68,20.05,24.3,11.2.61-.56,1.19-1.81,2.05-1.81.7-.01,1.73,1.51,2.34,2.06,2.72,2.45,6.54,3.81,10.21,3.49,7.94-.71,13.77-8.04,13.18-15.92-.09-1.26-1.32-3.67.6-3.69.41-.01.82.19,1.26.19,1.3.02,2.52-.08,3.66-.3.85-.16,1.65-.38,2.41-.66,1.28-.45,2.43-1.06,3.46-1.79.83-.59,1.59-1.26,2.26-1.99,7.32-7.92,5.33-23.29-7.17-26.01Z"/>
  <path class="cls-4" d="M215.04,457.49c-.04-7.68,3.46-13.93,7.82-13.95s7.91,6.19,7.95,13.87c.04,7.68-3.46,13.93-7.81,13.95s-7.92-6.19-7.95-13.87Z"/>
  <path class="cls-4" d="M198.86,457.57c-.04-7.68,3.46-13.93,7.81-13.95s7.92,6.19,7.95,13.87c.04,7.68-3.46,13.93-7.82,13.95s-7.91-6.19-7.95-13.87Z"/>
  <ellipse cx="221.34" cy="457.23" rx="5.66" ry="9.98" transform="translate(-2.27 1.1) rotate(-.28)"/>
  <ellipse cx="205.08" cy="457.31" rx="5.66" ry="9.98" transform="translate(-2.27 1.02) rotate(-.28)"/>
  <g>
    <path class="cls-1" d="M205.53,439.65c2.85,1.5,6.1-.4,9.08-.52,3.04-.12,5.67,1.36,8.5.96,2.35-.33,3.34-2.18,2.32-3.89-2.89-4.87-17.7-5.08-20.74-.05-.78,1.3-.77,2.66.83,3.5ZM222.74,435.14c.85.25,1.98,1.57,2.08,2.29.23,1.63-1.99,1.96-3.58,1.81-.16-.12.82-2.96.98-3.38.08-.2.19-.82.52-.72ZM215.78,433.4c1.27.04,2.57.25,3.81.49.93.18,1.78.29,1.64.72-.31.97-1.09,3.28-1.44,4.34l-3.99-.71-.02-4.85ZM214.51,433.41l.02,4.85-4,.69-1.8-4.39c.18-.62,4.9-1.31,5.77-1.14ZM207.36,435.06l1.74,4.25c-4.54.56-4.94-2.41-1.74-4.25Z"/>
    <path class="cls-3" d="M207.36,435.22l1.74,4.12c-4.54.54-4.94-2.34-1.74-4.12Z"/>
    <path class="cls-3" d="M222.23,436c.08-.2.19-.8.52-.7.85.24,1.98,1.52,2.08,2.22.23,1.58-1.99,1.9-3.58,1.75-.16-.12.82-2.87.98-3.28Z"/>
    <path class="cls-3" d="M208.73,434.73c.18-.61,4.9-1.27,5.78-1.11l.02,4.7-4,.67-1.8-4.25Z"/>
    <path class="cls-3" d="M215.8,438.31l-.02-4.7c1.27.04,2.57.24,3.81.48.93.18,1.78.29,1.64.7-.31.94-1.09,3.18-1.44,4.21l-3.99-.69Z"/>
  </g>
  <g>
    <path d="M353.43,396.7c-1.63-1.57-3.78-4.5-4.42-6.65-.78-2.63-.5-10.8-3.59-11.19s-7.91,4.66-10.73,6.27c-31.19,17.86-61.8-2.23-58.75-37.71,1.94-22.6,27.03-52.38,49.78-56.27,4.46-.76,12.43.96,15.17-3.56.9-1.48,2.01-6.85,2.44-8.89,2.55-12.09,3.53-26.9,7.32-38.6,3.22-9.95,11.86-16.85,22.44-11.84,13.53,6.41,7,32.53,6.13,44.34-1.94,26.45-3.07,52.82-2.3,79.38.33,11.42,2.09,23.09,1.15,34.55-1.05,12.76-15.33,19.16-24.64,10.18ZM322.89,322.88c-2.8.51-5.28,3.43-6.89,5.59-4.05,5.43-9.37,18.49-8.25,25.14s8.51,6.95,12.75,2.59c2.84-2.92,10.18-17.44,10.92-21.4,1.22-6.5-.43-13.39-8.53-11.92Z"/>
    <path d="M476.01,396.7c-1.63-1.57-3.78-4.5-4.42-6.65-.78-2.63-.5-10.8-3.59-11.19s-7.91,4.66-10.73,6.27c-31.19,17.86-61.8-2.23-58.75-37.71,1.94-22.6,27.03-52.38,49.78-56.27,4.46-.76,12.43.96,15.17-3.56.9-1.48,2.01-6.85,2.44-8.89,2.55-12.09,3.53-26.9,7.32-38.6,3.22-9.95,11.86-16.85,22.44-11.84,13.53,6.41,7,32.53,6.13,44.34-1.94,26.45-3.07,52.82-2.3,79.38.33,11.42,2.09,23.09,1.15,34.55-1.05,12.76-15.33,19.16-24.64,10.18ZM445.47,322.88c-2.8.51-5.28,3.43-6.89,5.59-4.05,5.43-9.37,18.49-8.25,25.14s8.51,6.95,12.75,2.59c2.84-2.92,10.18-17.44,10.92-21.4,1.22-6.5-.43-13.39-8.53-11.92Z"/>
    <path d="M562.17,406.85c.14-.21.71-.3,1.08-.93,3.98-6.75,5.37-15.36,6.09-23.09-5.99-.62-11.94,1.59-17.87,1.12-8.6-.67-17.3-3.8-22.56-10.91-10.01-13.55-10.93-47.16-8.88-63.55,1.28-10.21,6.83-18.4,18.32-16.75,21.38,3.08,7.84,44.03,15.1,56.91,3.73,6.63,12.28,4.53,16.13-.87,7.21-10.16,15.37-40.46,29.59-42.43,7.43-1.03,14.57,3.2,16.56,10.57,2.09,7.78-3.23,28.29-5.22,37.03-4.93,21.58-14.2,61.43-28.12,77.91-12.98,15.37-36.54,25.08-55.75,15.44-11.74-5.89-9.61-22.05,2.93-25.12,13.36-3.27,23.93-2.53,32.61-15.34Z"/>
    <path d="M63.36,390.54c-11.47-10.29-5.54-31.3-4.2-44.84,2.47-25.04,4.35-50.68,8.46-75.44.93-5.6.81-10.02,4.05-15.23,6.62-10.63,23.76-8.48,26.61,3.99,2.3,10.07-2.56,28.74-3.35,39.65-.74,10.25,9.24,4.64,15.57,4.22,42.56-2.78,56.27,50.16,26.98,75.7-8.35,7.28-20.91,13.26-31.64,16.01-11.22,2.87-33.32,4.16-42.48-4.06ZM115.14,357.12c5.88-5.87,8.41-18.44.14-23.26-3.93-2.29-10.52-2.68-15-2.07-1.92.26-3.87,1.95-5.04,3.47-3.14,4.04-6.21,17.21-5.04,21.96,2.69,10.91,19.3,5.54,24.94-.1Z"/>
    <path class="cls-5" d="M229.37,416.66c-1.07-.33-2.17-.53-3.29-.59-1.36-9.48-2.73-18.96-4.07-28.44-.46-3.22-.92-6.45-1.37-9.67-1-7.18-2.09-14.42-2.91-21.62-.05-.47-.13-1-.22-1.57-.41-2.85-.96-6.69.91-8.53,1.12-1.11,4.45-2.43,6.83-2.66.79-.08,1.47-.04,1.94.16.66.28.86,1.07.45,1.64-.55.76-2.13,1.24-3.64,1.77-1.02.34-2.01.72-2.62,1.21-1.26,1.03-1.05,2.51-1.08,3.97.02.15.04.29.06.44,1.6,11.36,3.2,22.71,4.8,34.05,1.4,9.95,2.8,19.9,4.21,29.84Z"/>
    <path class="cls-5" d="M211.03,354.98l-.02.2-3.35,32.56-2.93,28.57c-.09-.03-.19-.04-.28-.06-.22-.04-.43-.08-.65-.11-.64-.08-1.28-.12-1.92-.1-.13,0-.25.01-.38.01l2.99-29.09,3.46-33.75.04-.34c-.06-1.25.17-2.53-.43-3.69-.52-1-1.69-1.55-2.96-1.96-1.16-.39-2.4-.66-3.27-1.06-1.51-.71-1.72-2.26.14-2.53.58-.08,1.37-.04,2.22.1,2.25.34,5.01,1.32,6.14,2.39,2.19,2.1,1.1,6.19,1.2,8.86Z"/>
    <path d="M207.95,353.21l-3.46,33.75c-.62-.18-1.25-.38-1.87-.6-8.01-2.79-15.37-8.46-20.77-16.95-13.05-20.54-14.43-52.74-12.02-76.41.68-6.69,5.37-13.31,12.34-14.31,21.22-3.06,17.43,22.23,18.3,35.27.42,6.21,1.09,18.71,2.83,27.85.12.66.25,1.3.39,1.92-.85-.14-1.64-.18-2.22-.1-1.86.27-1.65,1.82-.14,2.53.87.4,2.11.67,3.27,1.06.29.92.59,1.74.92,2.46.13.28.26.54.39.79.05.1.11.19.16.28.55.97,1.19,1.79,1.88,2.46Z"/>
    <path d="M222.01,387.63c-.59.13-1.18.24-1.77.33-3.54.57-7.13.59-10.68.09-.63-.09-1.27-.19-1.9-.31l3.35-32.56c.62.22,1.25.37,1.89.43.91.1,1.83.04,2.75-.18.63-.14,1.25-.36,1.86-.66.09.57.17,1.1.22,1.57.82,7.2,1.91,14.44,2.91,21.62.45,3.22.91,6.45,1.37,9.67Z"/>
    <path d="M247.02,369.54c-5.26,8.34-12.38,13.9-20.13,16.7-.57.21-1.15.41-1.73.58-1.6-11.34-3.2-22.69-4.8-34.05.6-.56,1.16-1.22,1.68-1.95.07-.09.13-.19.19-.29.19-.27.37-.55.54-.85.44-.77.85-1.61,1.23-2.53,1.51-.53,3.09-1.01,3.64-1.77.41-.57.21-1.36-.45-1.64-.47-.2-1.15-.24-1.94-.16.18-.6.34-1.21.51-1.83,2.87-11.23,3.28-27.18,4.22-35.71.9-8.05,2.97-19.8,12.8-21.23,9.89-1.44,17.06,6.13,17.83,15.56,1.8,22.11-1.58,50.14-13.59,69.17Z"/>
    <path d="M645.78,367.66c22.41-4.13,24.92,29.8,4.35,32.12-19.98,2.25-23.97-28.5-4.35-32.12Z"/>
  </g>
</svg>