<?xml version="1.0" encoding="UTF-8"?>
<svg id="Calque_1" data-name="Calque 1" xmlns="http://www.w3.org/2000/svg" viewBox="0 0 700 700">
  <defs>
    <style>
      .cls-1 {
        fill: #fd9fbd;
      }

      .cls-2 {
        fill: #abd4fd;
      }

      .cls-3 {
        fill: #aac539;
      }

      .cls-4 {
        fill: #fff;
      }

      .cls-5 {
        fill: #24554c;
      }

      .cls-6 {
        fill: #fdf4a5;
      }

      .cls-7 {
        fill: #ff5f40;
      }
    </style>
  </defs>
  <g>
    <path class="cls-4" d="M480.33,259.37v38.6c-1.13,1.24-3.01.69-4.76,1.18-10.52,2.92-10.59,18.1-.17,21.48-6.16,12.31,8.08,23.47,18.23,13.84,11.23,9.47,25.54-1.44,18.06-14.38,11.31-6.83,6.01-22.91-7.27-21.39l-.81-.81v-70.57c.36-1.11,6.85-1.35,8.63-1.75,32.99-7.49,51.43-43,42.6-74.96-7.91-28.64-34.35-47.38-64.26-42.94,2.09-12.2,2.69-23.85-1.9-35.62-13.8-35.39-61.58-47.09-89.35-20.26-.97.94-3.81,5.22-4.57,5.2-2.48-.05-4.57-4.24-6.19-5.75-36.16-33.67-92.99-2.78-90.74,44.31.09,1.81,2.15,11.61,1.64,12.12-21.26-2.96-42.7,5.96-54.96,23.58-13.21,18.99-15.19,45.97-3.97,66.39,7.7,14.01,20.73,23.41,36.29,26.96,1.66,21.73-12.56,53.89-38.93,49.09-2.56-.47-8.9-3.89-9.98-6.25-.79-1.72,1.59-3.32,2.36-4.67,3.86-6.83,3.32-14.36-3.08-19.38,4.52-9.41-2.3-20.24-12.74-20.24-1.51,0-5.66,1.75-6.27.81-2.46-11.73-4.63-23.54-7.32-35.23-3.56-15.45-7.98-30.72-11.09-46.13-.19-.95-1.35-2.18-1.31-2.82.04-.55,2.5-3.84,2.99-4.93,4.82-10.77,4.03-21.02-.55-31.71-3.62-8.45-12.55-18.16-11.75-27.55.47-5.46,5.71-12.92,5.37-16.8-.51-5.84-8.26-2.83-11.56-1.29-25.83,12.08-35.82,61-15.26,81.26,1.24,1.22,6.12,4.16,6.59,5.05s-.39,2.47-.21,3.9c.2,1.6,1.56,3.33,2.01,5.07,1.1,4.24,1.01,10.88,1.74,15.52,3.36,21.45,7.87,42.69,12.89,63.81.5,2.13-1.92,2.57-3.24,4.28-4.39,5.68-4.31,13.89.99,18.97-6.09,11.61,1.83,20.82,13.61,22.14,3.56,13.95,7.25,27.94,11.71,41.63,2.22,6.82,7.35,29.35,18.47,21.96,5.18-3.44,3.22-12.38,2.65-17.71-1.12-10.39-3.61-20.71-4.78-31.12,33.4,19.41,71.79-8.26,78.27-42.65,1.38-.21.84.12,1.13.76,1.24,2.77,2.05,5.49,3.63,8.24,9.43,16.38,27.18,26.09,45.98,26.63,1.06,6.42-4.16,10.79-2.45,17.29.47,1.78,2.33,2.69,2.48,4.54l-.03,327.17c-.58,5.18-3.28,5.7-7.65,6.92-6.59,1.84-20.67,2.32-22.45,11.02-1.7,8.26,4.14,13.93,12.03,14.72,22.06,2.19,43.79-6.29,43.48-31.55l-.05-354.19c-.03-.83.23-1.32.81-1.89,1.36-1.33,6.24-3.5,8.35-5.14,1.61-1.26,7.91-8.2,8.95-8.14,5.4,3.64,8.67,9.78,14.86,12.5l.56,1.6-.06,342.31c1.61,14.02-.95,30.35,13.36,38.47,10.29,5.84,46.4,13.04,43.75-7.04-1.55-11.74-17.89-10.42-25.9-13.51-5.94-2.29-4.15-6.28-5.26-11.47v-343.06c19.33-.48,35.93-10.57,46.42-26.45Z"/>
    <path d="M480.33,259.37c-10.49,15.88-27.09,25.97-46.43,26.45v343.06c1.12,5.19-.67,9.19,5.27,11.47,8.01,3.08,24.35,1.76,25.9,13.51,2.65,20.08-33.46,12.88-43.75,7.04-14.31-8.12-11.75-24.45-13.36-38.47l.06-342.31-.56-1.6c-6.18-2.72-9.46-8.86-14.86-12.5-1.04-.06-7.34,6.89-8.95,8.14-2.11,1.65-7,3.81-8.35,5.14-.58.57-.84,1.06-.81,1.89l.05,354.19c.31,25.26-21.42,33.74-43.48,31.55-7.89-.78-13.73-6.46-12.03-14.72,1.79-8.69,15.87-9.18,22.45-11.02,4.37-1.22,7.08-1.74,7.65-6.92l.03-327.17c-.15-1.85-2.01-2.77-2.48-4.54-1.71-6.5,3.51-10.87,2.45-17.29-18.8-.53-36.55-10.24-45.98-26.63-1.59-2.76-2.39-5.47-3.63-8.24-.29-.64.25-.97-1.13-.76-6.49,34.39-44.87,62.05-78.27,42.65,1.17,10.4,3.66,20.73,4.78,31.12.57,5.34,2.53,14.28-2.65,17.71-11.13,7.38-16.25-15.14-18.47-21.96-4.45-13.69-8.15-27.68-11.71-41.63-11.78-1.32-19.69-10.54-13.61-22.14-5.3-5.07-5.38-13.29-.99-18.97,1.32-1.71,3.74-2.15,3.24-4.28-5.02-21.12-9.53-42.36-12.89-63.81-.73-4.64-.63-11.28-1.74-15.52-.45-1.74-1.81-3.47-2.01-5.07-.18-1.43.66-3.03.21-3.9s-5.36-3.84-6.59-5.05c-20.56-20.26-10.56-69.18,15.26-81.26,3.31-1.55,11.05-4.55,11.56,1.29.34,3.87-4.9,11.33-5.37,16.8-.8,9.39,8.12,19.09,11.75,27.55,4.58,10.68,5.37,20.94.55,31.71-.49,1.09-2.95,4.38-2.99,4.93-.04.64,1.12,1.87,1.31,2.82,3.11,15.41,7.54,30.68,11.09,46.13,2.69,11.68,4.86,23.49,7.32,35.23.61.94,4.76-.81,6.27-.81,10.44,0,17.26,10.83,12.74,20.24,6.4,5.02,6.94,12.55,3.08,19.38-.77,1.35-3.14,2.95-2.36,4.67,1.08,2.36,7.42,5.78,9.98,6.25,26.36,4.8,40.59-27.36,38.93-49.09-15.56-3.55-28.6-12.95-36.29-26.96-11.22-20.42-9.24-47.4,3.97-66.39,12.26-17.62,33.7-26.54,54.96-23.58.51-.51-1.55-10.31-1.64-12.12-2.25-47.09,54.58-77.98,90.74-44.31,1.62,1.51,3.72,5.7,6.19,5.75.76.02,3.6-4.26,4.57-5.2,27.77-26.82,75.55-15.13,89.35,20.26,4.59,11.77,3.99,23.42,1.9,35.62,29.92-4.44,56.35,14.3,64.26,42.94,8.83,31.96-9.61,67.46-42.6,74.96-1.78.4-8.27.64-8.63,1.75v70.57s.81.81.81.81c13.28-1.52,18.58,14.55,7.27,21.39,7.48,12.94-6.84,23.85-18.06,14.38-10.15,9.63-24.39-1.53-18.23-13.84-10.42-3.38-10.35-18.56.17-21.48,1.75-.49,3.63.07,4.76-1.18v-38.6ZM364.8,276.64c6.27-1.58,12.39-5.26,17.28-9.44,3.03-2.59,6.16-7.82,10.53-7.75,4.63.08,9.28,7.13,12.67,9.91,29.21,23.94,73.25,2.26,76.12-34.02.32-4.06-1.08-11.1,2.14-14.05,3.44-3.16,8.15-.93,12.15-.76,53.05,2.22,73.93-64.48,34.85-96.39-10.99-8.98-22.08-10.73-35.93-10.54-3.03.04-6.17,1.76-8.9-1.31-3.23-3.62-.31-10.38,0-14.6,3.37-43.97-46.23-71.61-79.89-43.18-2.4,2.03-6.28,7.81-8.65,8.62-7.15,2.42-10.14-4.78-14.54-8.62-31.45-27.42-79.11-.11-78.77,38.93.05,5.52,5.51,16.82-1.13,19.92-3.41,1.59-11.95-.11-16.49.25-53.42,4.16-64.49,86.06-14.04,103.15,9.26,3.14,14.77,1.8,23.77,2.69,9.27.91,5.6,9.57,6.22,16.45,2.11,23.43,22.79,42.97,46.42,42.92-.87-2.43-1.96-4.85-3.77-6.76-3.73-3.93-11.32-4.36-10.7-11.71s8.71-5.53,9.88-7.98c.73-1.53.05-4.88.51-7.05,1.16-5.53,8.49-7.84,12.18-3.48,3.01,3.55.43,8.05,2.45,10.52,1.59,1.95,5.32-.93,7.82,1.89,3.44,3.88-1.35,6.84-1.11,9.17.21,2,3.87,2.41,3.23,6.99-.38,2.72-2.86,4.19-4.29,6.25ZM184.5,111.46c4.2-1.27.49-7.62-.81-10.27-4.97-10.15-11.31-14.83-9.85-27.64l3.36-11.75c-16.42,7.43-23.58,25.9-25.12,42.88l5.14,6.77c2.44,0,.62-10.47,6.32-12.07,7.77-2.17,6.49,16.96,9.94,17.98,4.04,1.2,1.6-9.63,4.52-11.03,3.61-1.74,5.75,2.14,6.49,5.13ZM179.64,109.84c-1.01,3.69.55,11.13-5.15,11.37-8.26.35-5.56-14.73-10.25-18.38-2.95,0-.86,14.76-8.13,11.91l-3.48-3.28c.35,7.71,2.82,16.16,7.82,22.14,1.12,1.33,5.04,4.78,6.49,5.39.25.1.88.14.8-.26-4.32-4.2-7.4-10.02-8.63-15.92,1.43-.27.94.3,1.32,1.08,3.17,6.5,5.93,12.22,12.65,15.91l9.75-2.18c5.4-6.38,7.11-15.33,5.42-23.45-4.9,3.2-6.01-1.26-8.63-4.32ZM170.54,144.46c-4.32,9.02,16.32,5.18,13.7-.59-1.26-2.77-4.33-.56-6.64-.18s-4.66.81-7.05.77ZM172.08,152.48l2.13,13.8c4.79.9,9.63-.08,13.83-2.46l-3.55-14.04c-3.77,2.05-8.19,2.44-12.41,2.7ZM174.24,168.68c-.65,1.85-.35,4.95,1.9,5.39,4.5.87,18.84-.93,12.41-8.03-4.13,2.4-9.66,3.81-14.31,2.65ZM190.97,173.54c-4.7,1.82-10,4.31-15.11,2.7-.85,1.21,3.85,24.63,4.56,28.09,1.78,8.67,4.06,17.26,5.96,25.91l.58.46c2.88-.76,5.62-1.23,8.62-1.03,6.08.39,7.95,3.68,6.57-4.95-2.75-17.21-7.52-34.16-11.18-51.17ZM294.08,225.36h-10.26c.81,20.25-8.18,44.4-27.88,52.83-10.23,4.38-22.49,3.81-30.97-3.97-1.13-1.03-3.23-4.27-4.16-4.51-.76-.2-3.85.43-4.24.97-.63.87,1.26,11.43,2.18,12.47,4.11,4.66,16.02,8.35,22.13,8.64,34.45,1.66,55.92-35.37,53.2-66.43ZM509.87,312.67c1.55-1.53,1.44-4.66-.39-6.06-3.2-2.44-10.48,1.48-12.84-3.35l-.11-75.47c.23-1.63-7.01-2.07-7.75-1.82-1.58.53-.75,6.55-.87,8.32-1.45,22.89-.08,46.08-.57,69.06-.66,3.4-6.5,2.13-8.92,2.42-4.97.59-5.55,7.33.15,8.53,1.94.41,4.58-.47,5.69,1.88,1.73,3.68-6.48,8.97-2.32,13.64,1.57,1.77,4.03,1.74,5.93.51,2.52-1.64,2-5.67,5.69-5.67,3.46,0,3.76,4.8,6.88,6.09,3.83,1.58,6.91-1.1,6.23-5.12-.62-3.69-5.61-5.82-4.65-9.19.77-2.69,6.01-1.96,7.85-3.78ZM219.73,246.82c-2.04-2.12.51-4.46,1.2-6.36,4.84-13.42-16.42-13.04-14.71-2.55.98,6.06,6.82,1.82,8.43,4.58,1.3,2.23-.84,4-3.02,4.35-5.83.92-11.12-4.16-11.56-9.77l-.81-.81c-7.22-2.9-21.34,2.89-17.58,12.18,1.13,2.78,5.48,3.41,5.51,5.85.04,3.6-6.24,5.21-3.42,11.51,3.52,7.87,18.07,4.8,22.87-.77,1.37-1.59,3.07-6.21,4.72-6.66,3.15-.86,3.86,3.5,3.39,5.86,7.3.08,15-7.85,9.41-14.54-1.32-1.58-3.63-2.05-4.41-2.87ZM198.01,276.13c4.65,17.64,8.97,36.71,15.63,53.7.77,1.97,2.22,7.12,5.07,6.16,2-.68.99-6.54.81-8.26-1.94-18.75-6.73-37.9-9.23-56.63l-.69-.92c-3.23,2.99-7.17,5.31-11.59,5.95ZM426.86,285.31l-11.31-2.72v350.08c1,16.78,5.2,23.28,22.01,26.58,3.93.77,19.84,2.9,20.65-2.85,1-7.06-16.23-7.65-20.95-9.26-7.77-2.66-9.4-6.59-10.37-14.47l-.03-347.35ZM367.5,283.13l-9.89,1.71c-.71.16-.83.63-.93,1.27-.81,5.41,6.98,11.07,2.3,18.46-.78,1.23-2.21,1.65-2.32,2.57-.34,109.89.9,219.93-.63,329.73-2.92,13.73-16.48,9.83-26.31,14.17-6.83,3.02-4.24,8.33,2.4,8.92,13.45,1.19,32.6-2.1,34.6-18.35l.78-5.7v-352.78Z"/>
    <path class="cls-7" d="M364.8,276.64c1.44-2.06,3.91-3.52,4.29-6.25.64-4.59-3.02-4.99-3.23-6.99-.24-2.33,4.55-5.28,1.11-9.17-2.5-2.82-6.23.06-7.82-1.89-2.01-2.47.56-6.97-2.45-10.52-3.69-4.36-11.02-2.04-12.18,3.48-.45,2.17.22,5.52-.51,7.05-1.17,2.45-9.26.69-9.88,7.98s6.97,7.78,10.7,11.71c1.81,1.91,2.89,4.32,3.77,6.76-23.63.05-44.31-19.49-46.42-42.92-.62-6.88,3.05-15.54-6.22-16.45-9-.88-14.5.45-23.77-2.69-50.45-17.09-39.38-98.99,14.04-103.15,4.54-.35,13.08,1.34,16.49-.25,6.64-3.1,1.18-14.4,1.13-19.92-.34-39.04,47.32-66.35,78.77-38.93,4.41,3.84,7.4,11.04,14.54,8.62,2.37-.81,6.25-6.59,8.65-8.62,33.67-28.42,83.26-.79,79.89,43.18-.32,4.22-3.23,10.98,0,14.6,2.74,3.07,5.88,1.35,8.9,1.31,13.85-.19,24.94,1.57,35.93,10.54,39.08,31.91,18.2,98.61-34.85,96.39-4-.17-8.71-2.4-12.15.76-3.22,2.95-1.82,9.99-2.14,14.05-2.86,36.28-46.91,57.97-76.12,34.02-3.39-2.78-8.04-9.83-12.67-9.91-4.37-.07-7.5,5.16-10.53,7.75-4.89,4.17-11.01,7.86-17.28,9.44ZM393.42,115.78c-2.83-16.78-17.91-39.62-37.62-30.32-30.25,14.26-29.85,91.96,1.84,103.08,20.71,7.27,30.99-14.65,35.77-30.39.23-.77-.34-.96,1.09-.8,2.51,18.17,19.88,41.49,40.11,29.05,26.38-16.22,26.02-77.71,3.36-97.08-16.13-13.79-32.39-1.82-39.78,14.23-1.64,3.55-2.35,7.36-3.72,10.85-.22.56-.2,1.3-1.04,1.38ZM284.24,146.11c-5.31.69-4.79,9.37-.15,9.67,6.29.42,6.29-10.46.15-9.67ZM304.2,153.71c-3.17-2.93-7.96,3.57-3.62,5.52,3.76,1.69,6.17-3.16,3.62-5.52ZM523.35,167.77c-2.8-2.6-7.38-.82-9.82,1.46-2.2,2.05-5.72,9.4-10,4.6-2.98-3.35,3.37-19.53-7.02-16.76-9.85,2.63,3.02,16.68-1.9,21.85-4.63,4.86-11.14-5.08-17.79-.51-3.67,2.52-3.91,7.41-.76,10.47,1.98,1.92,6.07,2.35,5.93,5.98-.16,4.11-4.94,4.66-7.57,6.53-7.23,5.15-4.61,15.5,3.96,12.06,3.97-1.59,5.02-8.68,9.24-8.63,4.96.07.99,8.37,6.51,9.19,7.5,1.13,3.38-8.98,8.73-9.59,3.4-.39,5.71,6.88,11.06,6.28,2.51-.28,5.17-2.65,5.69-5.15,1.95-9.39-10.27-10.44-9.83-17.5.43-7,10.72-7.37,13.98-12.36,1.57-2.4,1.84-5.82-.41-7.9ZM272.86,159.13c-2.96-2.74-7.49-.55-7.75,3.41-.35,5.25,5.83,7.86,5.01,12.09-.88,4.56-7.02,2.42-10.06,5.64-2.79,2.96-1.94,8.31,1.79,10.11,3.08,1.49,7.93-.13,9.16,2.73,1.32,3.08-1.59,4.31-2.74,6.69-3.28,6.74,3.82,11.47,8.24,5.55,1.37-1.84,2.1-5.57,5.4-5.36,4.24.28,4.66,10.01,10.86,7.6,5.27-2.06,1.54-7.48,2.66-9.76,1.05-2.14,7.1-1.7,5.32-8-1.59-5.61-8.47-3.76-9.26-7.51-.72-3.46,4.11-4.79,5.04-8.22,1.03-3.75-1.15-7.83-5.34-7.56-5.28.34-7.07,8.28-13.27,6.16-5.08-1.74-1.67-10.44-5.05-13.57ZM251.03,170.71c2.96,2.57,7.23-3.17,3.08-5-3.57-1.57-4.81,3.5-3.08,5ZM482.08,170.71c3.6,3.62,7.76-5.58,1.8-5.25-2.82.16-3.28,3.77-1.8,5.25ZM303.39,180.69c-2.18,2.17,1.08,6.31,3.96,4.23,3.41-2.47-1-7.17-3.96-4.23ZM529.33,191.22c2.3-2.31-.37-7.33-3.96-4.76s1.35,7.4,3.96,4.76ZM466.96,195c2.07,2.09,6.63-.56,4.23-3.96-2.21-3.13-7.01,1.16-4.23,3.96ZM364.67,198.51c-11.43,1.46-15.44,11.3-6.6,19.28,14.32,12.94,56.15,13.59,70.18.03,6.08-5.87,6.58-14.46-2.17-17.84-10.52-4.07-20.14,1.73-30.75,2.19-10.41.45-21.8-4.8-30.66-3.67ZM326.33,241.65c-5.38,1.1-5.08,11.13,2.45,9.52,5.38-1.15,3.95-10.83-2.45-9.52ZM372.22,246.5c-3.86.76-2.78,6.41.92,5.87,3.79-.56,2.72-6.58-.92-5.87ZM375.98,255.14c-3.13.96-1.87,6.34,1.94,5.22,2.59-.77,1.99-6.42-1.94-5.22Z"/>
    <path class="cls-7" d="M426.86,285.31l.03,347.35c.96,7.88,2.59,11.8,10.37,14.47,4.72,1.62,21.95,2.2,20.95,9.26-.82,5.76-16.72,3.63-20.65,2.85-16.81-3.3-21.01-9.8-22-26.58v-350.08s11.31,2.72,11.31,2.72Z"/>
    <path class="cls-7" d="M367.5,283.13v352.78l-.78,5.7c-2,16.25-21.15,19.54-34.6,18.35-6.64-.59-9.23-5.9-2.4-8.92,9.83-4.34,23.39-.44,26.31-14.17,1.53-109.8.28-219.84.63-329.73.11-.91,1.54-1.33,2.32-2.57,4.68-7.39-3.12-13.04-2.3-18.46.1-.64.22-1.11.93-1.27l9.89-1.71Z"/>
    <path class="cls-7" d="M509.87,312.67c-1.84,1.82-7.09,1.1-7.85,3.78-.96,3.37,4.02,5.5,4.65,9.19.68,4.03-2.4,6.71-6.23,5.12-3.12-1.29-3.43-6.09-6.88-6.09-3.69,0-3.17,4.04-5.69,5.67-1.9,1.23-4.36,1.26-5.93-.51-4.16-4.68,4.04-9.97,2.32-13.64-1.1-2.35-3.74-1.47-5.69-1.88-5.7-1.21-5.12-7.94-.15-8.53,2.42-.29,8.26.99,8.92-2.42.5-22.99-.87-46.17.57-69.06.11-1.77-.71-7.8.87-8.32.74-.25,7.98.2,7.75,1.82l.11,75.47c2.36,4.84,9.64.91,12.84,3.35,1.83,1.4,1.94,4.53.39,6.06Z"/>
    <path class="cls-7" d="M294.08,225.36c2.72,31.05-18.75,68.09-53.2,66.43-6.1-.29-18.02-3.98-22.13-8.64-.92-1.04-2.8-11.6-2.18-12.47.38-.53,3.48-1.16,4.24-.97.94.25,3.04,3.48,4.16,4.51,8.48,7.77,20.74,8.34,30.97,3.97,19.7-8.43,28.68-32.58,27.88-52.83h10.26Z"/>
    <path class="cls-7" d="M219.73,246.82c.79.82,3.1,1.29,4.41,2.87,5.59,6.7-2.11,14.62-9.41,14.54.47-2.36-.24-6.72-3.39-5.86-1.65.45-3.35,5.07-4.72,6.66-4.8,5.57-19.35,8.63-22.87.77-2.82-6.3,3.47-7.91,3.42-11.51-.03-2.44-4.38-3.07-5.51-5.85-3.76-9.29,10.36-15.08,17.58-12.18l.81.81c.44,5.62,5.73,10.7,11.56,9.77,2.18-.34,4.31-2.12,3.02-4.35-1.61-2.76-7.44,1.48-8.43-4.58-1.7-10.49,19.56-10.87,14.71,2.55-.68,1.9-3.24,4.24-1.2,6.36Z"/>
    <path class="cls-6" d="M190.97,173.54c3.67,17.01,8.44,33.96,11.18,51.17,1.38,8.63-.49,5.35-6.57,4.95-3.01-.19-5.75.27-8.62,1.03l-.58-.46c-1.9-8.65-4.18-17.23-5.96-25.91-.71-3.46-5.41-26.88-4.56-28.09,5.11,1.61,10.41-.88,15.11-2.7Z"/>
    <path class="cls-3" d="M184.5,111.46c-.73-2.99-2.88-6.87-6.49-5.13-2.91,1.4-.48,12.23-4.52,11.03-3.45-1.02-2.17-20.15-9.94-17.98-5.7,1.6-3.88,12.07-6.32,12.07l-5.14-6.77c1.54-16.98,8.7-35.45,25.12-42.88l-3.36,11.75c-1.46,12.81,4.88,17.49,9.85,27.64,1.3,2.65,5.01,9,.81,10.27Z"/>
    <path class="cls-6" d="M179.64,109.84c2.61,3.06,3.73,7.52,8.63,4.32,1.68,8.12-.02,17.07-5.42,23.45l-9.75,2.18c-6.72-3.69-9.48-9.41-12.65-15.91-.38-.78.12-1.35-1.32-1.08,1.23,5.91,4.31,11.73,8.63,15.92.09.4-.55.36-.8.26-1.46-.6-5.38-4.05-6.49-5.39-5-5.98-7.47-14.43-7.82-22.14l3.48,3.28c7.27,2.85,5.17-11.91,8.13-11.91,4.68,3.65,1.98,18.73,10.25,18.38,5.7-.24,4.14-7.68,5.15-11.37Z"/>
    <path class="cls-6" d="M198.01,276.13c4.41-.64,8.36-2.96,11.59-5.95l.69.92c2.49,18.74,7.29,37.89,9.23,56.63.18,1.72,1.2,7.58-.81,8.26-2.85.96-4.3-4.19-5.07-6.16-6.65-16.99-10.98-36.06-15.63-53.7Z"/>
    <path class="cls-6" d="M172.08,152.48c4.22-.25,8.64-.65,12.41-2.7l3.55,14.04c-4.2,2.38-9.04,3.35-13.83,2.46l-2.13-13.8Z"/>
    <path class="cls-5" d="M174.24,168.68c4.65,1.17,10.18-.24,14.31-2.65,6.43,7.11-7.91,8.91-12.41,8.03-2.25-.44-2.55-3.54-1.9-5.39Z"/>
    <path class="cls-5" d="M170.54,144.46c2.4.03,4.7-.39,7.05-.77s5.39-2.59,6.64.18c2.62,5.78-18.02,9.62-13.7.59Z"/>
    <path d="M393.42,115.78c.84-.08.82-.82,1.04-1.38,1.37-3.49,2.08-7.3,3.72-10.85,7.39-16.05,23.65-28.02,39.78-14.23,22.66,19.37,23.02,80.86-3.36,97.08-20.24,12.44-37.6-10.88-40.11-29.05-1.43-.16-.85.03-1.09.8-4.78,15.75-15.06,37.67-35.77,30.39-31.69-11.12-32.09-88.82-1.84-103.08,19.7-9.29,34.79,13.55,37.62,30.32ZM388.01,117.93c-2.96-18.2-20.63-41.53-37.77-20.23-15.16,18.84-14.93,60.99,1.08,79.33,15.49,17.74,31.95-1.1,35.61-17.53l-4.84,7.84c-9.37,10.78-19.99,6.67-26.2-4.59-7.37-13.35-7.77-34.1-1.43-47.88,7.28-15.83,21.03-18.83,30.55-2.83l3.01,5.89ZM446.31,116.85c-2.45-14.52-16.66-36.63-33.18-23.74-20.54,16.03-20.17,66.99-2.46,85.03,15.3,15.58,29.97-1.96,34.56-17.02-2.42,3.16-3.8,6.3-7.01,8.91-12.31,10.01-23.07-2.72-26.84-14.2-4.47-13.63-3.8-32.52,3.94-44.87,7.11-11.33,17.71-13.17,26.36-2.16l4.63,8.05Z"/>
    <path class="cls-2" d="M523.35,167.77c2.25,2.09,1.98,5.5.41,7.9-3.26,4.99-13.55,5.36-13.98,12.36-.44,7.06,11.79,8.11,9.83,17.5-.52,2.5-3.17,4.87-5.69,5.15-5.35.6-7.66-6.67-11.06-6.28-5.34.61-1.23,10.72-8.73,9.59-5.51-.83-1.55-9.13-6.51-9.19-4.22-.06-5.27,7.03-9.24,8.63-8.57,3.44-11.19-6.91-3.96-12.06,2.63-1.87,7.41-2.42,7.57-6.53.14-3.62-3.95-4.06-5.93-5.98-3.16-3.06-2.92-7.95.76-10.47,6.65-4.57,13.16,5.38,17.79.51,4.92-5.17-7.95-19.23,1.9-21.85,10.39-2.77,4.04,13.41,7.02,16.76,4.28,4.8,7.8-2.54,10-4.6,2.44-2.28,7.02-4.05,9.82-1.46Z"/>
    <path class="cls-1" d="M272.86,159.13c3.38,3.13-.03,11.83,5.05,13.57,6.2,2.12,7.99-5.83,13.27-6.16,4.19-.27,6.37,3.81,5.34,7.56-.94,3.43-5.77,4.76-5.04,8.22.78,3.75,7.67,1.9,9.26,7.51,1.79,6.3-4.26,5.87-5.32,8-1.12,2.28,2.61,7.71-2.66,9.76-6.2,2.42-6.62-7.32-10.86-7.6-3.3-.22-4.03,3.52-5.4,5.36-4.42,5.92-11.52,1.2-8.24-5.55,1.16-2.38,4.06-3.61,2.74-6.69-1.23-2.86-6.08-1.24-9.16-2.73-3.72-1.81-4.57-7.16-1.79-10.11,3.03-3.22,9.18-1.08,10.06-5.64.82-4.24-5.36-6.85-5.01-12.09.26-3.96,4.79-6.15,7.75-3.41Z"/>
    <path d="M364.67,198.51c8.86-1.13,20.25,4.12,30.66,3.67,10.61-.46,20.23-6.26,30.75-2.19,8.75,3.38,8.24,11.97,2.17,17.84-14.03,13.56-55.85,12.9-70.18-.03-8.84-7.98-4.83-17.82,6.6-19.28ZM370.2,202.69c-12.19-1.42-16.75,6.55-5.58,13.44.81.17,1.07-.62,1.37-1.18,1.75-3.18,2.77-8.74,4.2-12.26ZM420.41,216.73c6.56-2.33,11.24-11.98,1.64-13.79-1.25-.24-7.13-.98-6.83.87l5.2,12.92ZM389.64,205.93l-13.48-2.16-5.42,15.38c0,.65,11.5,2.76,12.77,2.91,1.1.13,6.14.9,6.14-.2v-15.93ZM395.03,205.93v16.74c2.63.37,19.56-1.77,19.96-3.54l-5.99-14.74-13.97,1.55Z"/>
    <path class="cls-3" d="M326.33,241.65c6.4-1.31,7.83,8.37,2.45,9.52-7.53,1.61-7.83-8.42-2.45-9.52Z"/>
    <path class="cls-1" d="M284.24,146.11c6.14-.79,6.14,10.09-.15,9.67-4.64-.31-5.16-8.99.15-9.67Z"/>
    <path class="cls-1" d="M304.2,153.71c2.55,2.36.13,7.21-3.62,5.52-4.34-1.95.46-8.45,3.62-5.52Z"/>
    <path class="cls-2" d="M529.33,191.22c-2.61,2.63-7.59-2.17-3.96-4.76s6.26,2.45,3.96,4.76Z"/>
    <path class="cls-3" d="M372.22,246.5c3.63-.71,4.71,5.32.92,5.87-3.69.54-4.77-5.12-.92-5.87Z"/>
    <path class="cls-2" d="M482.08,170.71c-1.48-1.48-1.02-5.1,1.8-5.25,5.96-.33,1.8,8.87-1.8,5.25Z"/>
    <path class="cls-1" d="M303.39,180.69c2.95-2.94,7.37,1.76,3.96,4.23-2.87,2.08-6.13-2.06-3.96-4.23Z"/>
    <path class="cls-1" d="M251.03,170.71c-1.73-1.5-.49-6.58,3.08-5,4.15,1.83-.12,7.58-3.08,5Z"/>
    <path class="cls-2" d="M466.96,195c-2.78-2.8,2.01-7.09,4.23-3.96,2.4,3.4-2.16,6.04-4.23,3.96Z"/>
    <path class="cls-3" d="M375.98,255.14c3.92-1.2,4.53,4.45,1.94,5.22-3.81,1.13-5.06-4.26-1.94-5.22Z"/>
    <path class="cls-4" d="M446.31,116.85l-4.63-8.05c-8.65-11-19.25-9.17-26.36,2.16-7.74,12.35-8.41,31.24-3.94,44.87,3.77,11.48,14.54,24.21,26.84,14.2,3.21-2.61,4.58-5.75,7.01-8.91-4.59,15.06-19.26,32.6-34.56,17.02-17.72-18.04-18.09-69,2.46-85.03,16.53-12.9,30.73,9.22,33.18,23.74Z"/>
    <path class="cls-4" d="M388.01,117.93l-3.01-5.89c-9.52-16-23.27-13-30.55,2.83-6.33,13.78-5.93,34.52,1.43,47.88,6.21,11.26,16.84,15.37,26.2,4.59l4.84-7.84c-3.66,16.42-20.12,35.26-35.61,17.53-16.02-18.34-16.24-60.49-1.08-79.33,17.14-21.3,34.82,2.03,37.77,20.23Z"/>
    <path class="cls-4" d="M395.03,205.93l13.97-1.55,5.99,14.74c-.4,1.77-17.32,3.91-19.96,3.54v-16.74Z"/>
    <path class="cls-4" d="M389.64,205.93v15.93c0,1.1-5.04.33-6.14.2-1.26-.15-12.77-2.26-12.77-2.91l5.42-15.38,13.48,2.16Z"/>
    <path class="cls-4" d="M420.41,216.73l-5.2-12.92c-.3-1.85,5.58-1.11,6.83-.87,9.61,1.81,4.93,11.46-1.64,13.79Z"/>
    <path class="cls-4" d="M370.2,202.69c-1.43,3.52-2.45,9.07-4.2,12.26-.31.56-.56,1.35-1.37,1.18-11.17-6.89-6.61-14.85,5.58-13.44Z"/>
  </g>
  <path class="cls-3" d="M341.15,260.65c.53.36.23,1.61.06,1.5.09.06,2.2-.24,2.42-.24v-7.59c-4.19.06-7.79,2.13-10.09,5.6l7.07,1.91c-.05-.76-.09-1.51-.14-2.27l-2.79,3.66c3.17-1.1,6.34-2.21,9.51-3.31,1.93-.67,3.22-2.6,2.65-4.67-.52-1.88-2.72-3.33-4.67-2.65-3.17,1.1-6.34,2.21-9.51,3.31-1.51.53-2.89,1.93-2.79,3.66.05.76.09,1.51.14,2.27.23,3.79,4.95,5.11,7.07,1.91.8-1.21,2.1-1.82,3.54-1.84,4.88-.07,4.89-7.56,0-7.59-3.2-.02-6.7.61-8.58,3.5-2.14,3.28-.8,7.31,2.27,9.38,4.06,2.74,7.86-3.83,3.83-6.55h0Z"/>
  <path class="cls-3" d="M350.54,255.67c-.05-2.98-.26-6.4,1.99-8.67,3.1-3.12-.82-7.93-4.6-5.96-1.43.75-2.33,1.71-3.27,2.99-2.54,3.43,3.27,7.96,5.96,4.6.27-.44.61-.81,1.02-1.11.58-.32.54-.45-.14-.37.44.49.3,2.04.34,2.64.17,2.18.15,4.11-.57,6.2l7.45,1.01c-.18-3.09-.94-5.81-2.45-8.52-1.09-1.94-3.33-2.16-5.19-1.36-1.96.84-3.14,2.66-3.62,4.69-.11.47-.78,6.22-1.12,6.06-4.38-2.11-8.23,4.43-3.83,6.55,3.4,1.63,7.03,1.1,9.59-1.77,1.25-1.41,1.94-3.15,2.28-4.98.17-.94.16-1.89.27-2.83.07-.63.2-1.14.25-1.17l-5.19-1.36c.85,1.52,1.31,2.94,1.42,4.69.25,4.31,6.04,5.1,7.45,1.01s1.76-11.58-.95-15.5c-3.2-4.63-9.29-3.11-12.38.76l5.96,4.6.55-.27-4.6-5.96c-3.8,3.83-4.29,8.88-4.21,14.03.08,4.88,7.67,4.89,7.59,0h0Z"/>
  <path class="cls-3" d="M335.89,260.62c.34-1.09,1.77-2.13,2.85-1.4.43.29.83.98.84,1.47l-.21.77c.2-.38.26-.48.18-.28.05.12-.24.18-.27.19.32-.1.42-.1.68-.12.75-.04,1.43.14,2.19.3,2,.43,4.1-.59,4.67-2.65.52-1.89-.64-4.24-2.65-4.67-2.73-.58-5.61-.99-8.2.35s-4.29,4.11-3.89,7.01c.79,5.8,9.35,6.76,11.12,1.05.61-1.96-.72-4.14-2.65-4.67-2.04-.56-4.06.69-4.67,2.65h0Z"/>
  <path class="cls-3" d="M339.75,267.41c4.43,3.03,6.7,7.73,6.67,13.04-.02,3.12,3.18,4.4,5.71,3.28,5.12-2.27,10.12-4.77,14.96-7.6,3-1.76,6.09-3.96,4.21-7.84-2.55-5.26-15.33-12.25-20.22-7s-.91,16.67,6.96,14.66c3.47-.88,5.32-4.6,4.15-7.98-1.55-4.5-6.72-5.61-10.68-7.01-4.62-1.62-6.6,5.7-2.02,7.32,2.09.74,3.33,1.64,5.5.58,2.79-1.36.88-1.34,2.34-3.36l-2.27,1.74c1.56-.54,4.05.83,5.34,1.51.6.31,3.89,2.64,3.87,2.17l1.11-2.68c-4.29,4.01-11.77,6.58-17.08,8.93l5.71,3.28c.05-8.1-3.78-15.05-10.43-19.6-4.04-2.76-7.84,3.81-3.83,6.55h0Z"/>
  <path class="cls-3" d="M354.33,264.19l5.07-2.12c.84-.35,1.69-.71,2.53-1.06l.84-.35c.83-.19.86-.31.09-.35l-1.36-1.36c-.39-.56.23-.73-.77.15l2.68-1.11-.58.06,2.68,1.11-.3-.3.98,1.67c-.69-1.87-1.11-3.89-1.63-5.81-.44-1.62-1.99-2.77-3.66-2.79-1.1-.01-2.21-.02-3.31-.03-4.88-.05-4.89,7.54,0,7.59,1.1.01,2.21.02,3.31.03l-3.66-2.79c.84,3.06,1.34,8.86,5.59,8.9,3.39.03,6.13-3.67,6.25-6.85.13-3.42-2.55-6.22-6.01-6-1.72.11-3.28.96-4.85,1.62l-5.91,2.47c-1.89.79-3.24,2.51-2.65,4.67.49,1.78,2.76,3.45,4.67,2.65h0Z"/>
  <path class="cls-3" d="M348.31,262.48c-1.6.76-3.72.5-5.08-.63l-4.6,5.96c3.47,1.96,5.83,5.02,6.85,8.87,1.25,4.72,8.57,2.72,7.32-2.02-1.5-5.69-5.22-10.51-10.34-13.4-3.61-2.04-8.02,3.11-4.6,5.96,4.17,3.47,9.37,4.15,14.28,1.82,1.85-.88,2.33-3.53,1.36-5.19-1.11-1.89-3.33-2.24-5.19-1.36h0Z"/>
  <path class="cls-3" d="M346.15,280.63c.97,4.09,2.27,8.8-.06,12.69-1.62,2.7-4.1,3.92-4.11,7.44-.02,5.49,5.74,9.14,10.74,8.84,5.82-.36,9.5-5.46,8.12-11.11-.86-3.49-4.14-6.21-4.55-9.73s1.34-7.07,1.07-10.66c-.31-4.18-6.15-5.25-7.45-1.01-1.07,3.48-1.01,7.27-1.24,10.89-.12,1.88-.24,3.77-.36,5.65-.05.76.14,6.06-.12,6.32l3.69-.98c1.62.43,1.72-11.22,1.61-12.13-.52-4.56-1.54-8.95-1.39-13.58l-6.48,2.68c1.72,2,1.67,5.14,2.11,7.61.53,2.98,1.42,5.8,2.5,8.62.62,1.63,3.3,6.83,1.97,8.46-2.36,1.27-3.14,1.04-2.35-.72.18-.99.46-1.95.86-2.87.58-1.75,1.28-3.48,1.92-5.21l-7.32-2.02c-.88,2.56-1.77,5.11-2.65,7.67l7.45,1.01c-.13-6.5,3.3-14.06,5.03-20.31,1.31-4.71-6.01-6.72-7.32-2.02-1.95,7.03-5.45,14.97-5.3,22.33.09,4.39,6.07,5.01,7.45,1.01.88-2.56,1.77-5.11,2.65-7.67,1.61-4.65-5.65-6.55-7.32-2.02-2.07,5.62-6.07,13.8-.24,18.66,3.94,3.29,9.97,1.88,12.79-2.17,3.91-5.6,1.19-11.93-.87-17.6-2.2-6.05-1.66-13.07-6-18.13-2.25-2.62-6.38-.39-6.48,2.68-.21,6.64,2.7,13.66,1.24,20.17-.93,4.14-2.34,9.53,2.3,12.23,3.91,2.28,6.81-.85,7.37-4.5,1.09-7.15-.31-15.12,1.81-22.05l-7.45-1.01c.32,4.27-1.69,8.39-.81,12.67.4,1.97,1.26,3.65,2.28,5.37.65,1.1,4.16,7.87-.22,5.55-2.07-1.1.2-2.5,1.2-3.95,1.16-1.67,1.93-3.56,2.36-5.55.98-4.52-.06-9.16-1.11-13.57-1.13-4.75-8.45-2.74-7.32,2.02h0Z"/>
</svg>