<?xml version="1.0" encoding="UTF-8"?>
<svg id="Calque_1" data-name="Calque 1" xmlns="http://www.w3.org/2000/svg" viewBox="0 0 700 700">
  <defs>
    <style>
      .cls-1 {
        fill: #fff;
      }

      .cls-2 {
        fill: #ff5f40;
      }
    </style>
  </defs>
  <path d="M142.2,96.58c-15.6,23.12-33.27,67.8-15.43,93.19,9.1,12.95,28.41,16.98,43.33,15.13,1.26-4.43,1.65-9.01,2.88-13.47,6.83-24.86,27.33-42.39,52.88-45.66,1.33-.17,5.8.55,6.08-.89-24.39-57.19,44.93-110.64,92.47-67.63,7.31-11.13,16.52-20.26,29.11-25.26,42.54-16.88,84.28,17.6,80.15,61.89,16.17-5.02,32.61-4.72,47.54,3.76,28.32,16.08,38.84,54.03,27.23,83.77,39.49,2.4,99.07,15.96,107.56,62,4.55,24.66-5.85,47.38-18.71,67.57,6.99,6.53,7.6,17.54-.45,23.47-1.66,1.22-6.27,2.55-6.73,3.13-.68.86-.48,2.51-.97,3.66-4.76,11.09-17.9,11.62-22.16.16-11.98,6.46-22.71-5.22-16.11-16.99.95-1.68,5.44-6.05,5.49-6.48.08-.79-1.31-3.34-1.49-4.7-1.27-9.35,5.21-16.99,14.75-16.5,1.82.09,4.67,1.52,5.8.67,11.58-16.76,22.94-40.21,10.95-59.72-15.09-24.55-69.03-32.01-95.57-31.32-9.76,7.07-20.92,12.51-33.08,13.88-2.74.31-5.71-.59-8.31.67-.27,4.93,1.18,9.8,1.1,14.72-.13,8.3-2.93,18.38-6.68,25.78l-7.84,12.15c14.33,8.08,28.48,17.18,41.92,26.78,11.86,8.47,25.26,18.52,35.19,29.15,67.19,71.9-52.78,101.95-94.93,132.34-3.83,2.76-7.45,4.33-5.65,9.39,3.5,9.84,20.7,23.65,10.95,35.33-10.23,12.27-24.05-4.93-29.7-13.1-25.46-36.83-3.05-47.99,27.33-65.21,20.45-11.59,65.99-31.97,79.47-49.22,7.3-9.33,2.26-17.64-4.32-25.73-20.99-25.82-59.4-44.29-86.78-62.8-14.04,3.91-28.82,2.75-41.82-3.96-4.72-2.44-8.58-6.04-13.03-8.85-1.06.17-4.72,6.17-5.87,7.48-10.26,11.71-23.36,18.73-38.85,20.85-1.88.26-4.78-.69-6.12.84-14.7,40.79-30.94,84.58-34.74,128.15-3.39,38.9,9.01,72.75,22.75,108.25,6.59,17.02,15.6,34.64,21.47,51.57,9.03,26.07-16.08,49.94-39.69,55.13-6.98,1.54-18.21,1.53-20.49-7.13-5.48-20.74,32.01-18.56,33.23-37.24-15.36-39.42-34.99-77.86-43.19-119.75-4.98-25.47-3.5-49,.58-74.44,6.19-38.62,18.09-75.84,31.17-112.53-13.43-7.79-23.24-21.28-26.89-36.44-.9-3.72-1.14-7.55-2.09-11.25-.84-.6-9.9,1.37-11.93,1.49-27.94,1.72-52.46-15.49-60.55-42.04-7.6.14-14.66.56-22.27-.34-23.43-2.75-42.57-14.9-51.64-37.05-13.52-32.99-.05-73.67,16.98-102.88-11.09-6.78-9.6-21.89,2.33-26.46-.67-9.97,6.12-17.54,16.48-15.43,2.79.57,4.68,3.15,7.01,4.46,14.9-16.43,33.36,2.7,18.97,18.39,6.1,6.97,6.01,16.9-1.48,22.83-5.5,4.35-11.16,3.57-17.59,2.4ZM170.51,211.84c-22.18,1.39-45.08-4.56-54.02-26.85-10.09-25.17.78-58.73,13.34-81.36,1.41-2.54,7.12-12.39,8.82-13.78,2.67-2.18,6.03.45,9.02.77,8.33.88,14.34-5.44,9.62-13.1-1.92-3.12-5.69-2.84-3.74-7.56.49-1.17,2.3-2.46,3.17-3.78,7.37-11.27-1.77-17.55-9.39-8.23-1.84,2.25-2.66,6.32-6.1,6.13-4.49-.25-2.76-10.31-10.28-9.22-8.13,1.17-3.52,10.62-4.78,13.22-.83,1.7-5.39,1.91-7.46,3.56-4.59,3.67-4.09,9.92,1.37,12.38,2.07.93,5.13.62,5.78,3.46-3.69,7.44-8.21,14.37-11.68,21.94-11.91,25.95-20.22,61.92-5,88.1,12.99,22.34,38.09,28.2,62.5,26.49l-1.16-12.18ZM374.44,54.34c-13.93.32-28.85,7.17-37.86,17.8-4.26,5.02-5.79,12.82-13.87,11.56-2.91-.45-7.7-5.54-10.58-7.39-38.23-24.55-85.55,11.31-77.6,54.41,1.15,6.26,8.61,18.94-1.26,21.29-6.98,1.66-12.34.91-20.01,3.76-48.54,18.03-47.9,95.9,3.04,108.55,10.7,2.66,17.31.72,27.51.26,11.66-.52,8.83,8.9,11.03,17.42,10.45,40.39,60.92,50.34,88.13,19.71,2.85-3.2,5.92-9.74,10.47-10.41,5.34-.79,10.4,5.09,14.79,7.74,35.89,21.64,77.63-8.57,75.3-48.64-.27-4.71-2.65-9,.58-13.34,3.21-4.32,7.49-2.65,11.81-3.26,77.32-10.84,59.59-129.52-14.24-115.11-4.19.82-8.56,3.97-12.61.67-3.92-3.19-1.96-13.04-2.35-17.94-2.1-26.49-25.8-47.7-52.28-47.09ZM572.09,351.69c1.66,1.66-.67,9.68,4.17,11.2,6.39,2.01,7.31-7.5,8.08-11.69,1.5-1.94,9.13,1.13,11.26-6.13.9-3.08.36-5.03-1.62-7.45-1.96-2.4-5.53-2.97-4.93-6.61.27-1.61,6.29-9.77,7.63-12.12,29.38-51.67,9.59-88.03-44.87-103.73-14.87-4.29-30.95-6.57-46.44-6.71l-7.33,10.92c20.98.93,42.53,4.13,62.17,11.74,38.07,14.77,48.13,42,28.36,78.5-1.31,2.41-8.6,14.33-10.2,15.3-3.12,1.9-4.83-.58-7.13-1.07-7.09-1.51-11.69,3.87-8.79,10.53.8,1.83,2.57,2.87,2.16,5.14-.46,2.57-7.7,6.11-8.48,9.54-1.3,5.69,2.17,9.84,7.6,6.45,2.07-1.29,5.43-6.76,8.36-3.82ZM418.03,307.49c20.33,12.25,40.86,24.63,59.65,39.2,15.96,12.38,46.09,36.06,27.87,57.89-15.01,17.97-56.68,36.32-78.05,48.32-10.81,6.07-36.81,18.84-37.86,32.28-.72,9.2,10.68,26.81,17.08,33.34,7.27,7.42,16.01,6.71,10.96-5.17-5.5-12.96-22.68-22.9-5.63-35.9,28.99-22.08,86.7-38.76,107.32-68.33,23.67-33.95-26.75-69.76-50.72-86.45-11.94-8.31-24.34-15.94-36.69-23.63l-2.32.04-11.61,8.4ZM296.29,326.05l-14.5-3.23c-14.53,37.94-26.9,78.49-32.37,118.96-6.29,46.51,2.35,77.65,18.61,120.35,6.78,17.81,15.2,34.94,22.15,52.63,6.31,16.05,2.39,23-12.06,31.38-4.58,2.66-22.88,8.1-17.48,15.54s24.76-4.11,30.26-7.98c12.11-8.52,20.94-20.39,15.83-35.79-6.12-18.43-16.55-38.28-23.64-56.94-12.65-33.29-24.34-66.78-21.59-103.03,3.41-44.96,19.45-89.92,34.77-131.88Z"/>
  <path class="cls-2" d="M374.44,54.34c26.48-.61,50.18,20.59,52.28,47.09.39,4.9-1.56,14.75,2.35,17.94,4.05,3.3,8.42.14,12.61-.67,73.83-14.41,91.57,104.27,14.24,115.11-4.32.61-8.6-1.06-11.81,3.26-3.23,4.35-.86,8.63-.58,13.34,2.33,40.07-39.41,70.28-75.3,48.64-4.39-2.65-9.45-8.53-14.79-7.74-4.55.67-7.62,7.2-10.47,10.41-27.21,30.63-77.68,20.68-88.13-19.71-2.2-8.51.62-17.94-11.03-17.42-10.2.45-16.81,2.39-27.51-.26-50.94-12.65-51.58-90.52-3.04-108.55,7.67-2.85,13.04-2.1,20.01-3.76,9.87-2.35,2.42-15.03,1.26-21.29-7.95-43.1,39.37-78.96,77.6-54.41,2.88,1.85,7.67,6.93,10.58,7.39,8.08,1.26,9.61-6.54,13.87-11.56,9.01-10.63,23.94-17.48,37.86-17.8ZM340.34,182.86c5.41,17.96,26.6,39.1,45.5,24.33,26.25-20.51,16.87-90.89-12.81-104.84-23.96-11.26-38.66,15.76-39.93,35.87-6.88-17.99-27.21-39.8-46.94-23.76-26.14,21.24-16.19,93.51,15.78,105.35,22.24,8.24,33.74-14.12,37.09-32.19.3-1.63-.44-4.05,1.31-4.77ZM372.69,221.87c-9.93.98-18.8,7.49-29.23,8.45-10.1.93-22.48-2.65-31.68,1.36-8.86,3.87-10.17,13.12-2.75,19.3,15.79,13.17,59.05,6.79,73.36-7.24,10.94-10.73,6.39-23.46-9.7-21.87Z"/>
  <path class="cls-2" d="M296.29,326.05c-15.33,41.95-31.36,86.92-34.77,131.88-2.75,36.25,8.94,69.75,21.59,103.03,7.09,18.66,17.51,38.51,23.64,56.94,5.12,15.4-3.72,27.28-15.83,35.79-5.49,3.86-24.97,15.25-30.26,7.98s12.9-12.88,17.48-15.54c14.45-8.39,18.37-15.33,12.06-31.38-6.95-17.68-15.37-34.81-22.15-52.63-16.26-42.69-24.9-73.84-18.61-120.35,5.47-40.47,17.84-81.02,32.37-118.96l14.5,3.23Z"/>
  <path class="cls-2" d="M418.03,307.49l11.61-8.4,2.32-.04c12.35,7.69,24.75,15.32,36.69,23.63,23.97,16.69,74.39,52.5,50.72,86.45-20.62,29.57-78.33,46.25-107.32,68.33-17.06,12.99.12,22.94,5.63,35.9,5.04,11.87-3.69,12.59-10.96,5.17-6.4-6.53-17.8-24.14-17.08-33.34,1.05-13.44,27.05-26.21,37.86-32.28,21.37-12,63.04-30.35,78.05-48.32,18.23-21.83-11.91-45.51-27.87-57.89-18.78-14.57-39.32-26.94-59.65-39.2Z"/>
  <path class="cls-2" d="M572.09,351.69c-2.93-2.94-6.3,2.52-8.36,3.82-5.43,3.4-8.9-.76-7.6-6.45.78-3.43,8.03-6.97,8.48-9.54.4-2.27-1.37-3.31-2.16-5.14-2.9-6.66,1.7-12.04,8.79-10.53,2.29.49,4.01,2.97,7.13,1.07,1.6-.97,8.89-12.89,10.2-15.3,19.77-36.5,9.71-63.74-28.36-78.5-19.63-7.62-41.19-10.82-62.17-11.74l7.33-10.92c15.49.15,31.56,2.43,46.44,6.71,54.46,15.69,74.25,52.05,44.87,103.73-1.34,2.35-7.36,10.51-7.63,12.12-.6,3.64,2.97,4.21,4.93,6.61,1.99,2.42,2.53,4.37,1.62,7.45-2.13,7.26-9.76,4.19-11.26,6.13-.78,4.19-1.69,13.7-8.08,11.69-4.84-1.52-2.51-9.54-4.17-11.2Z"/>
  <path class="cls-2" d="M170.51,211.84l1.16,12.18c-24.4,1.71-49.51-4.14-62.5-26.49-15.22-26.18-6.9-62.15,5-88.1,3.47-7.57,8-14.5,11.68-21.94-.65-2.84-3.71-2.53-5.78-3.46-5.45-2.46-5.95-8.71-1.37-12.38,2.07-1.66,6.63-1.86,7.46-3.56,1.26-2.6-3.35-12.05,4.78-13.22,7.53-1.08,5.79,8.97,10.28,9.22,3.44.19,4.26-3.88,6.1-6.13,7.62-9.31,16.76-3.04,9.39,8.23-.87,1.32-2.68,2.61-3.17,3.78-1.96,4.72,1.81,4.44,3.74,7.56,4.72,7.66-1.29,13.98-9.62,13.1-2.98-.32-6.34-2.95-9.02-.77-1.7,1.39-7.42,11.24-8.82,13.78-12.55,22.63-23.43,56.19-13.34,81.36,8.94,22.29,31.83,28.24,54.02,26.85Z"/>
  <path d="M340.34,182.86c-1.75.72-1.01,3.14-1.31,4.77-3.36,18.07-14.86,40.43-37.09,32.19-31.96-11.84-41.91-84.11-15.78-105.35,19.73-16.04,40.06,5.77,46.94,23.76,1.27-20.12,15.97-47.14,39.93-35.87,29.68,13.95,39.06,84.33,12.81,104.84-18.9,14.77-40.09-6.37-45.5-24.33ZM387.88,130.69c-5.78-18.6-28.47-37.32-42.03-13.34-11.95,21.12-6.99,58.52,7.85,77.39,18.27,23.23,37.11,6.84,39.98-16.51l-2,4.66c-11.57,20.29-27.59,9.26-35.01-7.35-5.24-11.72-7-27.15-3.86-39.63,4.54-17.98,18.95-25.69,32.16-9.55l2.91,4.33ZM327.59,142.28c-6.11-20.33-30.2-41.41-44.27-13.84-10.8,21.18-5.78,58.53,9.51,76.72,19.27,22.92,37.61,3.18,39.98-19.4l-3.75,8.12c-17.91,24.92-36.06-5.54-38.97-24.24-3.07-19.7,4.12-56.33,30.58-36.95l6.93,9.59Z"/>
  <path d="M372.69,221.87c16.09-1.58,20.64,11.14,9.7,21.87-14.31,14.03-57.57,20.42-73.36,7.24-7.42-6.19-6.11-15.43,2.75-19.3,9.19-4.02,21.58-.44,31.68-1.36,10.43-.96,19.3-7.47,29.23-8.45ZM381.92,228.24c-2.17-2.53-10.43-2.62-13.15-.45l7.53,13.62c3.6-2.35,9.2-8.99,5.62-13.17ZM362.86,229.92l-14.33,4.01,2.23,17.1c1.73,1.27,20.18-5.14,20.27-6.41l-8.16-14.69ZM321.8,234.46c-6.25-.81-16.94,3.76-10.67,10.95,1.04,1.19,4.91,3.61,6.42,4.03,1.12.31,1.04-1.13,1.3-1.99,1.25-4.24,1.37-8.83,2.95-12.99ZM342.67,235.03l-14.42-.5c-.53,2.17-4.24,16.64-3.56,17.31l19.75.31-1.77-17.12Z"/>
  <path class="cls-1" d="M387.88,130.69l-2.91-4.33c-13.21-16.15-27.62-8.44-32.16,9.55-3.15,12.48-1.38,27.91,3.86,39.63,7.42,16.61,23.44,27.64,35.01,7.35l2-4.66c-2.87,23.35-21.71,39.74-39.98,16.51-14.84-18.86-19.8-56.26-7.85-77.39,13.57-23.98,36.25-5.26,42.03,13.34Z"/>
  <path class="cls-1" d="M327.59,142.28l-6.93-9.59c-26.46-19.38-33.65,17.25-30.58,36.95,2.91,18.7,21.06,49.16,38.97,24.24l3.75-8.12c-2.36,22.58-20.7,42.32-39.98,19.4-15.29-18.19-20.31-55.54-9.51-76.72,14.06-27.57,38.15-6.49,44.27,13.84Z"/>
  <path class="cls-1" d="M362.86,229.92l8.16,14.69c-.08,1.28-18.54,7.68-20.27,6.41l-2.23-17.1,14.33-4.01Z"/>
  <path class="cls-1" d="M342.67,235.03l1.77,17.12-19.75-.31c-.69-.67,3.03-15.15,3.56-17.31l14.42.5Z"/>
  <path class="cls-1" d="M381.92,228.24c3.58,4.18-2.02,10.82-5.62,13.17l-7.53-13.62c2.73-2.17,10.99-2.08,13.15.45Z"/>
  <path class="cls-1" d="M321.8,234.46c-1.58,4.16-1.7,8.76-2.95,12.99-.25.86-.18,2.3-1.3,1.99-1.51-.42-5.38-2.84-6.42-4.03-6.27-7.19,4.42-11.77,10.67-10.95Z"/>
</svg>