<?xml version="1.0" encoding="UTF-8"?>
<svg id="Calque_1" data-name="Calque 1" xmlns="http://www.w3.org/2000/svg" viewBox="0 0 700 700">
  <defs>
    <style>
      .cls-1 {
        fill: #fff;
      }

      .cls-2 {
        fill: #ff5f40;
      }
    </style>
  </defs>
  <path d="M545.77,132.23c34.1-4.06,64.29,20.79,73.73,52.5,10.32,34.65-5.17,73.38-37.84,89.41-4.81,2.36-10.1,3.65-14.98,5.84,6.16,13.33,11.43,27.85,20.29,39.7,4.1,5.48,8.52,11.55,15.99,8.38,4.13-1.75,29.67-21.22,30.15-24.02-.98-2.65-3.4-4.46-4.61-6.97-6.8-13.99,5.15-28.47,19.64-22,7.57-16.46,31.75-10.79,30.13,7.79,10.17,1.86,13.82,16.09,7.45,23.58-1.27,1.49-4.82,3.18-5.24,3.89-.53.9-.6,4.79-1.16,6.67-1.77,5.88-7.83,10.05-13.94,10.24-3.54.11-6.02-2.18-9.34-2.26-8.58,8.86-18.12,17.64-28.52,24.36-37.45,24.21-58.85,2.61-76.22-30.52-.9-1.71-3.85-9.43-4.24-9.8-1.16-1.08-1.09.41-1.35.92-1.47,2.88-2.54,6.04-4.17,8.87-21.27,36.89-69.69,45.19-105.57,24.65-7.37-4.22-13.26-9.95-19.61-15.48-2.19,1.71-3.86,4.02-5.98,5.81-2.29,1.92-10.66,7.22-11.69,8.53-1.82,2.32-3.7,9.19-5.57,12.05.03,1.34,10.48,10.1,12.37,11.73,26.91,23.29,57.13,45.51,82.87,69.79,16.58,15.64,22.11,29.8,30.49,50.4,16.89,41.53,30.87,84.3,47.14,126.07,6.79-4.14,13.73-9.94,18.92-15.97,6.27-7.27,10.46-18.44,20.57-21.18,14.77-4.01,20.92,10.92,18.1,23.26-4.09,17.89-34.19,41.33-50.64,47.92-15.01,6.02-27.61,2.54-33.37-13.19-18.73-45.5-33.13-92.94-52.22-138.27-7.01-16.65-11.65-26.37-25.1-38.84-17.88-16.58-37.79-31.7-56.44-47.29-3.61-3.02-28.02-24.98-29.97-24.83-11.75,19.12-23.28,38.45-35.32,57.39-12.91,20.32-29.49,49.42-45.92,66.29-38.71,39.73-96.88-7.81-135.05-26.12-3.47-1.66-3.82-2.76-6.87.33-11.79,11.92-21.09,41.83-36.03,47.47-9,3.4-17.45-.57-18.44-10.6-1.34-13.51,13.62-37.31,21.38-48.43,13.13-18.8,24.46-30.76,48.86-20.52,16.61,6.98,34.01,18.34,50.43,26.55,10.66,5.33,31.63,17.54,43.05,13.67,10.44-3.54,25.14-26.68,31.6-36.25,20.05-29.67,37.96-60.88,56.88-91.27.64-1.88-1.86-2.5-3.01-3.58-2.49-2.35-6.18-7.28-8.79-8.83-3.22-1.91-8.8-3.23-12.52-5.09-24.99-12.52-41-39.92-39.35-67.97-14.1-.14-27.43-5.71-38.71-13.81-6.49-4.66-4.79-7.56-14.27-5.57-27.48,5.79-46.02,29.81-55.33,54.92,17.41,4.93,17.77,30.24-1.94,31,.55,11.57-11.07,18.94-21.69,14.18-3.79-1.7-5.01-5.73-5.85-6.22s-5.16-.03-7.08-.43c-8.49-1.73-12.77-11.29-10.06-19.26.62-1.82,3.34-5.17,3.44-5.65.18-.89-1-2.6-1.12-3.88-.79-8.12,2.34-13.92,10.24-16.4,1.78-.56,5.36-.62,6.35-1.48.68-.59,6.49-13.92,7.8-16.33,14.28-26.19,35.94-49.18,66.23-55.45-1.98-6.66-3.77-13-4.54-19.94-3.69-33.34,15.38-68.13,47.43-79.7,12.09-4.37,23.98-4.97,36.69-3.43-10.48-35.49,12.89-73.31,47.11-84.34,23.58-7.6,47.41-3.03,66.06,13.25,3.24,2.83,5.88,6.52,9.09,9.09,6.36-7.91,14.81-14.8,24.09-19.01,54.54-24.73,109.95,28.05,95.04,83.61ZM594.31,255.15c40.72-40.09,15.45-115.21-42.32-115.78-4.33-.04-9.94,2.39-13.11-1.88-3.29-4.42.48-11.41.99-16.71,5.3-55.61-58.82-93.69-101.43-54.46-3.46,3.18-6.88,9.69-11.75,9.83-6.41.19-9.06-6.83-13.34-10.8-41.59-38.62-110.38-.24-103,54.72.87,6.49,5.1,14.4-3.71,17.34-27.34-3.88-52.75,5.23-67.76,28.79-25.55,40.1-5.25,95.23,43.09,102.95,4.98.8,12.08-1.26,13.25,6.32,1.18,7.64-.47,13.63,1.83,22.31,12.13,45.76,70.01,62.11,105.86,31.8,4.96-4.2,8.56-11.78,16.19-9.68,3.15.87,7.38,6.86,10.24,9.32,38.62,33.28,108.66,15.79,113.16-38.16.48-5.75-2.24-16.91,6.38-17.81,1.75-.18,3.22.71,5.01.56,15.59-1.29,29.39-7.81,40.42-18.68ZM234.58,249.65l-5.55-9.15-1.15-.51c-31.59,6.64-52.92,32.54-66.27,60.32-1.25,2.6-3.68,10.45-5,11.96-2.86,3.27-10.15-1.82-13.63,3.98-3.9,6.52,3.54,6.84,2.9,11.34-.42,2.98-7.87,3.74-6.39,10.97.68,3.34,3.92,5.46,7.25,4.29,1.46-.51,2.65-4.82,6.49-3.7,2.55.75,1.47,4.03,1.92,5.94,2.54,10.71,14.93,7.2,13.39-4.26-.27-1.99-2.03-3.12-.54-5.41,3.06-4.72,8.47,3.52,13.44-1.57,4.14-4.23.76-10.44-3.58-12.78-3.42-1.84-9.37-1.14-9.2-5.81.1-2.95,5.05-13.72,6.64-16.91,11.94-24.06,31.89-44.04,59.29-48.69ZM678.65,291.62c-3.95-3.66-8.64,1.78-10.95-1.12-2.71-3.41,5.76-9.68.09-15.09-5.75-5.5-11.22-.14-13.29,5.69-.74,2.09.03,5.44-2.87,6.29-3.66,1.07-4.21-2.48-6.1-4.07-6.38-5.38-13.33,2.26-9.85,9.85,2.31,5.03,10.35,7.84,6.93,13.23-1.76,2.78-10.36,10.17-13.33,12.76-10.08,8.77-27.05,24.34-40.4,14.29-14.3-10.77-23.32-36.27-30.15-52.37l-8.11.52-.85,14.1c12.76,28.16,29.91,71.74,68.61,49.75,13.03-7.41,24.85-19.3,35.18-30.06,4.34-2.06,6.13,2.82,10,3.4,5.66.84,9.17-2.89,7.83-8.49-.5-2.09-2.32-2.48-.95-4.74,1.76-2.92,8.48-1.24,10.07-6.27.71-2.23-.18-6.1-1.87-7.66ZM353.31,352.74c12.72,11.29,25.52,22.58,38.48,33.6,24.29,20.66,50.16,40.62,73.74,61.96,17.98,16.26,22.61,27.21,31.62,49.27,16.79,41.08,30.07,83.68,46.82,124.76,5.24,12.86,6.92,22.46,23.67,17.47,13.56-4.04,40.99-26.48,46.53-39.59,2.23-5.28,3.77-18.11-4.73-17.82-6.8.24-13.38,13.77-17.37,18.55-4.33,5.19-19.44,18.86-25.46,20.85-6.84,2.27-8.28-6.95-10.24-11.87-17.21-43.2-30.99-88.63-49.44-131.27-11.27-26.04-20.55-33.84-41.4-51.89-29.15-25.24-59.62-49.01-88.49-74.6-3.24-1.7-7.51.37-11.02.56-4.22.23-8.5-.16-12.71.01ZM357.57,367.74c-21.58,32.73-40.55,67.28-63.09,99.37-9,12.81-19.94,31.3-37.36,31.79-21.92.61-69.58-32.27-92.11-41.69-11.1-4.64-17.74-5-26.99,3.49-9.23,8.47-31.26,42.84-31.92,54.89-.25,4.54,1.87,7.62,6.66,6.61,10.47-2.19,24.87-39.2,36.05-48.11,4.51-3.6,6.95-3.29,12.08-1.02,26.63,11.79,51.42,31.74,80.37,39.67,31.48,8.62,43.93-4.25,61.05-28.02,24.23-33.63,44.65-70.98,67.07-105.88.52-1.41-1.35-2.65-2.35-3.61-1.09-1.04-8.86-7.64-9.45-7.5Z"/>
  <path class="cls-2" d="M594.31,255.15c-11.03,10.86-24.83,17.39-40.42,18.68-1.79.15-3.25-.74-5.01-.56-8.62.9-5.9,12.06-6.38,17.81-4.5,53.95-74.54,71.44-113.16,38.16-2.87-2.47-7.1-8.46-10.24-9.32-7.63-2.1-11.22,5.48-16.19,9.68-35.85,30.31-93.73,13.96-105.86-31.8-2.3-8.68-.65-14.67-1.83-22.31-1.17-7.58-8.27-5.52-13.25-6.32-48.34-7.72-68.64-62.84-43.09-102.95,15.01-23.56,40.43-32.68,67.76-28.79,8.81-2.93,4.58-10.85,3.71-17.34-7.38-54.96,61.41-93.34,103-54.72,4.28,3.97,6.93,10.99,13.34,10.8,4.87-.14,8.29-6.65,11.75-9.83,42.61-39.24,106.73-1.15,101.43,54.46-.51,5.3-4.27,12.29-.99,16.71,3.17,4.27,8.78,1.84,13.11,1.88,57.77.56,83.04,75.69,42.32,115.78ZM434.87,149.19c-3.49-22.71-21.78-54.2-49.14-40.98-26.79,12.94-32.25,62.57-26.35,88.09,9.92,42.89,47.19,59.05,69.26,14.2l5.56-15.63c2.49,21.93,19.71,52.1,46.01,42.41,40.7-14.99,42.51-111.43,3.37-127.99-19.03-8.05-35.18,7.18-42.66,23.46l-6.05,16.44ZM394.92,247.89c-14.43,1.51-19.5,14.32-8.34,24.29,18.01,16.09,69.57,17.84,88.09,1.96,10.07-8.64,8.62-20.62-4.98-23.74-12.36-2.84-25.71,3.47-38.44,3.21-11.9-.25-25.12-6.88-36.32-5.71Z"/>
  <path class="cls-2" d="M353.31,352.74c4.22-.17,8.5.22,12.71-.01,3.51-.19,7.78-2.26,11.02-.56,28.86,25.59,59.34,49.36,88.49,74.6,20.85,18.05,30.13,25.85,41.4,51.89,18.45,42.64,32.23,88.07,49.44,131.27,1.96,4.92,3.4,14.14,10.24,11.87,6.03-2,21.14-15.67,25.46-20.85,3.99-4.78,10.56-18.32,17.37-18.55,8.5-.29,6.96,12.54,4.73,17.82-5.54,13.11-32.96,35.55-46.53,39.59-16.75,4.98-18.43-4.61-23.67-17.47-16.75-41.08-30.03-83.68-46.82-124.76-9.01-22.06-13.64-33.01-31.62-49.27-23.58-21.33-49.45-41.3-73.74-61.96-12.96-11.02-25.76-22.31-38.48-33.6Z"/>
  <path class="cls-2" d="M357.57,367.74c.59-.14,8.35,6.46,9.45,7.5,1.01.96,2.88,2.19,2.35,3.61-22.42,34.9-42.84,72.25-67.07,105.88-17.12,23.77-29.57,36.64-61.05,28.02-28.95-7.93-53.74-27.87-80.37-39.67-5.13-2.27-7.57-2.58-12.08,1.02-11.17,8.91-25.58,45.92-36.05,48.11-4.8,1-6.91-2.07-6.66-6.61.66-12.06,22.69-46.43,31.92-54.89,9.25-8.48,15.88-8.13,26.99-3.49,22.53,9.42,70.19,42.31,92.11,41.69,17.42-.49,28.36-18.99,37.36-31.79,22.54-32.09,41.52-66.64,63.09-99.37Z"/>
  <path class="cls-2" d="M678.65,291.62c1.69,1.56,2.58,5.43,1.87,7.66-1.6,5.03-8.32,3.35-10.07,6.27-1.36,2.27.45,2.66.95,4.74,1.34,5.6-2.17,9.33-7.83,8.49-3.87-.57-5.67-5.46-10-3.4-10.33,10.76-22.15,22.65-35.18,30.06-38.7,21.99-55.85-21.59-68.61-49.75l.85-14.1,8.11-.52c6.83,16.11,15.86,41.61,30.15,52.37,13.35,10.05,30.32-5.52,40.4-14.29,2.98-2.59,11.57-9.98,13.33-12.76,3.42-5.4-4.62-8.21-6.93-13.23-3.48-7.59,3.47-15.23,9.85-9.85,1.89,1.59,2.44,5.14,6.1,4.07,2.91-.85,2.13-4.2,2.87-6.29,2.06-5.83,7.53-11.19,13.29-5.69,5.67,5.42-2.8,11.69-.09,15.09,2.31,2.9,7-2.54,10.95,1.12Z"/>
  <path class="cls-2" d="M234.58,249.65c-27.4,4.65-47.34,24.63-59.29,48.69-1.59,3.2-6.54,13.97-6.64,16.91-.16,4.67,5.78,3.97,9.2,5.81,4.34,2.34,7.72,8.55,3.58,12.78-4.98,5.09-10.38-3.15-13.44,1.57-1.49,2.29.28,3.42.54,5.41,1.53,11.46-10.86,14.97-13.39,4.26-.45-1.91.62-5.19-1.92-5.94-3.84-1.12-5.03,3.19-6.49,3.7-3.33,1.17-6.57-.95-7.25-4.29-1.47-7.23,5.97-7.98,6.39-10.97.63-4.49-6.8-4.82-2.9-11.34,3.47-5.81,10.77-.72,13.63-3.98,1.32-1.51,3.76-9.36,5-11.96,13.35-27.78,34.68-53.68,66.27-60.32l1.15.51,5.55,9.15Z"/>
  <path d="M434.87,149.19l6.05-16.44c7.48-16.28,23.63-31.52,42.66-23.46,39.14,16.57,37.33,113.01-3.37,127.99-26.3,9.69-43.52-20.48-46.01-42.41l-5.56,15.63c-22.08,44.85-59.34,28.69-69.26-14.2-5.9-25.52-.44-75.14,26.35-88.09,27.36-13.22,45.65,18.27,49.14,40.98ZM428.98,161.59c1.33-21.04-18.7-65.19-44.67-43.69-24.81,20.54-26.39,81.81-4.28,104.72,21.18,21.96,42.62-7.86,46.35-28.09,0-1.78-.18-1.76-.73-.08-8.45,25.73-30.91,33.18-42.64,4.97-6.86-16.5-6.28-37.47,1.06-53.72,11.88-26.28,33.56-21.8,41.99,3.49l2.92,12.4ZM504.66,166.81c-.28-9.29-2.14-18.83-5.38-27.56-7.6-20.51-26.1-36.12-44.18-15.15-19.21,22.28-20.87,70.98-4.46,95.11,21.17,31.12,47.1.01,51.43-24.66-.68-1.04-.82.52-.97.98-1.79,5.52-3.82,10.77-7.54,15.31-9.58,11.72-22.69,10.88-31.2-1.39-12.45-17.95-11.47-54.05,2.52-70.99,17.46-21.13,35.22.83,38.18,19.84l1.59,8.51Z"/>
  <path d="M394.92,247.89c11.2-1.17,24.42,5.46,36.32,5.71,12.74.26,26.08-6.05,38.44-3.21,13.59,3.12,15.05,15.1,4.98,23.74-18.52,15.88-70.08,14.13-88.09-1.96-11.16-9.97-6.09-22.78,8.34-24.29ZM402.24,253.58c-16.04-3.21-21.9,8.73-6.84,16.95l6.84-16.95ZM426.38,278.37l.36-19.61-17.28-3.86-6.95,18.93c1.37,1.75,22.88,5.54,23.87,4.54ZM465.53,272.49c15.73-8.31,10.59-19.65-6.53-17.61l6.53,17.61ZM433.55,264.34c-.42,4.7.31,9.92,0,14.68,8.35-.05,16.84-1.1,24.8-3.6l-7.15-18.93-16.39,1.93c-.31.21-1.19,5.08-1.26,5.91Z"/>
  <path class="cls-1" d="M504.66,166.81l-1.59-8.51c-2.96-19.01-20.72-40.97-38.18-19.84-14,16.94-14.97,53.03-2.52,70.99,8.51,12.27,21.61,13.12,31.2,1.39,3.71-4.54,5.74-9.79,7.54-15.31.15-.46.29-2.02.97-.98-4.33,24.67-30.26,55.78-51.43,24.66-16.41-24.12-14.75-72.83,4.46-95.11,18.08-20.97,36.58-5.36,44.18,15.15,3.24,8.73,5.1,18.26,5.38,27.56Z"/>
  <path class="cls-1" d="M428.98,161.59l-2.92-12.4c-8.43-25.29-30.11-29.77-41.99-3.49-7.34,16.24-7.92,37.21-1.06,53.72,11.73,28.21,34.19,20.76,42.64-4.97.55-1.68.73-1.7.73.08-3.73,20.23-25.18,50.05-46.35,28.09-22.1-22.92-20.52-84.18,4.28-104.72,25.96-21.5,46,22.65,44.67,43.69Z"/>
  <path class="cls-1" d="M433.55,264.34c.07-.83.96-5.7,1.26-5.91l16.39-1.93,7.15,18.93c-7.96,2.5-16.45,3.55-24.8,3.6.31-4.76-.42-9.97,0-14.68Z"/>
  <path class="cls-1" d="M426.38,278.37c-.99.99-22.5-2.79-23.87-4.54l6.95-18.93,17.28,3.86-.36,19.61Z"/>
  <path class="cls-1" d="M465.53,272.49l-6.53-17.61c17.12-2.04,22.26,9.3,6.53,17.61Z"/>
  <path class="cls-1" d="M402.24,253.58l-6.84,16.95c-15.06-8.22-9.19-20.16,6.84-16.95Z"/>
</svg>