<?xml version="1.0" encoding="UTF-8"?>
<svg id="Calque_1" data-name="Calque 1" xmlns="http://www.w3.org/2000/svg" viewBox="0 0 700 700">
  <defs>
    <style>
      .cls-1 {
        fill: #fd9fbd;
      }

      .cls-2 {
        fill: #aac539;
      }

      .cls-3 {
        fill: #fff;
      }

      .cls-4 {
        fill: #fdf4a5;
      }

      .cls-5 {
        fill: #ff5f40;
      }
    </style>
  </defs>
  <path d="M513.23,137.65c-11.6-20.69-33.4-31.67-57.07-28.4-.63-.67,1.6-12.52,1.6-14.65-.16-47.77-58.63-73.53-92.67-39.93-1.19,1.17-2.73,4.75-4.52,4.56-3.51-3.14-6.63-7.07-10.43-9.85-36.68-26.96-87.48,5.15-84.65,48.97.23,3.63,1.71,7.22,1.61,10.89-23.34-3.02-46.23,7.64-57.79,28.21-8.91,15.87-10.69,36.28-4.38,53.4,6.17,16.71,21.99,30.9,39.8,33.43v73.49c-9.62-.82-15.29,9.77-9.81,17.54.74,1.05,3.13,2.73,3.36,3.6.27,1.08-1.5,4.53-1.54,6.31-.25,10.59,12.33,15.19,19.53,7.74,10.28,9.72,24.99-1.54,17.83-13.64,11.49-5.87,7.59-22.25-5.39-21.55v-42.6l7.18,10.65c10.29,11.86,25.03,18.32,40.76,18.63v311.31c-1.9,10.62.74,23.05-.53,33.54-1.01,8.44-16.87,7.13-23.27,10.28-9.65,4.75-9.1,17.21,1.31,20.71,8.68,2.92,25.8.26,33.84-4.22,10.02-5.58,12.09-15.55,13.17-26.22l-.05-349.42c.37-2.99,6.13-3.66,8.01-6.09,1.77,15.72,3.75,31.45,5.86,47.13.38,2.78.04,7.41,1.21,9.98,1.83,4.04,18.36,4,18.52,4.97l-.05,289.15c1.13,22.88,7.48,32.53,31.19,35.39,8.59,1.02,24.77,1.54,24.8-10.92.03-12.22-14.84-11.96-23.05-14.26-7.74-2.17-6.88-4.48-7.88-11.83v-290.23c.29-1.49,3.11-2.42,4.18-3.79,1.3-1.68,2.32-5,2.21-7.11h48.73c10.54-1.65,14.54-10.18,15.21-19.96l-.03-76.44c42.94-3.62,63.65-52.37,43.23-88.76ZM274.02,308.2c.6,5.99-8.29,4.63-8.97,7.52-.7,3,7.49,9.05,2.57,13.19-5.09,4.26-8.15-5.27-10.4-5.6-4.7-.67-5.21,8.42-11.19,5.91-7.38-3.1,5.09-12.03.82-15.18-1.98-1.46-11.08-1.94-6.29-7.94,2.2-2.76,11.64-.18,11.64-3.28v-77.48l9.58.53v76.94c0,.16,1.53,1.62,1.98,1.76,2.93.87,9.73-1.65,10.26,3.62ZM334.2,630.34c-.34,4.33-1.88,11.19-4.34,14.82-5.13,7.55-20.95,10.06-29.5,9.42-7.88-.59-11.03-6.14-2.91-9.34,5.94-2.32,16.86-2.12,21.48-6.2,3.34-2.96,3.86-8.34,4.6-12.45v-342.69s10.66-2.13,10.66-2.13v348.56ZM373.35,331.31c-1.95-.1-12.11-1.42-12.69-2.77l-8.86-71.52,1.06-.55,7.92,1.95.15,44.18c.05,3.13,2.31,5.8,5.34,6.32.23.03.46.05.7.07.98.07,3.1-1.13,3.45.23.15.56-2.61,4.79-2.95,6.62-2.03,10.93,8.52,15.25,17.51,11.7l1.94,2.44-.86.74c-4.29.04-8.39.82-12.71.59ZM354.12,251.38c.85-.3,5.86-1.32,6.18-1.01v3.73s-6.92-1.6-6.92-1.6c-.16-1.28-.03-.85.74-1.12ZM368.29,232.79l-4,1.6-.52-.53-10.39-27.67,4.53.52,10.37,26.08ZM362.43,205.64c3.93,0,9.04-2.62,12.27.79,3.77,3.99-5.75,8.41-9.02,8.22l-3.25-9.01ZM369.38,292.2c-.1,4.12-4.64,7.4-2.16,12.49h-2.66v-45.79l4.29.78.71.05c-.75,10.07.07,21.51-.18,32.47ZM369.35,255.17l-3.92-.08-.81-.79-.1-16.91,4.82-1.39v19.18ZM372.9,259.73c.79.4,1.64.23,2.55.26,3.54.1,8.18-.23,11.74-.57,4.57-.44,9.23-1.13,13.58-2.65l-3.19,29.29c-5.45-.66-9.21,1.57-12.5,5.66-3.66-1.46-8.11-2.36-11.74-.37-.25-.15-.37-.01-.44.23-.05-9.05-.71-19.83-.37-26.06.11-2.01-.2-6.14.37-5.8ZM373.08,249.3l14.39.53-.04,5.3-13.84.34-.51-6.17ZM404.2,290.35c-1.02-1.58-3.54-2.65-1.72-5.24.37-.52,9.25-1.52,11.07-1.99,13.12-3.4,24.51-12.6,31.95-23.68v38.87h-38.6l-.72-.89c.18-2.8-.48-4.78-1.98-7.07ZM402.9,247.71l-6.39-6.65c1.54-1.84,4.07-2.53,6.39-2.4v9.05ZM400.24,249.3h-8.52c-.14-2.12,1.12-4.23,2.4-5.86.83-.19,5.34,4.83,6.12,5.86ZM399.18,252.5c.01.76-1.64,1.06-2.24,1.23-1.02.29-4.46,1.15-4.95.4l-.26-1.62h7.45ZM372.9,291.62v1c0,.55-.15-.45,0-1ZM420.85,645.95c3.92,2.13,4.08,6.12-.4,7.82-6.59,2.53-24.79-.81-30.6-5.05-10.03-7.34-6.82-20.47-8.27-31.13l.25-281.51,10.96-2.09v291.57c0,1.84,1.09,8.09,1.86,9.85,3.82,8.83,19.31,6.78,26.21,10.54ZM463.08,303.89c0,.41-.71,3.78-.9,4.44-.91,3.21-2.88,6.07-6.12,7.19l-55.04.35c-3.93.74.9,11.71-6.39,11.23-4.8-.31-3.26-7.75-5.42-8.49-3.64-1.24-10.97,7.4-14.58,1.83-3.18-4.9,4.48-7.17,5.41-10.69.01-3.22-8.33-4.63-6.03-10.25,2.85-7,11.93,2.48,14.52,1.77,3.26-.9,1.06-8.31,6.63-8.35,6.03-.05,3.14,6.14,4.23,9.66,1.36,4.35,8.3,2.02,11.78,2.07,11.41.16,23.71,1.65,35.13.57,4.86-.45,6.27-3.17,6.66-7.71,1.58-18.54-.37-40.65-.04-59.69.03-1.57.61-3.02.6-4.78-.01-1.68-1.19-4.94-.34-6.16,1.02-1.47,7.89.72,9.88.04v76.94ZM481.86,217.77c-9,3.39-15.26,2.93-24.39,2.25-14.03-1.05-10.13,7.23-10.88,17.32-1.34,17.84-17.84,35.19-34.72,39.83-1.39.38-8.53,2.24-8.83.64l1.56-9.77c5.88-.66,11.37-2.96,14.37-8.26,9.34-16.48-10.4-33.47-25.39-22.19-2.83,2.13-3.86,5.23-5.94,7.9l-14.56-.45v-12.52l-5.32-13.04c6.74-1.01,16.16-7.41,11.63-15.11-1.12-1.91-4.34-3.81-6.55-4.08-5.47-.67-10.4,1.38-16.01,1.11-8.16-.41-24.23-6.52-29.46,2.44-7.33,12.57,18.48,18.22,26.56,17.47,3.11,7.94,7.77,15.27,6.31,24.19-.51.78-11.37,1.8-13.2,4.65-1.86,2.91,1.95,13.01.91,16.88-.57,1.84-11.32,7.36-13.61,8.23-28.42,10.81-62.04-8.18-64.56-39.02-.3-3.59.82-12.41-1.58-14.93-1.95-2.05-13.34-1.47-16.79-1.84-62.38-6.67-58.39-105.35,11.72-104.39,3.22.04,6.22,1.82,9.01-1.6,3.56-4.38-.45-12.38-.63-17.43-1.43-39.45,47.87-66.66,78.49-38.82,4.72,4.3,8.41,13.12,16.13,6.44,4.11-3.54,6.2-7.4,11.57-10.78,33.22-20.98,76.27,6.22,73.65,44.89-.31,4.71-3.85,12.68.25,16.28,2.91,2.55,4.07,1.02,6.93,1.01,18.59-.08,31.31,2.88,43.69,17.59,22.95,27.26,13.62,72.27-20.37,85.09ZM407.69,249.3l6.65-5.86,2.4,5.86h-9.05ZM413.82,258.88l-6.13-6.39h9.05c.55.52-1.72,5.87-2.92,6.39ZM407.87,245.51c-.61.63-1.39,1.83-2.31,1.67v-8.52c2.36-.26,4.59.98,6.39,2.4-1.58,1.24-2.74,3.08-4.08,4.45ZM411.95,260.75c-1.67,1.72-3.94,2.17-6.14,2.84-.53-4.5.12-7.48-.25-8.97l6.39,6.13ZM351.77,215.75c-4.63.52-20.46-2.5-20.77-8.3-.3-5.79,14.8-3.33,18.13-2.33-1.45,3.64,1.99,7.06,2.65,10.63Z"/>
  <polygon class="cls-1" points="387.46 249.83 387.42 255.13 373.58 255.47 373.08 249.3 387.46 249.83"/>
  <path class="cls-3" d="M360.3,250.37v3.73s-6.92-1.6-6.92-1.6c-.16-1.28-.03-.85.74-1.12.85-.3,5.86-1.32,6.18-1.01Z"/>
  <path class="cls-1" d="M400.77,256.77l-3.19,29.29c-5.45-.66-9.21,1.57-12.5,5.66-3.66-1.46-8.11-2.36-11.74-.37-.25-.15-.37-.01-.44.23-.05-9.05-.71-19.83-.37-26.06.11-2.01-.2-6.14.37-5.8.79.4,1.64.23,2.55.26,3.54.1,8.18-.23,11.74-.57,4.57-.44,9.23-1.13,13.58-2.65Z"/>
  <path class="cls-1" d="M386.92,329.99l-.86.74c-4.29.04-8.39.82-12.71.59-1.95-.1-12.11-1.42-12.69-2.77l-8.86-71.52,1.06-.55,7.92,1.95.15,44.18c.05,3.13,2.31,5.8,5.34,6.32.23.03.46.05.7.07.98.07,3.1-1.13,3.45.23.15.56-2.61,4.79-2.95,6.62-2.03,10.93,8.52,15.25,17.51,11.7l1.94,2.44Z"/>
  <path class="cls-4" d="M411.95,260.75c-1.67,1.72-3.94,2.17-6.14,2.84-.53-4.5.12-7.48-.25-8.97l6.39,6.13Z"/>
  <path class="cls-2" d="M369.38,292.2c-.1,4.12-4.64,7.4-2.16,12.49h-2.66v-45.79l4.29.78.71.05c-.75,10.07.07,21.51-.18,32.47Z"/>
  <path class="cls-5" d="M373.08,232.53l-5.33-13.04c6.74-1.01,16.15-7.4,11.64-15.1-1.13-1.92-4.35-3.82-6.56-4.09-5.47-.67-10.39,1.38-16.01,1.1-8.15-.41-24.22-6.52-29.45,2.45-7.33,12.56,18.48,18.21,26.57,17.47,3.11,7.94,7.76,15.27,6.3,24.18-.5.78-11.36,1.8-13.19,4.65-1.86,2.91,1.94,13.02.91,16.89-.57,1.84-11.31,7.35-13.6,8.23-28.43,10.81-62.05-8.18-64.57-39.02-.29-3.59.82-12.41-1.58-14.93-1.95-2.04-13.34-1.47-16.79-1.84-62.37-6.68-58.39-105.35,11.73-104.39,3.22.04,6.22,1.82,9.01-1.6,3.56-4.37-.45-12.38-.63-17.44-1.43-39.45,47.88-66.66,78.49-38.81,4.72,4.29,8.4,13.11,16.13,6.44,4.11-3.54,6.2-7.4,11.57-10.79,33.22-20.98,76.27,6.23,73.66,44.9-.32,4.71-3.85,12.68.24,16.28,2.91,2.55,4.06,1.02,6.93,1.01,18.6-.07,31.32,2.88,43.7,17.59,22.95,27.27,13.62,72.29-20.36,85.09-9,3.39-15.26,2.94-24.39,2.26-14.03-1.05-10.13,7.24-10.89,17.32-1.33,17.84-17.84,35.19-34.72,39.83-1.39.38-8.54,2.23-8.83.64l1.56-9.78c5.87-.65,11.36-2.96,14.37-8.26,9.33-16.46-10.41-33.47-25.38-22.19-2.83,2.13-3.86,5.23-5.94,7.9l-14.56-.45v-12.51ZM345.6,91.46c-13.06-11.72-27.77-5.2-36.12,8.25-10.44,16.82-11.89,43.58-6.44,62.27,9.37,32.12,38.14,40.81,53.09,7.27l4.69-14.2c1.58,19.16,20.95,48.47,42.08,31.16,17.58-14.4,20.36-50.87,14.22-71.22-9.37-31.09-35.34-42.38-51.76-8.92l-5.07,15.42c-1.44-10.63-6.62-22.79-14.7-30.04Z"/>
  <path class="cls-5" d="M334.2,630.34c-.34,4.33-1.89,11.2-4.35,14.82-5.12,7.55-20.95,10.07-29.49,9.43-7.88-.59-11.04-6.15-2.91-9.34,5.93-2.32,16.86-2.12,21.48-6.21,3.34-2.95,3.86-8.34,4.6-12.44v-342.69s10.66-2.13,10.66-2.13v348.55Z"/>
  <path class="cls-5" d="M392.78,333.98v291.57c0,1.85,1.1,8.1,1.86,9.85,3.82,8.84,19.32,6.79,26.21,10.54,3.92,2.13,4.08,6.12-.39,7.83-6.6,2.52-24.79-.81-30.6-5.06-10.03-7.34-6.83-20.48-8.28-31.13l.26-281.51,10.95-2.1Z"/>
  <path class="cls-5" d="M463.08,226.94v76.95c0,.41-.7,3.77-.89,4.43-.92,3.2-2.88,6.07-6.12,7.19l-55.03.36c-3.94.73.9,11.71-6.39,11.24-4.81-.32-3.26-7.76-5.41-8.49-3.65-1.24-10.98,7.39-14.59,1.82-3.17-4.9,4.49-7.16,5.42-10.69,0-3.21-8.33-4.62-6.04-10.25,2.85-7,11.94,2.48,14.53,1.77,3.26-.9,1.06-8.31,6.63-8.35,6.04-.05,3.14,6.15,4.24,9.67,1.36,4.35,8.29,2.03,11.77,2.08,11.42.16,23.71,1.65,35.14.58,4.86-.45,6.26-3.17,6.66-7.72,1.59-18.53-.36-40.64-.04-59.69.03-1.56.61-3.02.6-4.78s-1.18-4.94-.34-6.15c1.03-1.48,7.89.72,9.88.04Z"/>
  <path class="cls-5" d="M261.78,225.87v76.95c0,.16,1.52,1.62,1.97,1.75,2.94.88,9.74-1.65,10.27,3.62.6,5.99-8.29,4.62-8.97,7.52s7.48,9.05,2.56,13.18-8.14-5.27-10.39-5.59c-4.7-.67-5.22,8.42-11.2,5.91-7.38-3.1,5.09-12.03.81-15.19-1.97-1.45-11.08-1.93-6.29-7.94,2.2-2.76,11.64-.18,11.64-3.27v-77.48l9.59.53Z"/>
  <path class="cls-3" d="M349.12,205.11c-1.44,3.64,2,7.06,2.66,10.64-4.64.51-20.47-2.5-20.78-8.3s14.79-3.33,18.12-2.34Z"/>
  <polygon class="cls-2" points="368.29 232.79 364.29 234.38 363.77 233.85 353.38 206.18 357.91 206.7 368.29 232.79"/>
  <path class="cls-3" d="M365.68,214.65l-3.25-9.01c3.94-.01,9.03-2.63,12.27.79,3.77,3.98-5.74,8.4-9.02,8.22Z"/>
  <polygon class="cls-2" points="369.35 235.99 369.35 255.17 365.43 255.09 364.63 254.3 364.53 237.39 369.35 235.99"/>
  <polygon class="cls-3" points="365.43 255.09 364.55 255.1 364.53 237.39 364.63 254.3 365.43 255.09"/>
  <path class="cls-4" d="M402.9,238.66v9.05l-6.38-6.66c1.54-1.83,4.05-2.52,6.38-2.4Z"/>
  <path class="cls-4" d="M413.82,258.88l-6.13-6.39h9.05c.55.52-1.72,5.87-2.92,6.39Z"/>
  <path class="cls-4" d="M411.95,241.06c-1.58,1.24-2.74,3.08-4.08,4.45-.61.63-1.39,1.83-2.31,1.67v-8.52c2.36-.26,4.59.98,6.39,2.4Z"/>
  <path class="cls-4" d="M400.24,249.31h-8.52c-.13-2.11,1.12-4.23,2.41-5.86.83-.19,5.34,4.84,6.11,5.86Z"/>
  <polygon class="cls-4" points="416.74 249.3 407.69 249.3 414.34 243.45 416.74 249.3"/>
  <path class="cls-1" d="M360.3,250.37v3.73s-6.92-1.6-6.92-1.6c-.16-1.28-.03-.85.74-1.12.85-.3,5.86-1.32,6.18-1.01Z"/>
  <path class="cls-4" d="M399.17,252.5c.02.76-1.64,1.06-2.24,1.23-1.03.29-4.47,1.14-4.96.39l-.26-1.61h7.46Z"/>
  <path d="M345.6,91.46c8.08,7.25,13.26,19.41,14.7,30.04l5.07-15.42c16.41-33.46,42.38-22.17,51.76,8.92,6.13,20.35,3.36,56.82-14.22,71.22-21.13,17.31-40.51-12-42.08-31.16l-4.69,14.2c-14.95,33.53-43.72,24.84-53.09-7.27-5.45-18.69-4-45.45,6.44-62.27,8.35-13.45,23.06-19.96,36.12-8.25ZM328.75,91.28c-17.74,2.54-23.78,35.33-23.32,49.67.45,14.08,7.85,44.8,26.4,43.94,17.83-.83,24.98-33.18,24.77-47.18-.21-14.38-7.74-49.32-27.84-46.43ZM386.78,91.8c-5.39,1.02-10.92,7.44-13.6,11.96-10.82,18.23-10.9,51-.33,69.35,8.14,14.12,21.52,17.55,31.55,2.88,13.13-19.22,13.1-56.04-.32-75.11-3.95-5.61-9.91-10.47-17.3-9.08Z"/>
  <path class="cls-3" d="M328.75,91.28c20.1-2.88,27.63,32.05,27.84,46.43.2,14-6.94,46.35-24.77,47.18-18.54.87-25.94-29.86-26.4-43.94-.46-14.34,5.58-47.13,23.32-49.67ZM331.93,103.52c-22.61,3.85-22.67,66.71,0,70.57,14.71,2.51,21.48-18.09,22.44-29.5,1.12-13.39-3.13-44.37-22.44-41.08Z"/>
  <path class="cls-3" d="M386.78,91.8c7.39-1.39,13.35,3.46,17.3,9.08,13.42,19.07,13.45,55.89.32,75.11-10.03,14.68-23.41,11.24-31.55-2.88-10.58-18.35-10.49-51.12.33-69.35,2.68-4.52,8.21-10.94,13.6-11.96ZM389.45,104.58c-14.49,2.47-17.75,29.66-16.92,41.17.72,10.05,6.9,29.83,19.46,29.58,15.74-.32,20.52-26.58,20-38.67-.51-11.78-6.98-34.72-22.53-32.07Z"/>
  <path d="M336.04,105.57c19.31-3.29,23.56,27.69,22.44,41.08-.95,11.4-7.73,32.01-22.44,29.5-22.67-3.86-22.61-66.72,0-70.57Z"/>
  <path d="M393.55,106.63c15.55-2.65,22.02,20.29,22.53,32.07.52,12.09-4.25,38.36-20,38.67-12.55.25-18.73-19.52-19.46-29.58-.83-11.51,2.43-38.7,16.92-41.17Z"/>
</svg>