<?xml version="1.0" encoding="UTF-8"?>
<svg id="Calque_1" data-name="Calque 1" xmlns="http://www.w3.org/2000/svg" viewBox="0 0 700 700">
  <defs>
    <style>
      .cls-1 {
        stroke-width: 5.8px;
      }

      .cls-1, .cls-2, .cls-3, .cls-4 {
        stroke: #000;
        stroke-miterlimit: 10;
      }

      .cls-1, .cls-4 {
        fill: #fff;
      }

      .cls-2 {
        stroke-width: 5.94px;
      }

      .cls-2, .cls-5 {
        fill: #ff5f40;
      }

      .cls-3 {
        stroke-width: .83px;
      }

      .cls-4 {
        stroke-width: .82px;
      }
    </style>
  </defs>
  <path d="M462.17,293.41l.03-78.01c-1.92.19-3.9.28-5.91.28-.25,0-.53-.01-.84-.04v82.45c0,4.66,13.14-1.51,14.25,5.96.97,6.6-8.47,3.94-9.26,8.07-.39,1.98,2.04,3.42,3.01,4.88,5.14,7.91-1.83,13.25-7.34,7.33-1.4-1.49-1.88-4.05-4.48-4.05-2.93,0-3.13,3.12-4.7,4.73-3.77,3.88-9.18,1.69-8.48-3.98.46-3.67,5.96-7.59,2.91-10.63-1.4-1.36-3.55-.66-5.32-.97-6.04-1.09-5.59-8.45.41-9.28,3.18-.43,7.3,1.34,8.67-2.51v-83.03c-.39.06-.71.16-.95.32-2.86,1.85-1.32,9.08-1.64,12.45-.31,3.38-.92,6.62-1.8,9.73v.02c-.76,2.61-1.68,5.13-2.77,7.54v48.74c-13.78-.97-18.2,18.19-4.48,21.97-7.01,12.64,8.25,24.95,18.15,13.88,2.4,1.69,4.11,3.59,7.2,4,10.91,1.46,16.77-9.16,11.02-18.13,12.46-6.93,5.92-23.66-7.68-21.72ZM419.58,655.5c-5.18-6.51-16.42-6.06-23.74-8.52-6.44-2.16-4.81-5.96-5.84-11.63l.02-358.87c-2.39.04-4.79-.11-7.18-.44v358.84c.72,4.62.35,9.46,3.01,13.55,4.44,6.74,17.25,6.41,24.34,8.85,5.88,2.04,7.28,7.75.46,9.44-7.74,1.92-25.68-1.09-32.06-6.06-8.93-6.95-6.45-22.57-7.86-32.49v-355.4c-2.18-.91-4.32-1.98-6.43-3.25-.25-.15-.5-.3-.75-.47v358.67c1.3,12.29-.51,29.1,10.19,37.79,8.71,7.07,31.01,11.34,41.22,6.87,6.95-3.04,9.55-10.67,4.62-16.88ZM328.63,269.66c-1.7.91-3.42,1.71-5.18,2.43-.52.21-1.04.42-1.57.61-.6,89.77.15,179.83.05,269.81-.04,27.1.2,54.47-.5,81.58-.29,10.54,1.61,29.99-7.84,37.02-6.25,4.65-27.16,8.69-33.78,4.67-2.27-1.39-2.6-4.42-.79-6.32,4.07-4.22,18.42-4.02,24.71-7.77,5.22-3.14,5.2-8.71,6.07-14.13.04-120.78.06-241.34,0-361.92-.68.09-1.35.16-2.03.21-1.58.14-3.16.2-4.73.2-.17,120.94.59,241.96-.42,362.87-.91,5.61-.97,6.72-6.46,8.35-8.72,2.56-23.97,2.25-25.26,14.17-.5,4.75,2.86,8.89,6.91,10.81,8.18,3.92,26.27,1.2,34.55-2.53,16.62-7.55,15.28-24.65,16.29-40.21l-.02-359.85ZM252.72,293.32l-.74-.59v-56.25c-.48-1.97-.85-4.02-1.12-6.12-.13-.8-.2-1.58-.27-2.39-.25-2.78.66-11.72-1.03-13.07-.36-.27-2.27-.45-4.76-.6l.02,82.43c.93,5.03,5.53,2.93,9.14,3.42,5.96.85,5.96,7.86-.08,9.28-1.86.46-4-.43-4.87,2.34-.89,2.99,3.49,6,3.84,9.26.45,4.16-3.14,7.22-7.02,5.17-2.84-1.48-3.77-5.92-6.62-5.92-3.96,0-3.28,7.45-10.19,6.17-4.04-.72-3.3-5.53-1.92-8.39.99-2.11,3.74-3.84,3.08-6.19-1.08-3.92-9.47-1.12-8.67-7.9.77-6.36,9.45-2.25,12.34-4.75.25-.22,1.11-1.38,1.11-1.56v-83.78c-2.31-.11-4.3-.25-5.4-.47-.65-.12-1.3-.26-1.94-.41l.16,80.41c-13.38-1.12-17.8,15.2-6.35,21.72-6.95,9.84,3.28,22.65,14.27,16.91,1.51-.78,2.5-2.06,3.96-2.78,6.94,8.62,21,2.95,19.95-8.29-.2-2.09-1.48-3.99-1.79-6.03,12.29-4.78,7.94-22.07-5.1-21.62Z"/>
  <path class="cls-5" d="M410.65,666.72c-7.74,1.92-25.68-1.09-32.06-6.06-8.93-6.95-6.45-22.57-7.86-32.49v-355.4c1.22.51,2.45.96,3.7,1.37,1.98.63,3.96,1.15,5.99,1.51.81.15,1.61.28,2.42.39v358.84c.72,4.62.35,9.46,3.01,13.55,4.44,6.74,17.25,6.41,24.34,8.85,5.88,2.04,7.28,7.75.46,9.44Z"/>
  <path class="cls-5" d="M321.43,624.09c-.29,10.54,1.61,29.99-7.84,37.02-6.25,4.65-27.16,8.69-33.78,4.67-2.27-1.39-2.6-4.42-.79-6.32,4.07-4.22,18.42-4.02,24.71-7.77,5.22-3.14,5.2-8.71,6.07-14.13.04-120.78.06-241.34,0-361.92,1.19-.15,2.38-.34,3.57-.57,2.88-.54,5.72-1.33,8.51-2.37-.6,89.77.15,179.83.05,269.81-.04,27.1.2,54.47-.5,81.58Z"/>
  <path class="cls-5" d="M460.44,312.12c-.39,1.98,2.04,3.42,3.01,4.88,5.14,7.91-1.83,13.25-7.34,7.33-1.4-1.49-1.88-4.05-4.48-4.05-2.93,0-3.13,3.12-4.7,4.73-3.77,3.88-9.18,1.69-8.48-3.98.46-3.67,5.96-7.59,2.91-10.63-1.4-1.36-3.55-.66-5.32-.97-6.04-1.09-5.59-8.45.41-9.28,3.18-.43,7.3,1.34,8.67-2.51v-83.03c2.44-.39,7.45.8,10.33,1.03v82.45c0,4.66,13.14-1.51,14.25,5.96.97,6.6-8.47,3.94-9.26,8.07Z"/>
  <path class="cls-5" d="M253.88,309.43c-1.86.46-4-.43-4.87,2.34-.89,2.99,3.49,6,3.84,9.26.45,4.16-3.14,7.22-7.02,5.17-2.84-1.48-3.77-5.92-6.62-5.92-3.96,0-3.28,7.45-10.19,6.17-4.04-.72-3.3-5.53-1.92-8.39.99-2.11,3.74-3.84,3.08-6.19-1.08-3.92-9.47-1.12-8.67-7.9.77-6.36,9.45-2.25,12.34-4.75.25-.22,1.11-1.38,1.11-1.56v-83.78c3.12.16,6.83.25,9.74.41.03,0,.07,0,.1.01l.02,82.43c.93,5.03,5.53,2.93,9.14,3.42,5.96.85,5.96,7.86-.08,9.28Z"/>
  <path class="cls-2" d="M500.26,118.64c-12.54-15.61-27.63-20.96-47.34-20.52-2.15.05-5.48,1.78-7.09-.25-1.56-1.98,1.27-12.26,1.39-15.51,1.79-48.02-54.52-75.21-90.64-42.31-2.28,2.08-4.47,6.75-7.7,6.75-2.61,0-6.45-5.7-8.72-7.77-10.11-9.21-24.38-14.34-38.08-13.22-29.7,2.5-51.66,29.8-49.59,59.26.32,4.72,4.86,13.73-2.29,13.8-1.54.03-3.08-.73-4.72-.75-71.63-1.64-81.66,100.65-17.86,114.88.64.15,1.29.29,1.94.41,1.1.22,3.09.36,5.4.47,3.12.16,6.83.25,9.74.41.03,0,.07,0,.1.01,2.49.15,4.4.33,4.76.6,1.69,1.35.78,10.29,1.03,13.07.07.81.14,1.59.27,2.39.27,2.1.64,4.15,1.12,6.12,1.46,6.06,3.91,11.53,7.11,16.33,1.78,2.67,3.76,5.16,5.98,7.4,9.88,10.12,23.7,15.81,37.97,15.84,1.57,0,3.15-.06,4.73-.2.68-.05,1.35-.12,2.03-.21,1.19-.15,2.38-.34,3.57-.57,2.88-.54,5.72-1.33,8.51-2.37.53-.19,1.05-.4,1.57-.61,1.76-.72,3.48-1.52,5.18-2.43.16-.08.33-.17.49-.26,3.23-1.76,6.35-3.89,9.33-6.4,2.22-1.86,5.82-6.99,8.4-7.13,3.42-.2,8.51,7.1,11.44,9.45l.02.02c1.69,1.38,3.46,2.61,5.24,3.71.25.17.5.32.75.47,2.11,1.27,4.25,2.34,6.43,3.25,1.22.51,2.45.96,3.7,1.37,1.98.63,3.96,1.15,5.99,1.51.81.15,1.61.28,2.42.39,2.39.33,4.79.48,7.18.44,10.9-.11,21.58-3.83,30.46-10.31,2.1-1.53,4.1-3.22,5.98-5.05,3.3-3.25,6.21-6.92,8.62-10.97,1.07-1.75,2.03-3.58,2.88-5.48,1.09-2.41,2.01-4.93,2.77-7.54v-.02c.88-3.11,1.49-6.35,1.8-9.73.32-3.37-1.22-10.6,1.64-12.45.24-.16.56-.26.95-.32,2.44-.39,7.45.8,10.33,1.03.31.03.59.04.84.04,2.01,0,3.99-.09,5.91-.28,46.32-4.4,67.39-60.15,38.06-96.76Z"/>
  <path class="cls-1" d="M347.89,125.49c0,28.71-13.2,52-29.48,52s-29.47-23.29-29.47-52,13.19-52,29.47-52,29.48,23.29,29.48,52Z"/>
  <path class="cls-1" d="M408.39,125.49c0,28.71-13.19,52-29.47,52s-29.48-23.29-29.48-52,13.2-52,29.48-52,29.47,23.29,29.47,52Z"/>
  <ellipse cx="324.34" cy="126.37" rx="21.15" ry="37.31"/>
  <ellipse cx="385.15" cy="126.37" rx="21.15" ry="37.31"/>
  <g>
    <path class="cls-3" d="M383.12,192.38c-10.62-5.66-22.83,1.37-33.97,1.79-11.35.4-21.17-5.2-31.75-3.74-8.81,1.2-12.52,8.1-8.75,14.51,10.73,18.28,66.07,19.33,77.52.56,2.93-4.83,2.91-9.94-3.05-13.12ZM318.68,208.9c-3.18-.95-7.36-5.91-7.74-8.62-.84-6.11,7.49-7.3,13.41-6.7.58.47-3.11,11.07-3.71,12.62-.31.75-.72,3.08-1.96,2.69ZM344.69,215.55c-4.76-.16-9.59-.98-14.23-1.92-3.47-.7-6.64-1.13-6.13-2.74,1.18-3.61,4.15-12.26,5.47-16.2l14.89,2.74v18.12ZM349.44,215.55v-18.12l14.95-2.5,6.66,16.45c-.68,2.33-18.33,4.79-21.61,4.17ZM376.21,209.51l-6.44-15.92c17-2.01,18.42,9.12,6.44,15.92Z"/>
    <path class="cls-4" d="M376.21,208.9l-6.44-15.42c17-1.94,18.42,8.84,6.44,15.42Z"/>
    <path class="cls-4" d="M320.64,205.72c-.31.73-.72,2.98-1.96,2.61-3.18-.92-7.36-5.73-7.74-8.35-.85-5.92,7.49-7.07,13.41-6.49.58.45-3.11,10.73-3.71,12.23Z"/>
    <path class="cls-4" d="M371.05,210.72c-.68,2.27-18.34,4.64-21.62,4.05v-17.56l14.96-2.43,6.66,15.94Z"/>
    <path class="cls-4" d="M344.69,197.2v17.56c-4.77-.16-9.59-.95-14.23-1.86-3.47-.68-6.64-1.1-6.13-2.65,1.18-3.5,4.15-11.88,5.47-15.7l14.89,2.65Z"/>
  </g>
</svg>