<?xml version="1.0" encoding="UTF-8"?>
<svg id="Calque_1" data-name="Calque 1" xmlns="http://www.w3.org/2000/svg" viewBox="0 0 700 700">
  <defs>
    <style>
      .cls-1 {
        fill: #fff;
      }

      .cls-2 {
        fill: #ff5f40;
      }
    </style>
  </defs>
  <path class="cls-1" d="M235.65,230.86v78.91c-13.69-.92-18.85,15.35-7.58,22.92-6.24,13.84,8.01,26.03,19.73,15.23,12.05,10.25,26.27-1.51,19.53-15.58,12.79-5.02,7.76-23.16-5.55-22.66l-.89-.72v-45.9c1.27-.26.86.16,1.2.69,4.5,6.98,6.77,12.4,13.57,18.08,10.53,8.8,23.24,12.87,36.78,14.28v340.87c-.66,2.66-1.46,4.05-3.95,5.18-8.36,3.8-27.72,2.03-28.32,15.73-.82,18.74,31.96,13.09,42.59,8.74,15.51-6.35,16.46-21.33,17.05-36.08l.33-341.24c7.61-3.26,13.24-9.16,19.25-14.46,5.74,4.13,9.77,10.24,16.26,13.55l.09,335.7c1.51,15.79-1,33.04,15.77,41.14,10.17,4.91,35.16,10.26,43.05-.08,3.5-4.58,2.48-11.1-1.6-15.07-6-5.83-17.39-4.81-24.73-8.02-5.39-2.35-4.03-6.63-5.08-11.56l.23-334.2.65-.43c16.25.35,31.44-7.21,42.6-18.59l6.98-9.4v41.87c-14.31-1.34-18.74,18.52-5.37,23.09-6.6,14.05,8.38,25.05,20.06,15.06,11.26,10.46,26.82-1.76,19.17-15.28,11.89-7.42,6.18-24.28-7.75-22.94l-.8-.81-.08-76.42c47.42-3.77,70.34-56.54,47.68-96.79-12.37-21.98-36.49-33.63-61.63-29.9,2.84-15.48,2.44-30.46-5.09-44.57-18.13-33.93-62.43-42.53-91.01-15.83-1.6,1.49-4.92,6.38-6.68,6.21-1.84-.18-5.07-5.19-6.45-6.5-39.07-37.34-101.51-1.16-97.47,49.71.15,1.87,2.58,10.36,1.58,10.94-11.73-1.34-23.39-.1-34.14,4.78-33.75,15.34-46.96,60.55-29.06,92.59,7.98,14.28,22.74,25.43,39.08,27.75Z"/>
  <path d="M235.65,230.86c-16.34-2.32-31.1-13.47-39.08-27.75-17.9-32.05-4.69-77.25,29.06-92.59,10.75-4.89,22.4-6.13,34.14-4.78.99-.58-1.44-9.07-1.58-10.94-4.04-50.87,58.4-87.05,97.47-49.71,1.38,1.32,4.61,6.32,6.45,6.5,1.76.17,5.08-4.72,6.68-6.21,28.59-26.7,72.88-18.09,91.01,15.83,7.54,14.1,7.93,29.09,5.09,44.57,25.14-3.73,49.25,7.92,61.63,29.9,22.66,40.25-.25,93.02-47.68,96.79l.08,76.42.8.81c13.94-1.33,19.64,15.52,7.75,22.94,7.65,13.52-7.91,25.75-19.17,15.28-11.68,9.99-26.66-1.01-20.06-15.06-13.38-4.57-8.94-24.43,5.37-23.09v-41.87l-6.98,9.4c-11.16,11.38-26.35,18.95-42.6,18.59l-.65.43-.23,334.2c1.06,4.93-.31,9.21,5.08,11.56,7.34,3.21,18.73,2.18,24.73,8.02,4.07,3.96,5.1,10.48,1.6,15.07-7.89,10.34-32.88,4.99-43.05.08-16.76-8.09-14.26-25.35-15.77-41.14l-.09-335.7c-6.49-3.31-10.52-9.42-16.26-13.55-6.01,5.3-11.64,11.2-19.25,14.46l-.33,341.24c-.59,14.75-1.55,29.73-17.05,36.08-10.63,4.35-43.4,10.01-42.59-8.74.6-13.7,19.95-11.94,28.32-15.73,2.49-1.13,3.29-2.52,3.95-5.18v-340.87c-13.54-1.41-26.25-5.48-36.78-14.28-6.8-5.68-9.07-11.1-13.57-18.08-.34-.53.06-.95-1.2-.69v45.9l.89.72c13.32-.5,18.34,17.64,5.55,22.66,6.74,14.07-7.48,25.83-19.53,15.58-11.71,10.8-25.96-1.39-19.73-15.23-11.27-7.57-6.12-23.84,7.58-22.92v-78.91ZM349.27,48.53c-34.75-31.06-87.92,2.47-84.09,46.78.43,4.94,3.62,10.8-.26,15.32-3.51,4.1-8.61,1.27-12.88,1.04-58.98-3.18-79.61,90.09-23.21,110.7,10.63,3.89,17.09,2.09,27.47,3.13,9.28.93,6.24,11.27,6.73,17.97,3.04,41.73,53.82,58.86,85.35,32.23,4.54-3.83,6.83-9.66,14.06-7.09,3.78,1.35,5.91,5.32,8.73,7.91,30.01,27.6,80.26,6.3,83.49-33.05.4-4.89-1.52-14.14,3.25-17.15,3.95-2.49,7.49-.47,11.52-.3,20.81.91,38.75-7.57,49.87-25.27,22.95-36.51.12-87.74-44.49-89.09-6.13-.19-17.16,4.3-16.98-6.15.12-7.03,2.17-13.09,1.65-20.93-2.83-42.45-53.67-63.47-85.83-34.31-3.14,2.85-5.59,7.91-10.54,8.28-6.97.52-9.51-6.13-13.86-10.03ZM253.37,315.41v-82.67c-2.85-1.98-6.82.26-10.2-.81l-.11,83.36c-1.35,4.7-13.35-1.55-13.36,6.55,0,6.38,7.58,2.81,8.53,7.1s-8.27,11.14-2.35,14.67c5.59,3.33,7.47-4.12,9.66-5.44,5.42-3.25,5.62,3.74,8.69,5.34,2.32,1.21,5.66,1.05,6.77-1.68,2.19-5.4-4.88-9.16-3.79-12.89s10.51-1.47,10.01-7.5c-.6-7.2-12.7-1.97-13.86-6.04ZM471.32,232.47c-1.96.55-8.34-1.59-9.43-.03l-.24.84-.64,82.03c-1.24,4.13-12.84-.77-13.3,6.04-.49,7.13,9.16,3.33,10.5,7.74,1.12,3.69-5.78,7.35-3.57,12.67,1.4,3.39,6.19,3.4,8.34.74s.69-5.38,5.94-4.85c2.64.27,2.3,2.54,3.77,4.3,3.36,4.01,9.76,3.01,8.79-3.42-.52-3.46-5.23-6.16-4.72-9.03.8-4.49,10.9-1.78,9.49-8.59-1.4-6.76-14.94-1.05-14.94-6.03v-82.4ZM395.6,295.31l-11.78-2.71v341.68c1.14,19.72,6.95,26.09,26.63,28.66,3.66.48,18.44,1.87,18.5-3.95.07-6.66-17.1-7.66-22.05-9.14-10.32-3.1-10.47-9.07-11.27-18.79l-.03-335.75ZM332.28,293.13l-11.83,2.45v340.3c-1.56,17.08-14.49,13.31-26.28,17.19-9.32,3.07-7.45,9.63,1.88,10.46,7.32.65,23.75-2.07,29.21-7.28,5.12-4.89,6.01-13.73,7.01-20.36v-342.76Z"/>
  <path class="cls-2" d="M349.27,48.53c4.36,3.89,6.89,10.54,13.86,10.03,4.94-.37,7.39-5.43,10.54-8.28,32.16-29.16,83-8.15,85.83,34.31.52,7.84-1.53,13.9-1.65,20.93-.18,10.45,10.85,5.97,16.98,6.15,44.61,1.35,67.43,52.58,44.49,89.09-11.12,17.7-29.06,26.18-49.87,25.27-4.03-.18-7.57-2.19-11.52.3-4.77,3-2.85,12.26-3.25,17.15-3.23,39.35-53.49,60.65-83.49,33.05-2.82-2.59-4.94-6.56-8.73-7.91-7.23-2.58-9.52,3.25-14.06,7.09-31.53,26.63-82.31,9.51-85.35-32.23-.49-6.7,2.56-17.04-6.73-17.97-10.38-1.04-16.84.76-27.47-3.13-56.4-20.62-35.78-113.89,23.21-110.7,4.27.23,9.37,3.06,12.88-1.04,3.87-4.52.68-10.39.26-15.32-3.83-44.31,49.34-77.84,84.09-46.78ZM352.6,94.43c.71-3.35-.62-4.84-2.89-6.88-14.22-12.83-36.3-4.48-46.42,9.38-1.73,2.36-5.99,9.22-2.41,11.03,1.23-.02,8.66-8.47,10.46-9.96,9.1-7.54,20.38-10.8,31.82-6.57,1.82.67,8.22,4.94,9.44,3.01ZM426.71,110.56c2.75-1.89-3.35-11.18-4.79-13.09-9.48-12.62-27.76-20.38-42.35-11.24-1.76,1.1-6.83,5.23-4.93,7.51,1.78,2.14,7.76-1.48,10.26-2.18,12.88-3.6,23.88,1.47,32.77,10.7,1.64,1.71,4.72,6.61,6.03,7.65.8.64,2.01.84,3.01.65ZM427.3,138.52c4.25.19,7.2-1.4,2.26-4.14-13.68-7.58-43.9-9.13-58.63-4.19-5.23,1.76-5.97,3.69-6.43,9.14-1.57,18.49,5.47,52.88,28.23,55.5,25.61,2.95,36.89-36.58,34.56-56.31ZM314.99,127.95c-2.91.19-6.24.59-9.13,1.07-2.46.41-13.37,2.49-13.8,5.02.34,2.03,2.69,1.96,4.27,2.06l.46.61c-1.26,11.77.16,25.08,4.8,35.99,13.82,32.55,44.06,27.76,54.45-4.25,2.32-7.13,4.7-23.89,2.71-30.87-1.44-5.06-11.51-6.92-16.27-7.93-9.09-1.93-18.2-2.33-27.49-1.72ZM426.61,189.63c-3.89,1.15-1.22,6.79-1.52,9.77-1.61,15.88-37.24,24.41-50.2,26.03-4.79.6-9.64.38-14.4,1.16-6.76.85-16.74-1.22-23.09-.01-3.99.76-4.56,6.97,1.57,7.53,22.3,2.05,57.08-2.57,76.88-13.35,1.25-.68,6.05-4.27,6.43-4.33.74-.12,1.5,1.57,3.97.78,3.51-1.12,6.13-10.56,6.44-13.97.34-3.87.21-15.47-6.08-13.61Z"/>
  <path class="cls-2" d="M395.6,295.31l.03,335.75c.8,9.72.95,15.69,11.27,18.79,4.95,1.49,22.12,2.49,22.05,9.14-.06,5.82-14.84,4.43-18.5,3.95-19.69-2.57-25.49-8.94-26.63-28.66v-341.68s11.78,2.71,11.78,2.71Z"/>
  <path class="cls-2" d="M332.28,293.13v342.76c-1.01,6.64-1.9,15.48-7.02,20.36-5.45,5.21-21.89,7.93-29.21,7.28-9.33-.83-11.2-7.39-1.88-10.46,11.79-3.88,24.72-.11,26.29-17.19v-340.3s11.82-2.45,11.82-2.45Z"/>
  <path class="cls-2" d="M471.32,232.47v82.4c0,4.98,13.54-.73,14.94,6.03,1.41,6.81-8.68,4.1-9.49,8.59-.51,2.87,4.2,5.58,4.72,9.03.97,6.43-5.43,7.43-8.79,3.42-1.47-1.76-1.13-4.03-3.77-4.3-5.25-.53-3.78,2.16-5.94,4.85s-6.93,2.65-8.34-.74c-2.21-5.32,4.69-8.99,3.57-12.67-1.33-4.4-10.99-.61-10.5-7.74.47-6.8,12.06-1.91,13.3-6.04l.64-82.03.24-.84c1.08-1.56,7.47.59,9.43.03Z"/>
  <path class="cls-2" d="M253.37,315.41c1.16,4.07,13.26-1.16,13.86,6.04.5,6.03-8.93,3.77-10.01,7.5s5.98,7.49,3.79,12.89c-1.11,2.73-4.45,2.89-6.77,1.68-3.07-1.6-3.27-8.59-8.69-5.34-2.19,1.32-4.07,8.77-9.66,5.44-5.93-3.53,3.3-10.37,2.35-14.67s-8.53-.72-8.53-7.1c0-8.11,12-1.86,13.36-6.55l.11-83.36c3.38,1.06,7.35-1.18,10.2.81v82.67Z"/>
  <path d="M427.3,138.52c2.32,19.73-8.96,59.26-34.56,56.31-22.76-2.62-29.81-37.01-28.23-55.5.46-5.45,1.2-7.38,6.43-9.14,14.73-4.95,44.95-3.39,58.63,4.19,4.94,2.74,1.98,4.33-2.26,4.14ZM382.21,134.77c-1.84.24-10.76,1.15-11.2,2.49-.23.7-.56,4.23-.63,5.27-.89,13.17,3.64,33.4,14.26,42.15,14.74,12.14,28.25-3.99,32.46-17.7-3.07,4.33-7.35,10.65-13.14,11.27-15.71,1.69-21.97-20.24-22.28-32.48l.53-11Z"/>
  <path d="M314.99,127.95c9.3-.61,18.4-.21,27.49,1.72,4.77,1.01,14.83,2.88,16.27,7.93,1.99,6.98-.4,23.73-2.71,30.87-10.4,32.01-40.63,36.8-54.45,4.25-4.63-10.91-6.05-24.22-4.8-35.99l-.46-.61c-1.58-.11-3.93-.03-4.27-2.06.43-2.53,11.34-4.61,13.8-5.02,2.89-.48,6.21-.88,9.13-1.07ZM315.1,134.77l-11.87,1.38c-2.44,13.35,1.11,33.2,9.74,43.97,15.38,19.19,32.34,3.93,37.02-14.21l-4.81,7.26c-5.14,5.18-10.76,7.42-17.56,3.58-11.81-6.67-15.38-29.72-12.52-41.97Z"/>
  <path d="M426.61,189.63c6.29-1.86,6.42,9.73,6.08,13.61-.3,3.41-2.92,12.85-6.44,13.97-2.48.79-3.24-.9-3.97-.78-.38.06-5.18,3.65-6.43,4.33-19.8,10.79-54.58,15.41-76.88,13.35-6.13-.56-5.56-6.77-1.57-7.53,6.35-1.21,16.33.86,23.09.01,4.77-.79,9.61-.57,14.4-1.16,12.97-1.61,48.59-10.15,50.2-26.03.3-2.98-2.37-8.61,1.52-9.77Z"/>
  <path d="M352.6,94.43c-1.23,1.93-7.63-2.34-9.44-3.01-11.44-4.22-22.72-.96-31.82,6.57-1.8,1.49-9.23,9.94-10.46,9.96-3.58-1.81.69-8.66,2.41-11.03,10.12-13.85,32.19-22.21,46.42-9.38,2.27,2.04,3.6,3.53,2.89,6.88Z"/>
  <path d="M426.71,110.56c-1,.19-2.21-.01-3.01-.65-1.31-1.04-4.39-5.95-6.03-7.65-8.89-9.23-19.88-14.3-32.77-10.7-2.5.7-8.48,4.33-10.26,2.18-1.89-2.28,3.18-6.41,4.93-7.51,14.59-9.15,32.87-1.38,42.35,11.24,1.44,1.92,7.54,11.2,4.79,13.09Z"/>
  <path class="cls-1" d="M382.21,134.77l-.53,11c.3,12.24,6.56,34.17,22.28,32.48,5.8-.62,10.08-6.94,13.14-11.27-4.21,13.71-17.72,29.84-32.46,17.7-10.62-8.75-15.16-28.97-14.26-42.15.07-1.05.4-4.57.63-5.27.44-1.34,9.36-2.25,11.2-2.49Z"/>
  <path class="cls-1" d="M315.1,134.77c-2.86,12.25.7,35.3,12.52,41.97,6.8,3.84,12.42,1.61,17.56-3.58l4.81-7.26c-4.68,18.15-21.65,33.4-37.02,14.21-8.63-10.77-12.17-30.62-9.74-43.97l11.87-1.38Z"/>
</svg>