<?xml version="1.0" encoding="UTF-8"?>
<svg id="Calque_1" data-name="Calque 1" xmlns="http://www.w3.org/2000/svg" viewBox="0 0 700 700">
  <defs>
    <style>
      .cls-1 {
        fill: #fd9fbd;
      }

      .cls-2 {
        fill: #abd4fd;
      }

      .cls-3 {
        fill: #fff;
      }

      .cls-4 {
        fill: #ff5f40;
      }
    </style>
  </defs>
  <path d="M267.04,230.61c-.23-.73-5.42-1.65-6.72-2.08-61.18-20.41-49.34-110.73,15.25-116.44,2.59-.23,5.36.15,7.97,0,.01-4.92-4.45-6.01-4.95-11.27-.43-4.52,1.66-6.33,2.09-9.47.44-3.24-2.31-5,.2-10.24,2.63-5.48,8.29-5.43,10.07-7.53,1.04-1.23,3.18-7.83,4.3-10,6.69-12.97,19.31-25.55,33.25-30.56,20.71-7.44,42.98-1.31,57.07,15.26,24.63-28.93,66.13-23.15,86.42,7.64,1.38,2.1,4.67,9.73,5.43,10.52,2.21,2.3,7.82,1.62,10.84,6.77,2.55,4.35.67,6.41,1.28,9.81.34,1.87,2.65,4.14,3.01,7.35.57,5.15-1.05,6.29-1.62,9.94-.51,3.3-.29,7.82-.58,11.24,42.77-4.28,72.43,39.56,57.86,79.04-8.68,23.51-30.68,38.06-55.6,38.73-.52,1.78-.67,3.14-.47,5.02.92,8.53,9,39.81,13.94,46.02,1.4,1.76,3.16,3.33,5.41,3.88.59-.25.68-.81.91-1.31,2.88-6.39,3.87-17.92,7.19-23.61,2.18-3.74,6.86-4.95,10.92-5.31-.78-2.89-3.89-3.19-4.97-6.3-1.61-4.61,1.65-15.75,5.03-19.22,1.2-1.23,4.14-2.34,4.79-3.46,1.13-1.93,2.01-7.93,3.14-10.61,3.36-8,8.8-10.31,17.27-8.85,1.95-16.16,27.53-8.14,19.3,6.62,5.54,1.33,10.49,6.47,10.48,12.4,0,3.85-4.36,13.49-4.25,15.4.02.37,2.17,3.95,2.42,5.63.66,4.39-2.15,16.67-7.02,18.3,4.93,3.34,9.62,6.92,9.93,13.45.27,5.7-2.65,7.05-3.29,10.51-.36,1.92.97,6.07.39,9.17-.33,1.75-2.17,3.95-2.49,5.21-.51,1.98.04,4.62-.28,6.87-1.28,9.05-10.35,12.78-18.58,12.22-4.31,10.63-2.93,24.06-18.39,22.84-5.7-.45-33.27-8.78-37.65-11.85-9.5-6.67-2.77-17.38-1.13-26.09-18.9-4.05-25.08-24.15-29.16-40.7-8.4,7.47-16.04,15.65-26.22,20.8-4.8,2.43-10.62,4.52-15.91,5.54-1.85.36-7.5-.26-7.92,1.98v345.41c1.01,6.89-.18,9.72,7.28,11.96s22.32,1.69,24.04,12.27c3.34,20.59-32.51,13.86-43.07,8.42-9.48-4.87-12.86-15.4-13.57-25.49-1.01-14.43.09-30.61.04-45.15-.27-90.6-.31-181.05,0-271.11.05-14.58.45-29.27-.84-43.76-5.04-2.68-9.34-6.33-13.28-10.4-2.79,2.33-5.3,4.87-8.28,7.01-3.2,2.3-6.58,4.21-10.1,5.97l.05,355.79c-1.66,26.91-18.1,33.1-42.62,32.72-8.83-.14-17.73-6.81-13.61-16.35,4.66-10.77,26.5-7.47,29.7-13.2.86-1.54.62-4.2,1.2-5.95l.03-348.11c-16.84-1.69-33.38-9.25-44.01-22.6-3.22-4.04-5.26-8.76-8.26-12.91v62.15c13.53-.72,18.04,15.41,6.09,21.81,6.3,12.92-8.12,24.41-18.47,13.95-10.4,10.48-25.81-.99-18.6-14.05-10.82-7.22-6.1-23.13,7.32-21.71v-89.93ZM469.44,64.77c-11.53-21.43-34.17-34.48-58.6-26.41-5.56,1.84-13.29,6.49-17.32,10.73-2.28,2.4-3.9,7.02-7.91,6.86-4.06-.16-7.88-6.61-11.06-9.3-26.68-22.59-64.19-5.24-75.06,24.73,10.13-1.91,20.35-4.13,30.59-5.43,36.09-4.59,80.88-6.47,117.08-3.91,7.43.52,14.87,2.01,22.28,2.74ZM487.04,93.93c1.33-3.84-3.26-7.27-3.76-9.76-.6-2.97,2.29-6.8-1.89-9.62-3.88-2.62-18.16-4.66-23.3-5.3-41.52-5.22-100.81-2.1-142.22,5.04-5.92,1.02-24.02,4.29-28.14,7.61-4.41,3.56-.24,7.01-.49,9.47-.23,2.3-4.75,7.24-1.78,10.24,4.53-2.11,10.08-3.25,15.02-4.23,31.67-6.25,67.63-7.52,99.96-8.39,26.8-.72,54.79-1.93,81.22,3.44,1.85.38,3.56,1.08,5.38,1.48ZM483.66,99.51c-.62-1-14.6-3.06-16.76-3.31-26.39-3.1-54.85-1.72-81.34-.62-25.03,1.04-50.42,2.33-75.2,6.21-3.99.62-16.62,2.54-19.53,4.12-2.26,1.23-.28,6.07-.83,9.08-1.12,6.08-6.68,3.57-10.59,3.67-62.84,1.54-71.5,91.78-12.94,104.83,7.29,1.63,13.67.38,20.06,1.39,5.78.91,4.49,11.63,5.39,16.06,7.11,35.24,45.65,58.71,78.69,39.35,5.29-3.1,8.47-7.98,12.51-10.59,5.96-3.86,8.29,2.05,12.07,5.48,18.67,16.98,44.72,12.58,62.97-2.5,11.83-9.78,23.12-21.82,26.55-37.25.95-4.28-.21-11.65,5.49-12.66,6.74-1.19,12.02-.48,19.13-2.87,55.01-18.52,43.59-103.28-15.98-102.33-1.66.03-3.1.75-4.93.6-9.02-.75-2.72-13.21-4.76-18.65ZM569.54,209.99c1.88-4.41.71-7.05-4.38-7.48-2.96-.25-3.61,2.89-3.87,5.27l8.25,2.21ZM576.69,235.29c1.28-6.07,5.66-12.43-1.12-16.75-2.28-1.46-19.98-7.08-22.85-7.41-7.59-.87-9.32,6.14-10.84,12.21-.13.51-.62.77.16,1.22l34.65,10.74ZM549.7,295.73c-2.27-4.97-2.76-10.28.91-14.74.7-.86,3.31-2.82,3.35-3.04.15-.88-1.01-3.76-.94-5.51.23-5.93,4.6-9.09,9.78-10.62.93-.28,2.1.04,3.05-.25s1.57-1.65,2.98-1.97c3.81-.85,4.78,1.6,6.78-3.12,2.37-5.6,4.34-12.45-2.08-16.1-4.43-2.52-20.23-6.57-25.99-8.11-4.82-1.29-10.35-3.89-13.67,1.73-.69,1.17-3.18,8.71-3.24,9.92-.17,2.88,5.97,4.44,5.87,9.2-.04,2.02-1.94,5.81-3.81,6.65-1.99.89-5.16-.45-7.17,1.63l-17.87,58.58c-2.69,8.51,10.88,10.89,16.93,12.82,5.15,1.65,17.91,5.91,22.71,5.37,2.11-.24,3.83-1.6,4.7-3.55.62-1.39,4.53-15.13,4.4-15.95-11.1-2.28-17.47-15.92-6.68-22.92ZM283.16,351.71c3.53,3.01,8.67,1.09,7.97-3.81-.51-3.59-4.65-5.93-3.63-9.37s9.34-.88,8.74-7.28c-.59-6.28-11.32-1.36-12.59-5.6l-.1-93.4-.8-1.23c-2.74,1.82-8.94-1.96-9.13,1.76v92.41c-1.01,5.48-13.11-.96-12.99,6.52.09,5.92,7.63,3.78,8.53,6.81.55,3.69-3.84,6.28-4.2,9.92-.22,2.23,1.31,4.21,3.5,4.52,5.92.84,5.57-5.82,9.3-6.08,3.93-.27,3.27,3,5.4,4.83ZM509.51,290.91c-8.7-3.05-12.5-11.98-15.47-20l-6.44-23.53-6,11.79c3.95,15.49,7.6,36.27,25.51,41.02l2.4-9.28ZM563.9,267.31c-3.14.63-5.24,3.53-4.78,6.71.56,3.86,3.29,2.7,5.94,3.43,4.87,1.33,9.44,3,13.85,5.44,6.63-8.63-7.93-17.01-15.01-15.58ZM558.95,282.71c-5.49.98-7.39,8.67-2.73,10.73,2.63,1.16,16.17,2.29,14.76,7.31-1.29,4.61-10.16-.9-13.62-1.3-6.99-.81-9.61,7.45-4.28,11.42,1.89,1.41,9.45,4.03,11.81,4.17,5.31.31,10.76-3.36,10.12-9.03-.19-1.66-1.4-3.01-1.07-4.98.29-1.74,3.05-2.84,3.61-4.67.45-1.45.45-4.11,0-5.56-1.38-4.46-14.35-8.85-18.6-8.09ZM407.84,290.29l-.03,352.31c.76,15.87,3.47,22.92,19.71,26.49,4.37.96,20.25,3.16,22.38-1.5,3.5-7.66-14.33-8.41-18.53-9.5-8.73-2.27-11.84-6.56-12.53-15.52l-.25-350.11-10.76-2.16ZM361.08,291.39l-10.75,2.16c-.43,8.49-.25,17.1-.26,25.63-.18,107.97.19,216.35.01,324.48-1.1,8.63-3.75,12.08-12.09,14.31-4.18,1.12-19.77,1.89-19.84,7.68-.08,6.79,15.72,4.6,19.96,3.98,16.73-2.45,21.59-8.52,22.98-25.42v-352.83Z"/>
  <path class="cls-4" d="M483.66,99.51c2.03,5.44-4.26,17.9,4.76,18.65,1.82.15,3.27-.57,4.93-.6,59.57-.94,71,83.82,15.98,102.33-7.11,2.39-12.38,1.68-19.13,2.87-5.7,1-4.54,8.38-5.49,12.66-3.44,15.42-14.72,27.47-26.55,37.25-18.25,15.08-44.3,19.48-62.97,2.5-3.77-3.43-6.1-9.34-12.07-5.48-4.04,2.62-7.22,7.49-12.51,10.59-33.04,19.36-71.58-4.11-78.69-39.35-.89-4.43.39-15.15-5.39-16.06-6.4-1.01-12.77.24-20.06-1.39-58.56-13.05-49.89-103.29,12.94-104.83,3.92-.1,9.48,2.41,10.59-3.67.55-3.01-1.43-7.85.83-9.08,2.91-1.58,15.54-3.49,19.53-4.12,24.77-3.88,50.16-5.17,75.2-6.21,26.49-1.1,54.95-2.48,81.34.62,2.17.25,16.14,2.31,16.76,3.31ZM384.75,172.03c1.71.85,1.39,3.35,1.93,4.94,14.64,42.92,50.27,32.13,57.86-7.58,3.46-18.09,1.92-45.07-10.06-60.02-11.93-14.89-34.3-9.75-43.36,5.5-2.77,4.66-3.93,9.89-6.1,14.8-4.02-15.9-11.13-29.46-29.72-28.62-30.76,1.39-34.18,46.03-29.15,68.79,5.51,24.92,29.15,51.74,50.14,22.6,4.19-5.82,7.44-13.3,8.46-20.42ZM421.42,216.76c-8.37-7.38-21.82-.97-30.91-.18-11.73,1.01-18.77-2.37-29.21-3.22-18.3-1.49-23.04,13.41-7.74,22.59,15.07,9.03,52.72,9.65,65.85-3.12,4.17-4.06,7.13-11.55,2.02-16.06Z"/>
  <path class="cls-4" d="M407.84,290.29l10.76,2.16.25,350.11c.69,8.96,3.8,13.25,12.53,15.52,4.21,1.09,22.03,1.85,18.53,9.5-2.13,4.66-18,2.46-22.38,1.5-16.25-3.57-18.96-10.62-19.71-26.49l.03-352.31Z"/>
  <path class="cls-4" d="M361.08,291.39v352.83c-1.39,16.9-6.25,22.97-22.98,25.42-4.24.62-20.04,2.81-19.96-3.98.07-5.8,15.67-6.57,19.84-7.68,8.34-2.23,10.99-5.68,12.09-14.31.18-108.13-.19-216.5-.01-324.48.01-8.54-.16-17.15.26-25.63l10.75-2.16Z"/>
  <path class="cls-1" d="M487.04,93.93c-1.82-.41-3.54-1.11-5.38-1.48-26.42-5.37-54.41-4.16-81.22-3.44-32.33.87-68.29,2.14-99.96,8.39-4.94.98-10.49,2.12-15.02,4.23-2.97-3,1.55-7.94,1.78-10.24.25-2.46-3.91-5.91.49-9.47,4.12-3.33,22.22-6.6,28.14-7.61,41.41-7.14,100.71-10.26,142.22-5.04,5.14.65,19.42,2.68,23.3,5.3,4.18,2.82,1.29,6.65,1.89,9.62.5,2.49,5.08,5.92,3.76,9.76Z"/>
  <path class="cls-2" d="M549.7,295.73c-10.79,7.01-4.42,20.65,6.68,22.92.12.82-3.78,14.56-4.4,15.95-.87,1.95-2.59,3.31-4.7,3.55-4.8.55-17.56-3.72-22.71-5.37-6.04-1.94-19.62-4.31-16.93-12.82l17.87-58.58c2.01-2.09,5.18-.74,7.17-1.63,1.87-.84,3.77-4.63,3.81-6.65.1-4.75-6.03-6.31-5.87-9.2.07-1.21,2.55-8.74,3.24-9.92,3.32-5.62,8.85-3.02,13.67-1.73,5.76,1.55,21.56,5.6,25.99,8.11,6.42,3.65,4.45,10.5,2.08,16.1-2,4.72-2.96,2.28-6.78,3.12-1.42.32-2.01,1.67-2.98,1.97s-2.11-.02-3.05.25c-5.18,1.53-9.54,4.69-9.78,10.62-.07,1.74,1.09,4.63.94,5.51-.04.22-2.65,2.18-3.35,3.04-3.67,4.46-3.18,9.77-.91,14.74Z"/>
  <path class="cls-4" d="M469.44,64.77c-7.41-.73-14.85-2.21-22.28-2.74-36.2-2.56-80.99-.68-117.08,3.91-10.23,1.3-20.46,3.53-30.59,5.43,10.87-29.97,48.38-47.32,75.06-24.73,3.18,2.69,7,9.14,11.06,9.3,4.02.16,5.63-4.45,7.91-6.86,4.03-4.24,11.77-8.89,17.32-10.73,24.42-8.07,47.06,4.99,58.6,26.41Z"/>
  <path class="cls-4" d="M283.16,351.71c-2.13-1.82-1.47-5.1-5.4-4.83s-3.39,6.91-9.3,6.08c-2.19-.31-3.72-2.29-3.5-4.52.36-3.64,4.75-6.22,4.2-9.92-.9-3.04-8.44-.89-8.53-6.81-.12-7.48,11.98-1.04,13-6.52v-92.41c.18-3.72,6.37.06,9.11-1.76l.8,1.23.1,93.4c1.27,4.23,12-.68,12.59,5.6.6,6.4-7.76,3.95-8.74,7.28s3.12,5.79,3.63,9.37c.7,4.89-4.45,6.82-7.97,3.81Z"/>
  <path class="cls-4" d="M558.95,282.71c4.25-.76,17.22,3.63,18.6,8.09.45,1.45.45,4.11,0,5.56-.57,1.84-3.33,2.93-3.61,4.67-.32,1.97.89,3.31,1.07,4.98.64,5.67-4.81,9.34-10.12,9.03-2.36-.14-9.92-2.76-11.81-4.17-5.33-3.97-2.72-12.23,4.28-11.42,3.46.4,12.33,5.91,13.62,1.3,1.41-5.02-12.13-6.15-14.76-7.31-4.65-2.05-2.76-9.74,2.73-10.73Z"/>
  <path class="cls-2" d="M576.69,235.29l-34.65-10.74c-.78-.44-.29-.7-.16-1.22,1.52-6.07,3.25-13.08,10.84-12.21,2.87.33,20.57,5.95,22.85,7.41,6.77,4.33,2.39,10.68,1.12,16.75Z"/>
  <path class="cls-4" d="M509.51,290.91l-2.4,9.28c-17.91-4.75-21.55-25.53-25.51-41.02l6-11.79,6.44,23.53c2.97,8.02,6.77,16.95,15.47,20Z"/>
  <path class="cls-4" d="M563.9,267.31c7.07-1.43,21.64,6.95,15.01,15.58-4.4-2.44-8.98-4.11-13.85-5.44-2.65-.72-5.39.44-5.94-3.43-.46-3.19,1.64-6.08,4.78-6.71Z"/>
  <path class="cls-2" d="M569.54,209.99l-8.25-2.21c.25-2.38.91-5.52,3.87-5.27,5.09.42,6.26,3.07,4.38,7.48Z"/>
  <path d="M384.75,172.03c-1.02,7.12-4.27,14.6-8.46,20.42-20.99,29.13-44.63,2.32-50.14-22.6-5.03-22.77-1.62-67.4,29.15-68.79,18.59-.84,25.7,12.72,29.72,28.62,2.17-4.91,3.33-10.14,6.1-14.8,9.06-15.24,31.43-20.39,43.36-5.5,11.98,14.95,13.52,41.93,10.06,60.02-7.59,39.7-43.22,50.5-57.86,7.58-.54-1.59-.22-4.09-1.93-4.94ZM379.78,133.53c-3.8-16.29-10.79-32.34-30.8-26.12-15.58,4.84-19.53,35.2-18.72,48.98.79,13.39,7,36.57,21.1,41.61,13.61,4.86,24.21-12.56,26.77-23.75l-4.66,7.7c-9.65,10.97-20.16,6.72-26.57-4.79-7.09-12.72-7.44-33.42-1.86-46.74,7.09-16.93,21.4-20.88,31.67-3.97l3.08,7.09ZM437.54,130.23c-1.44-7.52-8.66-22.69-16.9-24.07-17.56-2.93-25.42,9.46-29.25,24.39-4.53,17.65-3.31,45.74,9.03,60.19,15.72,18.42,30.48,1.99,36.03-14.86-2.45,3.1-3.66,6.21-6.88,8.79-11.85,9.47-21.84-1.15-26.13-12.35-5.34-13.97-4.65-34.87,3.52-47.66,6.95-10.88,17.49-12.64,25.88-2.08l4.72,7.65Z"/>
  <path d="M421.42,216.76c5.12,4.52,2.15,12-2.02,16.06-13.12,12.77-50.77,12.15-65.85,3.12-15.31-9.17-10.57-24.07,7.74-22.59,10.44.85,17.49,4.23,29.21,3.22,9.1-.78,22.55-7.2,30.91.18ZM361.64,217.69c-13.08-1.89-17.21,6.78-5.22,13.74l5.22-13.74ZM406.19,217.68l5.79,13.75c3.7-1.61,9.03-6.9,6.26-11.23-.33-.51-3.83-2.53-4.07-2.53h-7.98ZM380.89,220.98l-13.75-2.2-4.97,15.08c5.83,2.72,12.46,2.8,18.72,3.62v-16.5ZM386.39,237.48c2.61.54,19.4-1.85,19.78-3.61l-6.05-15.09-13.73,3.02v15.68Z"/>
  <path class="cls-3" d="M437.54,130.23l-4.72-7.65c-8.39-10.56-18.93-8.8-25.88,2.08-8.16,12.79-8.86,33.69-3.52,47.66,4.28,11.2,14.28,21.82,26.13,12.35,3.23-2.58,4.44-5.68,6.88-8.79-5.55,16.85-20.31,33.27-36.03,14.86-12.33-14.45-13.56-42.54-9.03-60.19,3.83-14.93,11.69-27.32,29.25-24.39,8.24,1.38,15.47,16.55,16.9,24.07Z"/>
  <path class="cls-3" d="M379.78,133.53l-3.08-7.09c-10.26-16.91-24.58-12.96-31.67,3.97-5.58,13.33-5.23,34.02,1.86,46.74,6.42,11.51,16.93,15.76,26.57,4.79l4.66-7.7c-2.56,11.19-13.16,28.62-26.77,23.75-14.1-5.04-20.31-28.22-21.1-41.61-.81-13.78,3.14-44.14,18.72-48.98,20-6.21,27,9.84,30.8,26.12Z"/>
  <path class="cls-3" d="M386.39,237.48v-15.68l13.73-3.02,6.05,15.09c-.39,1.76-17.17,4.15-19.78,3.61Z"/>
  <path class="cls-3" d="M380.89,220.98v16.5c-6.26-.82-12.89-.89-18.72-3.62l4.97-15.08,13.75,2.2Z"/>
  <path class="cls-3" d="M406.19,217.68h7.98c.24,0,3.74,2.02,4.07,2.53,2.77,4.33-2.56,9.61-6.26,11.23l-5.79-13.75Z"/>
  <path class="cls-3" d="M361.64,217.69l-5.22,13.74c-11.99-6.96-7.86-15.63,5.22-13.74Z"/>
</svg>