<?xml version="1.0" encoding="UTF-8"?>
<svg id="Calque_1" data-name="Calque 1" xmlns="http://www.w3.org/2000/svg" viewBox="0 0 700 700">
  <defs>
    <style>
      .cls-1 {
        fill: #fff;
      }

      .cls-2 {
        fill: #ff5f40;
      }
    </style>
  </defs>
  <path d="M395.42,487c-10.89,4.67-18.79.21-19.82-11.63-.62-7.13,1.97-14.72.85-21.81-1.2-1.99-18.91-5.24-22.37-5.97-29.84-6.28-63.56-10.3-92.51-18.56-10.17-2.9-21.13-8.89-22.48-20.58-2.66-23.03,12.71-32.6,29.45-43.52,11.69-7.62,24.31-14.96,36.4-21.96,5.48-3.17,16.17-7.65,20.51-11.23,5.15-4.26,3.1-15.45,4.24-21.54-13.37,2.83-26.67,6.41-40.11,8.9-18.92,3.51-51.77,10.86-61.42-11.91-11.48-27.11,23.46-65.64,35.82-88.49.6-1.12,1.19-2.43-.41-3.02-3.3-1.22-8.69-1.56-12.51-2.79-30.64-9.85-44.98-41.93-38.72-72.43,6.78-33.01,34.88-53.84,68.63-49.56-5.74-22.71,2.27-45.87,19.83-60.92,19.73-16.92,49.48-18.45,69.98-1.97,3.59,2.89,6.28,6.53,9.72,9.58.84.15,6.4-6.62,7.87-7.88,29.81-25.56,76.85-12.7,91.21,23.23,5.05,12.64,4.44,24.74,2.56,37.96,20.81-2.94,40.27,4.24,53.82,20.13,31.2,36.6,13.48,97.05-35.47,105.04-1.47.24-9.01.17-9.29,1.49,7.92,13.68,16.87,26.82,24.47,40.69,8.43,15.4,19.92,37.23,7.74,53.83-11.54,15.73-35.61,10.98-52.15,8.15-16.51-2.83-32.76-7.33-49.18-10.6l-.03,328.41c1,8.49-.71,11.65,8.52,14.14,7.46,2.01,16.96,1.49,22.1,8.5,3.71,5.05,2.07,13.2-3.44,16.39-11.55,6.7-39.69.17-47.79-10.49-2.71-3.57-6-13.5-6-17.8v-161.78ZM373.56,40.79c-9.42-9.5-14.83-14.85-29.02-17.16-30.02-4.89-58.89,21.88-59.01,51.77-.02,6.11,6.49,20.61-3.18,22.26-3.89.66-10.57-.91-15.29-.56-57.77,4.3-69.79,94.75-9.24,110.72,3.88,1.02,10.05.57,12.51,4.49,1.61,2.56,1.84,6.46.34,9.11-16.44,26.86-75.49,102.06-.83,93.8,13.49-1.49,28.39-5.2,41.73-8.14,15.85-3.49,35.51-7.25,50.67-12.23,7.71-2.53,10.91-6.79,11.64-14.99.6-6.7.84-22.98-.04-29.41-1.36-9.97-13.51-8.09-13.98.66-.21,3.87,3.06,7.44,3.76,11.08-.72,2.86-8.33.9-7.28,8,.64,4.34,6.08,3.88,6.18,6.25.11,2.48-2.68,6.4-5.04,7.43-27.77,6.72-56.12,14.89-84.36,19.34-10.82,1.7-30.54,5.86-28.93-11.37.67-7.18,7.52-19.15,11.16-25.67,5.97-10.68,12.92-21.54,20.22-31.35,1.36,4.4,1.91,8.95,3.76,13.23,9.03,20.87,37.95,30.48,58.97,25.13,2.35-.6,8.77-2.87,10.42-4.37.74-.68.87-3.84,1.82-5.5,1-1.75,2.8-2.76,3.9-4.4-6.77-15.17,9.82-29.96,22.64-17.9,9.49-9.14,25.38-2.9,25.16,10.49-.04,2.12-2.03,6.52-1.75,7.86.06.26,2.74,2.03,3.66,3.84.75,1.47,1.24,4.97,1.6,5.48.69.99,9.9,4.09,11.66,4.49,22.11,5.07,50.64-3.1,59.72-25.51,1.7-4.2,1.82-8.34,3.58-12.27,6.61,9.41,13.06,19.51,18.51,29.64,3.54,6.58,10.4,19.14,11.18,26.22,2.08,18.97-20.24,13.31-31.78,11.38-27.6-4.61-54.79-12.21-81.89-18.97-2.31-1.15-4.77-5.78-4.17-8.24.18-.74,5.29-.9,6.16-5.33,1.13-5.84-6.67-5.77-7.2-7.3-.73-2.11,2.12-5.58,2.74-7.89,3.47-12.8-12.12-15.5-13.5-3.87-.76,6.37-.74,28.34,1.04,33.97,1.48,4.7,4.79,7.68,9.36,9.34,15.3,5.55,38.32,9.74,54.7,13.3,23.71,5.16,87.01,24.01,74.08-23.08-1.85-6.75-6.06-14.43-9.37-20.66-8.12-15.24-18.46-29.36-26.12-44.72-.6-5.01,2.11-8.55,7.09-9.25,1.65-.23,3.33.14,4.98-.12,69.57-11.04,61.08-114.36-9.59-112.72-5.24.12-12.32,2.25-12.18-6.46.1-6.21,2.79-12.07,2.27-19.29-2.91-40.73-51.3-63.54-83.56-37.11-6.47,5.3-10.29,16.23-19.89,6.55ZM273.58,251.83c-.86-.21-.91.13-1.37.6-1.56,1.56-5.57,8.72-7.01,11.13-3.88,6.49-9.04,15.33-11.72,22.28-1.24,3.21-4.35,9.67-.15,11.46,4.35,1.86,18.55-1.1,23.76-2.02,18.43-3.24,36.66-8,54.83-12.33l.03-1.66c-22.9,1.4-48.18-7.67-58.38-29.47ZM422.06,282.99c13.02,2.82,25.94,6.18,38.99,8.9,9.69,2.02,29.87,7.21,38.89,5.81,4.62-.72,3.54-4.54,2.74-7.78-3.16-12.76-13.44-26.55-19.71-38.09-10.54,23.04-36.98,31.66-60.92,29.47v1.69ZM351.13,275.71c-1.02-.61-9.28,4.1-11.43,3.87l-.38,1.71,12.47-3.11-.67-2.47ZM414.69,279.04c-2.93.49-11.25-5.9-11.91-1.44-.19,1.32.52.7,1.33.92,1.45.4,10.09,2.7,10.58,2.2v-1.68ZM395.42,302.83c-4.9-1.23-10.26-2.6-14.17-5.94-1.14-.97-3.39-4.26-4.24-4.26-4.3,7.25-11.94,8.83-19.48,10.85-.58,19.51,3.51,38.2-14.85,50.6-9.26,6.25-20.48,11.54-30.16,17.44-9.81,5.98-27.63,16.14-35.33,23.89-1.64,1.65-4.72,5.25-3.07,7.49,1.4,1.91,12.34,3.99,15.23,4.6,31.02,6.45,62.75,10.12,93.72,16.78,3.81.82,7.89,1.41,11.24,3.52l1.11-.57v-124.38ZM414.63,307.42l-11.84-2.89-.03,135.74c1.01,5.61,1.38,11.26,1.15,16.97-2.57,63.31-.43,126.96-1.12,190.4-.51,19.35,19.94,25.65,35.97,24.65,4.2-.26,11.6-2.21,7.67-7.65-4.24-5.87-23.11-2.63-28.82-11.41-2.68-4.13-2.02-8.91-2.92-13.51l-.06-332.29ZM350.09,305.09l-12.78,3.37c-1.81,8.47.8,21.32-6.2,27.8-15.59,9.2-31.54,17.77-46.92,27.31-9.72,6.03-26.89,15.48-33.16,24.64-10.13,14.79-5.98,28.72,11.36,33.78,32.57,9.5,70.67,13.19,104.25,20.98,6.98,1.62,16.36,2.87,17.4,11.5.73,6.08-3.7,22.99,1.21,26.56,2.11,1.53,4.82,1.14,6.48-.86,4.96-5.96,6.02-31.2,4-38.52-2.36-8.54-7.35-8.97-14.92-10.58-33-7-69.38-10.05-101.66-18.48-15.55-4.06-16.98-13.1-5.28-23.65,18.54-16.71,44.38-26.8,64.63-40.77,10.99-7.59,11.71-16.47,12.19-29.18.07-1.97.17-13.21-.59-13.91Z"/>
  <path class="cls-2" d="M373.56,40.79c9.6,9.68,13.42-1.25,19.89-6.55,32.27-26.42,80.65-3.62,83.56,37.11.52,7.22-2.17,13.08-2.27,19.29-.15,8.71,6.93,6.59,12.18,6.46,70.67-1.64,79.15,101.68,9.59,112.72-1.65.26-3.33-.11-4.98.12-4.98.69-7.69,4.24-7.09,9.25,7.66,15.36,18,29.49,26.12,44.72,3.32,6.23,7.52,13.91,9.37,20.66,12.93,47.09-50.37,28.24-74.08,23.08-16.38-3.56-39.4-7.75-54.7-13.3-4.57-1.66-7.88-4.64-9.36-9.34-1.78-5.63-1.8-27.6-1.04-33.97,1.38-11.63,16.97-8.93,13.5,3.87-.62,2.3-3.47,5.78-2.74,7.89.53,1.54,8.33,1.47,7.2,7.3-.86,4.44-5.98,4.59-6.16,5.33-.6,2.46,1.86,7.09,4.17,8.24,27.1,6.77,54.29,14.36,81.89,18.97,11.54,1.93,33.86,7.6,31.78-11.38-.78-7.09-7.63-19.64-11.18-26.22-5.45-10.13-11.9-20.23-18.51-29.64-1.76,3.94-1.88,8.07-3.58,12.27-9.08,22.41-37.61,30.59-59.72,25.51-1.76-.4-10.97-3.5-11.66-4.49-.36-.51-.85-4.01-1.6-5.48-.93-1.82-3.61-3.58-3.66-3.84-.28-1.33,1.72-5.74,1.75-7.86.22-13.39-15.66-19.64-25.16-10.49-12.83-12.06-29.42,2.73-22.64,17.9-1.1,1.64-2.9,2.65-3.9,4.4-.94,1.66-1.07,4.82-1.82,5.5-1.64,1.5-8.07,3.77-10.42,4.37-21.02,5.35-49.94-4.26-58.97-25.13-1.85-4.28-2.4-8.83-3.76-13.23-7.3,9.81-14.25,20.67-20.22,31.35-3.64,6.52-10.5,18.49-11.16,25.67-1.61,17.23,18.12,13.07,28.93,11.37,28.24-4.44,56.6-12.62,84.36-19.34,2.36-1.03,5.15-4.94,5.04-7.43-.1-2.37-5.54-1.91-6.18-6.25-1.05-7.1,6.55-5.14,7.28-8-.7-3.64-3.97-7.21-3.76-11.08.47-8.75,12.62-10.63,13.98-.66.88,6.43.64,22.7.04,29.41-.73,8.2-3.93,12.46-11.64,14.99-15.16,4.97-34.83,8.74-50.67,12.23-13.34,2.93-28.24,6.65-41.73,8.14-74.67,8.26-15.61-66.95.83-93.8,1.49-2.65,1.27-6.54-.34-9.11-2.46-3.92-8.63-3.47-12.51-4.49-60.55-15.97-48.53-106.42,9.24-110.72,4.72-.35,11.41,1.22,15.29.56,9.67-1.65,3.16-16.15,3.18-22.26.12-29.89,29-56.66,59.01-51.77,14.19,2.31,19.6,7.67,29.02,17.16ZM379.56,143.03c1.68,1.63,1.84,4.88,2.67,7.24,12.89,36.59,45.27,36.51,57.41-.13,6.39-19.3,5.79-46.79-3.5-65.11-12.87-25.38-36.09-26.69-49.88-1.31-2.82,5.18-4.41,10.72-6.42,16.24-3.83-18.38-18.29-41.63-40.24-31.74-30.22,13.62-29.92,86.99-2.73,105.31,21.63,14.57,39.92-11.14,42.69-30.5ZM349.4,186.82c-14.7,1.7-15.44,14.67-4.02,22.4,15.97,10.82,54.89,11.48,69.88-1.31,5.31-4.53,8.45-12.9,1.98-17.85-9.84-7.53-25.02.07-36.24.59-10.78.5-21.69-4.99-31.6-3.84Z"/>
  <path class="cls-2" d="M350.09,305.09c.76.7.67,11.94.59,13.91-.48,12.7-1.2,21.59-12.19,29.18-20.25,13.97-46.09,24.06-64.63,40.77-11.7,10.55-10.26,19.59,5.28,23.65,32.28,8.43,68.65,11.48,101.66,18.48,7.58,1.61,12.57,2.04,14.92,10.58,2.02,7.32.96,32.56-4,38.52-1.66,2-4.37,2.39-6.48.86-4.91-3.57-.47-20.48-1.21-26.56-1.04-8.63-10.42-9.89-17.4-11.5-33.58-7.79-71.68-11.48-104.25-20.98-17.34-5.06-21.49-18.99-11.36-33.78,6.27-9.16,23.44-18.61,33.16-24.64,15.38-9.55,31.34-18.11,46.92-27.31,7-6.48,4.39-19.33,6.2-27.8l12.78-3.37Z"/>
  <path class="cls-2" d="M414.63,307.42l.06,332.29c.9,4.6.24,9.38,2.92,13.51,5.7,8.78,24.58,5.54,28.82,11.41,3.93,5.44-3.47,7.39-7.67,7.65-16.03,1-36.48-5.29-35.97-24.65.69-63.44-1.46-127.09,1.12-190.4.23-5.71-.14-11.36-1.15-16.97l.03-135.74,11.84,2.89Z"/>
  <path class="cls-1" d="M414.69,279.04v1.68c-.49.51-9.13-1.79-10.57-2.2-.81-.23-1.53.4-1.33-.92.65-4.46,8.98,1.92,11.91,1.44Z"/>
  <path class="cls-1" d="M351.13,275.71l.67,2.47-12.47,3.11.38-1.71c2.15.23,10.41-4.49,11.43-3.87Z"/>
  <path d="M379.56,143.03c-2.77,19.36-21.06,45.08-42.69,30.5-27.19-18.32-27.49-91.69,2.73-105.31,21.95-9.89,36.41,13.36,40.24,31.74,2.01-5.52,3.61-11.06,6.42-16.24,13.79-25.38,37.01-24.07,49.88,1.31,9.29,18.32,9.89,45.81,3.5,65.11-12.14,36.64-44.52,36.72-57.41.13-.83-2.36-.99-5.61-2.67-7.24ZM435.09,100.53c-3.99-20.4-23.37-42.8-40.69-18.31-13.91,19.66-14.2,57.75-.91,77.76,15.56,23.44,34.81,7.76,40.46-12.98l-6.79,9.35c-12.2,10.15-23.05.03-27.79-11.89-5.87-14.77-5.44-36.01,2.96-49.77,7.87-12.9,20.47-13.71,29.02-.91l3.73,6.75ZM374.45,103.36c-2.48-15.32-16.39-40.73-34.97-27.89-22.58,15.6-21.83,73.85-1.58,91.38,16.6,14.37,31.11-5.79,34.86-20.98l-4.86,7.88c-8.39,10.25-19.09,8.44-26.2-2.04-8.91-13.15-9.62-34.01-4.8-48.79,6.14-18.81,22.83-26.5,34.26-6.73l3.3,7.18Z"/>
  <path d="M349.4,186.82c9.92-1.15,20.82,4.34,31.6,3.84,11.22-.52,26.4-8.13,36.24-.59,6.47,4.96,3.33,13.33-1.98,17.85-15,12.78-53.91,12.13-69.88,1.31-11.42-7.73-10.68-20.7,4.02-22.4ZM355.19,191.2c-12.95-1.44-17.73,6.77-5.85,14.1,1.01.15,1.29-.98,1.61-1.64,1.78-3.7,2.87-8.55,4.24-12.47ZM407.9,205.93c12.88-6.65,8.33-16.68-5.67-14.73l5.67,14.73ZM375.59,211.31v-15.87l-14.16-3.12-5.54,15.61c.28,1.93,16.1,4,18.54,4,.66,0,.73-.04,1.16-.62ZM381.26,195.45v16.72c2.74.43,20.61-2.07,20.96-3.71l-6.32-15.47-13.69,1.71-.96.74Z"/>
  <path class="cls-1" d="M435.09,100.53l-3.73-6.75c-8.56-12.79-21.15-11.99-29.02.91-8.4,13.76-8.83,35-2.96,49.77,4.74,11.92,15.59,22.05,27.79,11.89l6.79-9.35c-5.66,20.74-24.9,36.42-40.46,12.98-13.29-20.02-13-58.1.91-77.76,17.32-24.49,36.7-2.1,40.69,18.31Z"/>
  <path class="cls-1" d="M374.45,103.36l-3.3-7.18c-11.42-19.76-28.12-12.08-34.26,6.73-4.82,14.78-4.11,35.64,4.8,48.79,7.1,10.48,17.81,12.29,26.2,2.04l4.86-7.88c-3.75,15.18-18.26,35.35-34.86,20.98-20.25-17.53-21-75.77,1.58-91.38,18.58-12.84,32.49,12.57,34.97,27.89Z"/>
  <path class="cls-1" d="M381.26,195.45l.96-.74,13.69-1.71,6.32,15.47c-.35,1.63-18.22,4.13-20.96,3.71v-16.72Z"/>
  <path class="cls-1" d="M375.59,211.31c-.42.58-.49.62-1.16.62-2.45,0-18.27-2.06-18.54-4l5.54-15.61,14.16,3.12v15.87Z"/>
  <path class="cls-1" d="M407.9,205.93l-5.67-14.73c14-1.95,18.55,8.08,5.67,14.73Z"/>
  <path class="cls-1" d="M355.19,191.2c-1.38,3.91-2.47,8.77-4.24,12.47-.32.66-.6,1.79-1.61,1.64-11.88-7.33-7.1-15.54,5.85-14.1Z"/>
</svg>