<?xml version="1.0" encoding="UTF-8"?>
<svg id="Calque_1" data-name="Calque 1" xmlns="http://www.w3.org/2000/svg" viewBox="0 0 700 700">
  <defs>
    <style>
      .cls-1 {
        fill: #fff;
      }

      .cls-2 {
        fill: #ff5f40;
      }
    </style>
  </defs>
  <path d="M310.98,291.18c-3.15-.31-8.72-1.95-11.81-3.05-25.01-8.89-37.32-32.7-35.24-58.59-14.39-1.46-28.47,2.54-42.63,3.33-18.46,1.02-52.27,1.34-52.62-24.51-.29-21.31,22.7-32.31,36.07-44.88,1.58-17.56,9.04-32.43,22.18-44.01.95-.84,3.13-1.51,3.7-2.76.7-1.55.05-3.83.41-5.65,1.03-5.18,7.75-10.2,13.09-9.2-1.11-12.72,11.57-21.29,22-12.66,2.35-22.77,16.97-42.69,38.8-50.09,18.69-6.33,39.91-2.4,54.49,11.02,1.25,1.15,4.43,6.06,6.06,6.07,1.47-.19,1.82-1.82,2.74-2.78,32.84-34.36,90.86-14.87,94.99,32.43,7.95.58,12.72,8.57,12.05,16.01,5.1-.23,10.12,2.55,12.39,7.15,1.12,2.27,1.05,6.19,1.88,7.48.66,1.02,4.04,2.93,5.28,4.07,12.55,11.48,19.08,27.05,21.13,43.81,11.77,10.39,29.47,19,33.24,35.55,8.64,37.94-46.06,32.9-68.69,31.27-3.73-.27-8.63-1.69-12.11-1.69-2.53,0-5.72,1.18-8.53.59,1.07,18.8-5.36,36.53-20.41,48.11-5.92,4.55-13.46,8.3-20.75,10.07-3.94.95-8.88,1.99-12.77,1.26l-.58,15.11.03,335.17c1.17,7.62.2,9.95,8.23,12.13,8.14,2.22,23.04,1.86,23.71,13.72.96,16.95-25.11,13.18-35.48,10.15-18.76-5.47-21.49-16.08-22.36-34.32-1.22-25.71.05-53.35,0-79.29-.11-53.51.44-107.69.6-161.2.12-38.9-.15-77.8-.02-116.7l-.55-1.1c-6.51-2.92-10.85-8.74-16.24-12.94-1.01,0-6.63,6.9-8.27,8.26-2.69,2.23-6.13,3.79-8.8,6.06-.64,36.78-.09,73.58-.25,110.37-.35,83.91-.47,168.08-1.13,252.02.02,26.22-22.88,33.36-45.39,31.09-14.82-1.5-15.55-19.45.38-23.82,8.77-2.41,18.74-.01,19.69-11.68,1.01-12.4-.17-26.94-.01-39.64,1.02-85.19-.05-170.66,1.15-255.85-1.53-17.01,1.95-37.39,0-53.99-.09-.8-.07-1.41-.85-1.9-2.85-.2-6,.27-8.81,0ZM450.45,94.13c.73-3.17,3.22-5.41,5.84-7.12l.28-.82c-3.37-38.86-50.18-57.56-79.82-31.93-4.55,3.94-6.07,9.92-13.35,8.41-3.36-.7-6.7-6.25-9.5-8.66-31.91-27.52-80.73-1.99-80.61,38.51,17.74-1.07,19.7,18.62,7.29,27.78,9.49,12.92-2.66,29.63-17.56,21.28-3.97,3.07-6.93,8.17-10.35,12.03-11.27,12.74-24.12,24.07-37.19,34.91-1.11,1.89.71,5.32,1.59,7.27,7.03,15.53,23.9,27.11,41.07,27.72,5.24.18,12.1-2.94,12.96,4.66.43,3.78-.26,8.25-.02,12.13,2.57,42.31,51.76,58.32,82.03,30.8,2.87-2.61,5.89-7.93,10.17-7.91,4.65.01,9.74,7.49,13.37,10.35,28.08,22.11,70.15,4.8,75.92-30.1.86-5.19.06-10.94.74-15.77.94-6.74,7.19-3.82,11.77-4.19,17.59-1.42,34.18-18.52,39.84-34.49l-.17-.72c-17.67-13.5-33.8-29.12-47.64-46.54l-.74-.19c-14.41,8.73-28.01-8.64-17.52-21.25-7.4-5.59-12.13-17.91-3.77-24.77,4.77-3.91,9.97-3.45,15.38-1.4ZM271.77,117.41c.9-.94,4.67-2.48,6.18-4,7.86-7.89,1.14-18.74-6.82-11.77-1.83,1.6-2.14,4.47-5.71,3.41-2.85-.85-1.74-4.16-2.09-6.17-1.67-9.56-12.73-7.61-12.06,2.14.16,2.32,2.98,7.38.56,8.82-2.79,1.66-9.11-3.51-12.89.87-2.45,2.83-1.74,7.52,1.13,9.78,3.48,2.73,11.49,2.25,8.21,8.92-2.83,5.75-16.1,18.97-21.21,23.91-12.4,12-26.6,21.59-39.09,33-12.3,11.24-20.1,31.03.99,37.55,14.83,4.59,31.73,1.5,46.9.7l-15.25-11.45c-7.53-.09-36.57,4.49-30.69-10.55,2.19-5.61,17.79-16.36,23.09-20.93,16.75-14.45,33.15-29.39,46-47.55,3.36-2.98,4.9.23,7.64,1.64,8.51,4.39,12.94-4.83,8.28-11.03-1.43-1.9-6.28-4.05-3.16-7.3ZM486.62,147.18c-2.51-2.55-5.41-5.13-7.8-7.89-1.38-1.6-7.87-9.19-8.27-10.43-2.38-7.35,9.24-5.26,11.05-12.12,1.45-5.52-2.36-8.52-7.69-7.69-2.09.33-4.68,2.96-6.6.48-1.91-2.46.39-4.45.74-6.89.46-3.17.37-6.52-2.43-8.48-3.76-2.64-8.39-.6-9.39,3.81-.62,2.71.76,6.17-2.42,7.51-3.21.59-4.26-2.8-5.95-4.18-7.77-6.35-13.47,3.71-7.75,10.66,1.9,2.31,7.64,4.89,8.1,7.37.56,3-3.19,4.11-4.58,6.22-3.14,4.81-.86,12,5.47,11.56,4.08-.28,6.96-6.33,10.7-3.57.97.72,4.23,6.06,5.56,7.65,12.38,14.82,26.84,28,41.55,40.45,5.44,4.6,19.92,14.11,22.16,20.22.87,2.37.96,5.21-.74,7.28-3.94,4.81-23.97,3.55-30.12,4-1.76,1.13-2.93,2.97-4.53,4.27-3.23,2.63-6.84,4.69-10.16,7.17,10.48.19,21.14,1.2,31.64.55,15.14-.93,32.67-5.94,26.86-25.2-3.7-12.27-25.92-25.98-35.95-34.5-6.76-5.74-13.27-11.98-19.44-18.25ZM507.72,157.45c-2.37-13.49-10.02-27.63-21.99-34.66.21,2.41-6.89,4.97-6.6,6.29,8.75,10.23,18.3,19.71,28.59,28.37ZM212.75,156.9c5.76-5.68,12.04-10.89,17.62-16.77,2.47-2.6,6.8-7.17,8.78-9.93.29-.41,1.24-1.42.86-1.93l-7.1-4.89c-10.35,8.39-18.18,20.13-20.16,33.52ZM522.03,204.77c1.35-1.9-10.05-9.87-11.28-11.54l-6.33,12.64c5.9.08,11.82.14,17.61-1.1ZM214.95,206.42l-6.32-12.09c-2.23,2.25-11.7,8.38-11.84,11.26,5.81,2.15,12.15,1.39,18.17.83ZM398.15,289.58l-10.95-2.8c-.33,14.18.69,28.51-.58,42.62,2.42,102.08-3.4,205.8.6,307.63.73,18.64-.67,28.71,20.86,33.07,4.14.84,25.93,3.92,21.75-5.25-2.85-6.26-23.28-3.45-28.79-11.93-2.6-4.01-1.96-8.66-2.84-13.12l-.06-350.22ZM338.77,287.88l-11.04,3.09c-.33,78.48-.76,156.97-.49,235.5-3.03,37.74,2.07,78-.58,115.54-.52,7.32-1.61,12.96-9.05,15.71-4.84,1.79-18.69,2.77-21.46,6.05-2.25,2.66-.54,5.81,2.46,6.85,7.05,2.45,24.59-.53,30.76-4.99,11.09-8.01,8-28.47,8.28-40.7,1.78-78.43.86-157.56,1.15-236.04.12-33.67-.14-67.35-.03-101.01Z"/>
  <path class="cls-2" d="M450.45,94.13c-5.41-2.05-10.61-2.51-15.38,1.4-8.36,6.86-3.63,19.18,3.77,24.77-10.48,12.61,3.12,29.98,17.52,21.25l.74.19c13.84,17.42,29.96,33.04,47.64,46.54l.17.72c-5.65,15.97-22.25,33.07-39.84,34.49-4.58.37-10.83-2.56-11.77,4.19-.68,4.83.12,10.58-.74,15.77-5.77,34.91-47.84,52.21-75.92,30.1-3.63-2.86-8.72-10.34-13.37-10.35-4.29-.01-7.3,5.3-10.17,7.91-30.27,27.52-79.46,11.51-82.03-30.8-.24-3.88.45-8.35.02-12.13-.86-7.6-7.72-4.47-12.96-4.66-17.17-.61-34.04-12.19-41.07-27.72-.89-1.96-2.71-5.38-1.59-7.27,13.07-10.84,25.92-22.17,37.19-34.91,3.42-3.86,6.37-8.96,10.35-12.03,14.91,8.35,27.05-8.37,17.56-21.28,12.41-9.17,10.45-28.85-7.29-27.78-.12-40.5,48.7-66.03,80.61-38.51,2.8,2.41,6.13,7.96,9.5,8.66,7.28,1.52,8.8-4.47,13.35-8.41,29.65-25.63,76.46-6.93,79.82,31.93l-.28.82c-2.62,1.71-5.11,3.96-5.84,7.12ZM324.87,90.99c-12.72,2.15-21.78,21.74-24.36,32.87-4.62,19.93-1.53,57.81,19.07,68.47,25.74,13.32,39.87-24.63,41.21-43.97,1.42-20.49-8.29-62.03-35.91-57.37ZM392.02,91c-34.12,4.68-37.18,83.57-8.5,100.67,26.45,15.77,41.3-22.66,42.75-42.76,1.4-19.45-7.75-61.54-34.25-57.91ZM360.09,195c-17.49,2.94-17.87,46.63-1.52,50.79,13.17,3.35,18.54-12.42,19.27-22.59.73-10.15-4.16-30.48-17.75-28.2Z"/>
  <path class="cls-2" d="M398.15,289.58l.06,350.22c.87,4.47.23,9.11,2.84,13.12,5.51,8.48,25.93,5.67,28.79,11.93,4.18,9.16-17.61,6.08-21.75,5.25-21.53-4.36-20.13-14.43-20.86-33.07-4-101.84,1.82-205.55-.6-307.63,1.27-14.11.25-28.44.58-42.62l10.95,2.8Z"/>
  <path class="cls-2" d="M338.77,287.88c-.11,33.66.15,67.34.03,101.01-.29,78.48.63,157.61-1.15,236.04-.28,12.23,2.81,32.69-8.28,40.7-6.18,4.46-23.71,7.45-30.76,4.99-3-1.04-4.72-4.19-2.46-6.85,2.78-3.28,16.62-4.26,21.46-6.05,7.44-2.75,8.54-8.39,9.05-15.71,2.66-37.54-2.45-77.8.58-115.54-.27-78.53.16-157.02.49-235.5l11.04-3.09Z"/>
  <path class="cls-2" d="M271.77,117.41c-3.12,3.24,1.73,5.39,3.16,7.3,4.66,6.21.23,15.42-8.28,11.03-2.74-1.41-4.28-4.62-7.64-1.64-12.85,18.16-29.25,33.1-46,47.55-5.3,4.57-20.9,15.32-23.09,20.93-5.88,15.04,23.16,10.46,30.69,10.55l15.25,11.45c-15.17.8-32.06,3.88-46.9-.7-21.09-6.52-13.28-26.31-.99-37.55,12.49-11.41,26.69-21,39.09-33,5.11-4.95,18.38-18.16,21.21-23.91,3.28-6.67-4.73-6.18-8.21-8.92-2.88-2.26-3.58-6.95-1.13-9.78,3.78-4.37,10.1.8,12.89-.87,2.42-1.44-.4-6.5-.56-8.82-.67-9.75,10.39-11.7,12.06-2.14.35,2.01-.76,5.32,2.09,6.17,3.57,1.06,3.89-1.81,5.71-3.41,7.96-6.96,14.68,3.88,6.82,11.77-1.51,1.51-5.28,3.06-6.18,4Z"/>
  <path class="cls-2" d="M486.62,147.18c6.17,6.27,12.68,12.52,19.44,18.25,10.03,8.51,32.25,22.22,35.95,34.5,5.81,19.26-11.73,24.27-26.86,25.2-10.5.65-21.16-.36-31.64-.55,3.32-2.47,6.94-4.54,10.16-7.17,1.6-1.31,2.77-3.14,4.53-4.27,6.16-.45,26.18.81,30.12-4,1.7-2.07,1.61-4.92.74-7.28-2.24-6.1-16.71-15.61-22.16-20.22-14.71-12.45-29.17-25.63-41.55-40.45-1.33-1.59-4.58-6.93-5.56-7.65-3.74-2.76-6.62,3.28-10.7,3.57-6.33.44-8.61-6.76-5.47-11.56,1.38-2.12,5.13-3.22,4.58-6.22-.46-2.48-6.19-5.06-8.1-7.37-5.72-6.95-.02-17.01,7.75-10.66,1.69,1.38,2.74,4.77,5.95,4.18,3.18-1.34,1.8-4.81,2.42-7.51,1.01-4.42,5.64-6.45,9.39-3.81,2.8,1.96,2.88,5.32,2.43,8.48-.35,2.44-2.65,4.44-.74,6.89,1.92,2.48,4.51-.15,6.6-.48,5.32-.84,9.14,2.17,7.69,7.69-1.81,6.86-13.42,4.78-11.05,12.12.4,1.24,6.89,8.83,8.27,10.43,2.39,2.76,5.28,5.33,7.8,7.89Z"/>
  <path class="cls-2" d="M507.72,157.45c-10.3-8.66-19.84-18.14-28.59-28.37-.29-1.32,6.81-3.88,6.6-6.29,11.98,7.04,19.62,21.17,21.99,34.66Z"/>
  <path class="cls-2" d="M212.75,156.9c1.99-13.4,9.81-25.13,20.16-33.52l7.1,4.89c.38.51-.57,1.53-.86,1.93-1.98,2.76-6.31,7.32-8.78,9.93-5.58,5.88-11.86,11.09-17.62,16.77Z"/>
  <path d="M392.02,91c26.49-3.63,35.65,38.46,34.25,57.91-1.45,20.1-16.3,58.53-42.75,42.76-28.68-17.1-25.62-95.99,8.5-100.67ZM394.22,96.51c-16.11.66-23.84,28.57-24.63,41.41-.95,15.48,5.37,52.92,26.71,51.47,19.17-1.3,24.88-37.99,23.94-52.6-.84-13.08-9.34-40.97-26.02-40.28Z"/>
  <path d="M324.87,90.99c27.62-4.66,37.33,36.88,35.91,57.37-1.34,19.35-15.47,57.29-41.21,43.97-20.59-10.66-23.69-48.54-19.07-68.47,2.58-11.13,11.65-30.72,24.36-32.87ZM317.5,102.06c-17.65,17.67-17.94,67.13,2,83.19,13.61,10.95,24.77-2.51,29.98-14.61,8.32-19.34,7.37-46.94-4.76-64.54-7.11-10.31-17.63-13.65-27.22-4.04Z"/>
  <path d="M360.09,195c13.58-2.28,18.48,18.05,17.75,28.2-.73,10.17-6.1,25.94-19.27,22.59-16.35-4.16-15.97-47.85,1.52-50.79ZM360.64,201.03c-4.79,1.04-7.61,11.47-8.04,15.65-.58,5.73,1.21,24.14,9.51,23.85,7.87-.28,10.01-15.87,9.7-21.74-.28-5.55-3.23-19.49-11.18-17.76Z"/>
  <path class="cls-1" d="M394.22,96.51c16.68-.69,25.18,27.2,26.02,40.28.94,14.61-4.77,51.3-23.94,52.6-21.34,1.45-27.66-35.99-26.71-51.47.79-12.84,8.51-40.75,24.63-41.41ZM392.01,109.15c-10.62,1.81-16.3,20.77-16.91,29.87-.8,11.87,3.46,36.44,18.01,38.66,15.96,2.44,22.78-22.85,22.76-34.81-.03-13.13-6.82-36.61-23.85-33.72Z"/>
  <path class="cls-1" d="M317.5,102.06c9.59-9.61,20.11-6.27,27.22,4.04,12.13,17.61,13.08,45.2,4.76,64.54-5.21,12.1-16.38,25.56-29.98,14.61-19.95-16.06-19.65-65.52-2-83.19ZM329.85,108.6c-14.55,1.54-19.8,25.74-19.16,37.59.63,11.81,7.98,36.46,24.23,30.78,15.28-5.34,17.8-31.39,15.16-44.86-1.79-9.14-8.87-24.72-20.23-23.52Z"/>
  <path d="M360.64,201.03c7.95-1.73,10.89,12.21,11.18,17.76.3,5.87-1.83,21.46-9.7,21.74-8.3.29-10.09-18.12-9.51-23.85.42-4.18,3.25-14.6,8.04-15.65Z"/>
  <path d="M392.01,109.15c17.03-2.9,23.83,20.58,23.85,33.72.03,11.96-6.79,37.24-22.76,34.81-14.55-2.22-18.81-26.79-18.01-38.66.61-9.1,6.29-28.06,16.91-29.87Z"/>
  <path d="M329.85,108.6c11.36-1.2,18.44,14.38,20.23,23.52,2.64,13.47.12,39.52-15.16,44.86-16.25,5.68-23.59-18.97-24.23-30.78-.64-11.85,4.61-36.05,19.16-37.59Z"/>
</svg>